<?xml version="1.0" encoding="UTF-8"?>
<svg id="a" data-name="Layer 1" xmlns="http://www.w3.org/2000/svg" viewBox="0 0 429 420">
  <defs>
    <style>
      .b {
        fill: #fff;
      }

      .b, .c {
        stroke-width: 0px;
      }

      .c {
        fill: #e4003a;
      }
    </style>
  </defs>
  <rect class="c" x="1.80976" y="2.09903" width="426.64413" height="417.54554" rx="20.05545" ry="20.05545"/>
  <g>
    <g>
      <path class="b" d="M128.18652,303.21582v-15.51758h-16.64941v15.51758h-3.25439v-32.92188h3.25439v14.57422h16.64941v-14.57422h3.25488v32.92188h-3.25488Z"/>
      <path class="b" d="M139.64746,303.21582v-32.92188h16.13135v2.83008h-12.87646v11.74414h12.21582v2.83008h-12.21582v12.6875h13.44238v2.83008h-16.69727Z"/>
      <path class="b" d="M186.62549,303.21582l-3.53711-8.82031h-16.60254l-3.5376,8.82031h-3.16016l13.48975-32.92188h3.67871l13.06494,32.92188h-3.396ZM174.88135,273.40625l-7.16943,18.15918h14.2915l-7.12207-18.15918Z"/>
      <path class="b" d="M219.02832,286.75488c0,2.42188-.35352,4.63867-1.06104,6.65039-.70752,2.0127-1.82422,3.75-3.34863,5.21191-1.52588,1.46191-3.4834,2.59375-5.87256,3.39551-2.38965.80176-5.26709,1.20312-8.63135,1.20312h-5.70703v-32.92188h8.20703c2.95508,0,5.47119.4082,7.54639,1.22559,2.0752.81836,3.77344,1.9502,5.09424,3.39648,1.32031,1.44629,2.2793,3.18359,2.87695,5.21191.59717,2.02832.896,4.2373.896,6.62695ZM215.77393,286.51855c0-2.51465-.35352-4.62891-1.06104-6.34375-.70752-1.71289-1.66699-3.08887-2.87744-4.12695s-2.61768-1.78418-4.22119-2.24023-3.30176-.68359-5.09424-.68359h-4.85791v27.26172h2.78271c2.04395,0,3.99316-.21191,5.84863-.63672,1.85498-.4248,3.48242-1.16309,4.88184-2.2168,1.39893-1.05273,2.51514-2.46777,3.34863-4.24512.83301-1.77637,1.25-4.03223,1.25-6.76855Z"/>
      <path class="b" d="M225.86768,303.21582v-32.92188h3.25439v30.0918h13.20654v2.83008h-16.46094Z"/>
      <path class="b" d="M246.66699,303.21582v-32.92188h3.25439v32.92188h-3.25439Z"/>
      <path class="b" d="M276.94775,303.21582l-16.46143-28.39453h-.09424v28.39453h-3.25439v-32.92188h4.10352l16.74414,28.95996h.09424v-28.95996h3.25439v32.92188h-4.38623Z"/>
      <path class="b" d="M289.02148,303.21582v-32.92188h16.13135v2.83008h-12.87646v11.74414h12.21582v2.83008h-12.21582v12.6875h13.44238v2.83008h-16.69727Z"/>
      <path class="b" d="M329.63184,294.49023c0,1.69824-.33838,3.14453-1.01416,4.33887-.67676,1.19531-1.53271,2.1543-2.5708,2.87695-1.0376.72461-2.19287,1.25-3.46631,1.58008-1.27393.33105-2.5083.49609-3.70264.49609-1.44678,0-2.79932-.12598-4.05664-.37793-1.25781-.25098-2.40527-.59668-3.44287-1.03711l.33008-3.34961c1.1001.69238,2.23242,1.1875,3.396,1.48633,1.16309.29883,2.43652.44824,3.82031.44824,1.35156,0,2.5-.18945,3.44336-.56641s1.71338-.87988,2.31104-1.50879c.59717-.62891,1.02979-1.34473,1.29736-2.14648.2666-.80176.40088-1.62695.40088-2.47656,0-1.09961-.37012-2.05859-1.1084-2.87695-.73926-.81738-1.6748-1.57227-2.80664-2.26367s-2.34277-1.375-3.63184-2.05176c-1.28955-.67578-2.49951-1.42285-3.63184-2.24023-1.13184-.81738-2.06787-1.74512-2.80615-2.7832-.73926-1.03809-1.1084-2.29492-1.1084-3.77344,0-1.28906.2666-2.45996.80176-3.51367.53418-1.05371,1.27344-1.94922,2.2168-2.68848.94336-.73828,2.04346-1.3125,3.30176-1.72168,1.25732-.4082,2.625-.61328,4.10352-.61328,2.23193,0,4.38623.3623,6.46143,1.08496l-.51855,2.97168c-.81836-.44043-1.75342-.75488-2.80664-.94336-1.05371-.18848-2.09863-.2832-3.13623-.2832-2.26416,0-4.02539.50293-5.28271,1.50977-1.2583,1.00586-1.88672,2.37402-1.88672,4.10254,0,1.13281.36914,2.0918,1.1084,2.87793.73828.78613,1.67432,1.51758,2.80615,2.19336,1.13232.67578,2.34229,1.33691,3.63184,1.98047,1.28906.64453,2.5,1.38379,3.63184,2.2168,1.13232.83398,2.06738,1.81641,2.80664,2.94824.73828,1.13184,1.1084,2.5,1.1084,4.10352Z"/>
    </g>
    <g>
      <g>
        <path class="b" d="M141.80762,180.14941c-3.00488.47656-5.8833.71582-8.63428.71582-4.77344,0-9-.75781-12.67725-2.27441-3.67871-1.51562-6.78076-3.62207-9.30811-6.31738-2.52686-2.69531-4.43652-5.89648-5.72754-9.60254-1.29248-3.70703-1.9375-7.77734-1.9375-12.21387,0-4.60449.71582-8.78809,2.14795-12.55176,1.43213-3.76074,3.45361-6.96191,6.06494-9.60254,2.61133-2.63867,5.74121-4.6748,9.39209-6.10645,3.6499-1.43262,7.66553-2.14844,12.04541-2.14844,1.1792,0,2.4707.05664,3.875.16895,1.40283.11328,2.80713.2666,4.21143.46289,1.40332.19727,2.77979.47754,4.12744.84277,1.34814.36523,2.52734.7998,3.53809,1.30566l-.67383,5.39062c-2.3584-1.29102-4.85791-2.13379-7.49707-2.52734-2.64014-.3916-5.16699-.58984-7.58105-.58984-3.7627,0-7.11768.63184-10.06592,1.89551s-5.44775,3.01953-7.49707,5.26465c-2.05029,2.24707-3.60889,4.92773-4.6748,8.04492-1.06738,3.11621-1.60059,6.52832-1.60059,10.23438s.51855,7.10449,1.55859,10.19238c1.03809,3.08887,2.56885,5.75684,4.59082,8.00195,2.02148,2.24707,4.51953,3.98828,7.49658,5.22266,2.97607,1.23633,6.37305,1.85352,10.19238,1.85352.84229,0,1.83887-.02832,2.99023-.08496,1.15039-.05469,2.31641-.16797,3.49609-.33691,1.1792-.16797,2.30176-.37891,3.36914-.63184,1.06592-.25195,1.9375-.60254,2.61133-1.05273v-20.63672h-13.646v-5.05469h19.45801v29.22949c-3.42578,1.46094-6.64111,2.42969-9.64453,2.90625Z"/>
        <path class="b" d="M165.60205,179.85449v-63.17578h5.30713v63.17578h-5.30713Z"/>
        <path class="b" d="M221.11133,158.29004c0,3.25781-.43555,6.2627-1.30566,9.01367-.87109,2.75195-2.16211,5.1377-3.87451,7.16016-1.71387,2.02148-3.81934,3.59375-6.31787,4.7168-2.49902,1.12305-5.34863,1.68457-8.5498,1.68457-3.20068,0-6.05127-.56152-8.5498-1.68457-2.49902-1.12305-4.60498-2.69531-6.31738-4.7168-1.71387-2.02246-3.00488-4.4082-3.875-7.16016-.87109-2.75098-1.30566-5.75586-1.30566-9.01367,0-2.91895.39258-5.72754,1.17969-8.42285.78564-2.69531,1.99268-5.08203,3.62207-7.16016,1.62793-2.07715,3.70605-3.73438,6.2334-4.96973,2.52686-1.23438,5.53027-1.85352,9.0127-1.85352,3.48145,0,6.48633.61914,9.01318,1.85352,2.52734,1.23535,4.604,2.89258,6.2334,4.96973,1.62842,2.07812,2.83496,4.46484,3.62207,7.16016.78564,2.69531,1.1792,5.50391,1.1792,8.42285ZM215.29932,158.45898c0-2.4707-.29492-4.80176-.88428-6.99121-.58984-2.19043-1.48877-4.09863-2.6958-5.72852-1.20801-1.62793-2.69531-2.91895-4.46436-3.875-1.76904-.9541-3.83252-1.43164-6.19141-1.43164-2.3584,0-4.42188.47754-6.19092,1.43164-1.76904.95605-3.25781,2.24707-4.46436,3.875-1.2085,1.62988-2.10596,3.53809-2.6958,5.72852-.58936,2.18945-.88428,4.52051-.88428,6.99121,0,2.52734.32227,4.88574.96875,7.0752.64502,2.19043,1.57129,4.08594,2.77979,5.68652,1.20654,1.60059,2.69531,2.85059,4.46436,3.74805,1.76904.89941,3.77588,1.34766,6.02246,1.34766,2.24561,0,4.25391-.44824,6.02295-1.34766,1.76904-.89746,3.25635-2.14746,4.46436-3.74805,1.20703-1.60059,2.13379-3.49609,2.77979-5.68652.64502-2.18945.96875-4.54785.96875-7.0752Z"/>
        <path class="b" d="M267.18799,158.20605c0,3.25781-.36621,6.2627-1.09521,9.01367-.73047,2.75195-1.83984,5.1377-3.32715,7.15918-1.48877,2.02148-3.3418,3.60938-5.55957,4.75977-2.21924,1.15039-4.81592,1.72656-7.7915,1.72656-6.2334,0-10.67041-2.61133-13.30908-7.83398h-.16846v6.82324h-5.30713v-63.17578h5.30713v27.45996h.16846c1.06592-2.46973,2.82178-4.46387,5.26465-5.98047,2.44287-1.51562,5.12354-2.27441,8.04443-2.27441,3.20068,0,5.92383.5625,8.17041,1.68457,2.24561,1.12402,4.08545,2.66797,5.51758,4.63281,1.43213,1.9668,2.47021,4.31055,3.1167,7.03418.64502,2.72461.96875,5.71484.96875,8.9707ZM261.37549,158.375c0-5.44629-1.03955-9.79883-3.1167-13.05664-2.07812-3.25586-5.27881-4.88574-9.60254-4.88574-2.47168,0-4.53564.58984-6.19141,1.76855-1.65674,1.17969-2.9624,2.6543-3.9165,4.42285-.95557,1.76855-1.62939,3.70605-2.02197,5.8125-.39355,2.10547-.58936,4.05762-.58936,5.85352,0,2.24707.23828,4.45215.71582,6.61328.47656,2.16211,1.23438,4.08496,2.27441,5.76953,1.03857,1.68457,2.3584,3.04688,3.95898,4.08496,1.60059,1.04004,3.52344,1.55859,5.77002,1.55859,4.32373,0,7.52441-1.64258,9.60254-4.92773,2.07715-3.28516,3.1167-7.62305,3.1167-13.01367Z"/>
        <path class="b" d="M302.65088,179.85449v-6.99121h-.16846c-.56201,1.34766-1.34814,2.51367-2.35889,3.49512-1.01074.9834-2.13477,1.81152-3.36914,2.48535-1.23584.67383-2.5415,1.17969-3.91699,1.5166-1.37695.33691-2.68262.50488-3.91699.50488-2.97705,0-5.37793-.4209-7.20215-1.26367-1.8252-.8418-3.27197-1.88086-4.33789-3.11621-1.06738-1.23438-1.78369-2.56934-2.14795-4.00098-.36621-1.43262-.54785-2.73828-.54785-3.91699,0-3.875,1.20703-7.01953,3.62256-9.43457,2.07666-2.07715,4.94043-3.50879,8.5918-4.2959,3.64941-.78613,8.02979-1.17969,13.14062-1.17969h2.10596v-2.10547c0-3.92969-.77295-6.7666-2.31689-8.50781-1.54492-1.74023-4.02979-2.61133-7.45459-2.61133-2.18994,0-4.35254.26758-6.48584.80078-2.13477.53418-4.18408,1.44629-6.14941,2.7373v-5.13867c2.19043-1.01074,4.4502-1.75391,6.78076-2.23242,2.33008-.47559,4.39355-.71582,6.19141-.71582,2.75098,0,5.06738.36621,6.94922,1.0957,1.88086.73047,3.39746,1.76855,4.54883,3.11621,1.15039,1.34766,1.97949,2.99023,2.48486,4.92773s.7583,4.1416.7583,6.6123v21.73242c0,.61914.02734,1.57324.08398,2.86426.05566,1.29199.16846,2.49902.33691,3.62207h-5.22217ZM302.14551,158.20605h-2.02197c-4.83008,0-8.57861.36621-11.24512,1.09473-2.66797.73047-4.7041,1.79883-6.10693,3.20117-1.5166,1.5166-2.27441,3.56738-2.27441,6.14941,0,2.3584.74365,4.22656,2.23193,5.60156,1.4873,1.37695,3.71973,2.06348,6.69678,2.06348,2.97607,0,5.31982-.54688,7.03369-1.64258,1.7124-1.09473,2.99023-2.42773,3.83252-4.00098.84229-1.57129,1.36084-3.21387,1.55859-4.92773.1958-1.71191.29492-3.21387.29492-4.50684v-3.03223Z"/>
        <path class="b" d="M320.08691,179.85449v-63.17578h5.30713v63.17578h-5.30713Z"/>
      </g>
      <g>
        <path class="b" d="M149.15918,192.08789v11.04004h-18.25684v.00195h-11.04004v-.00195h-17.51855v-11.04004h46.81543ZM119.8623,244.05762v-33.23145h11.04004v33.23145h-11.04004Z"/>
        <path class="b" d="M168.05811,191.98242v52.0752h-11.04004v-52.0752h11.04004Z"/>
        <path class="b" d="M222.70605,191.70898v52.34863h-11.04004v-28.10742l-5.85547,5.85547-2.25635,2.25391-.60693.60742-2.01953,2.0166-1.46289,1.46094-7.42871-7.42871-5.09863-5.09668-11.04004-11.04004v-12.87012h2.74609l10.50146,10.50098,10.32227,10.3252,20.82617-20.82617h2.4126ZM175.89746,215.45703l11.04004,11.01855v17.58105h-11.04004v-28.59961Z"/>
        <path class="b" d="M277.09375,192.08105v11.04004h-46.44287v-8.96973l.00244-2.07031h46.44043ZM241.69287,233.01758h35.40088v11.04004h-46.44287v-8.96973l.00244-2.07031v-22.26953l11.03955.06836h30.76855v11.04004h-30.76855v11.16113Z"/>
        <path class="b" d="M325.84131,220.48047c1.35449,2.36914,2.07227,5.07227,2.07227,7.81836s-.71777,5.44824-2.07227,7.81738c-2.80615,4.89844-8.0498,7.94141-13.68701,7.94141h-15.63477c-6.92285,0-12.75342-4.67578-14.5083-11.04004-.35205-1.27637-.54053-2.62207-.54053-4.01074h10.81006c0,1.8584,1.2002,3.44043,2.86572,4.01074h17.00781c2.60107,0,4.71973-2.11816,4.71973-4.71875,0-2.60156-2.11865-4.71973-4.71973-4.71973h-14.92432c-4.41602,0-8.58789-1.86523-11.53662-5.02539-.81885-.87598-1.54297-1.85156-2.15234-2.91602-1.35498-2.36914-2.07031-5.07129-2.07031-7.81836,0-2.74609.71533-5.44824,2.07031-7.81738,2.80566-4.89844,8.04932-7.94141,13.68896-7.94141h15.9043c6.92236,0,12.75293,4.67578,14.50781,11.04004.35205,1.27637.54053,2.62207.54053,4.01074h-10.80957c0-1.8584-1.20068-3.44043-2.86572-4.01074h-17.27734c-2.60352,0-4.71924,2.11816-4.71924,4.71875,0,2.60156,2.11572,4.71973,4.71924,4.71973h14.92432c5.63721,0,10.88086,3.04297,13.68701,7.94141Z"/>
      </g>
    </g>
  </g>
</svg>
