<?xml version="1.0" encoding="UTF-8"?>
<svg id="a" data-name="Layer 1" xmlns="http://www.w3.org/2000/svg" viewBox="0 0 429 420">
  <defs>
    <style>
      .b {
        fill: #fff;
      }

      .b, .c {
        stroke-width: 0px;
      }

      .c {
        fill: #006cb5;
      }
    </style>
  </defs>
  <rect class="c" x="3.01903" y="2.35542" width="426.64413" height="417.54554" rx="20.05545" ry="20.05545"/>
  <g>
    <g>
      <path class="b" d="M117.18359,242.4834c-10.54688-5.77344-18.73926-13.87207-24.57764-24.29492-5.83838-10.41992-8.75781-22.34766-8.75781-35.78418,0-13.43359,2.91943-25.36035,8.75781-35.7832,5.83838-10.4209,14.03076-18.51855,24.57764-24.2959,10.54688-5.77344,22.60059-8.66309,36.16064-8.66309,12.55371,0,23.82422,2.3252,33.80615,6.96875,9.98193,4.64648,18.14209,11.33203,24.48389,20.05762,6.33838,8.72852,10.51416,18.99219,12.52441,30.79297h-44.63574c-1.75977-5.02051-4.80273-9.00781-9.13428-11.95996-4.33203-2.94824-9.32275-4.42578-14.97266-4.42578-7.66016,0-13.84277,2.51367-18.55127,7.53418-4.7085,5.02246-7.0625,11.61426-7.0625,19.77441,0,8.03711,2.354,14.59668,7.0625,19.68164s10.76465,7.62793,18.17432,7.62793c5.90039,0,11.04736-1.50684,15.44385-4.52051,4.39355-3.01367,7.5332-7.15723,9.4165-12.42969h44.82422c-1.50684,11.67676-5.49414,21.91113-11.95947,30.69824-6.46826,8.79004-14.78418,15.60254-24.95459,20.43457-10.16992,4.83203-21.53516,7.25098-34.08887,7.25098-13.81299,0-25.99023-2.88672-36.53711-8.66406Z"/>
      <path class="b" d="M261.44727,244.55566c-9.04004-4.39355-16.07324-10.57617-21.09326-18.55078-5.02344-7.97266-7.53369-17.2334-7.53369-27.78027s2.51025-19.80469,7.53369-27.7793c5.02002-7.97168,12.05322-14.1543,21.09326-18.55078,9.04004-4.39355,19.46045-6.5918,31.26367-6.5918,11.92725,0,22.41211,2.19824,31.45215,6.5918,9.04053,4.39648,16.03809,10.5791,20.99951,18.55078,4.9585,7.97461,7.43945,17.23242,7.43945,27.7793s-2.48096,19.80762-7.43945,27.78027c-4.96143,7.97461-11.95898,14.15723-20.99951,18.55078-9.04004,4.39355-19.5249,6.5918-31.45215,6.5918-11.80322,0-22.22363-2.19824-31.26367-6.5918ZM279.71582,211.31445c3.39014,3.32812,7.72217,4.99023,12.99512,4.99023,5.27344,0,9.60547-1.66211,12.99561-4.99023,3.38965-3.3252,5.08496-7.68945,5.08496-13.08984,0-5.39648-1.69531-9.79297-5.08496-13.18359-3.39014-3.38965-7.72217-5.08496-12.99561-5.08496-5.27295,0-9.60498,1.69531-12.99512,5.08496-3.38965,3.39062-5.08496,7.78711-5.08496,13.18359,0,5.40039,1.69531,9.76465,5.08496,13.08984Z"/>
    </g>
    <g>
      <path class="b" d="M89.72852,309.68652c-2.4668-1.41602-4.39355-3.38086-5.77881-5.89355-1.38623-2.5127-2.07861-5.36816-2.07861-8.56543,0-3.19824.69238-6.05371,2.07861-8.56641,1.38525-2.5127,3.31201-4.47656,5.77881-5.89258,2.46729-1.41602,5.25391-2.125,8.36035-2.125,3.65479,0,6.87549.99023,9.66211,2.96973,2.78711,1.98047,4.69775,4.64453,5.7334,7.99512h-2.92383c-.91357-2.52832-2.48242-4.52344-4.70508-5.98438-2.22363-1.46191-4.79688-2.19336-7.7207-2.19336-2.58936,0-4.9043.5791-6.94434,1.73633-2.04053,1.15723-3.63184,2.78613-4.77393,4.8877s-1.71289,4.49316-1.71289,7.17285.5708,5.07031,1.71289,7.17188,2.7334,3.73145,4.77393,4.88867c2.04004,1.15723,4.35498,1.73633,6.94434,1.73633,3.01514,0,5.66455-.76172,7.94873-2.28418,2.28418-1.52344,3.86768-3.60938,4.75146-6.25879h2.92383c-.63965,2.28418-1.72119,4.2793-3.24365,5.98438-1.52344,1.70605-3.35059,3.02246-5.48242,3.95117s-4.44678,1.39355-6.94385,1.39355c-3.10645,0-5.89307-.70801-8.36035-2.12402Z"/>
      <path class="b" d="M124.81445,310.23438c-1.88867-1.05078-3.35791-2.51953-4.40869-4.4082-1.05029-1.8877-1.57568-4.03516-1.57568-6.44141,0-2.40527.52539-4.5459,1.57568-6.41895,1.05078-1.87305,2.52002-3.33496,4.40869-4.38574,1.88818-1.05078,4.03516-1.57617,6.44141-1.57617,2.40576,0,4.5459.52539,6.41895,1.57617s3.33496,2.5127,4.38525,4.38574c1.05078,1.87305,1.57617,4.01367,1.57617,6.41895,0,2.40625-.52539,4.55371-1.57617,6.44141-1.05029,1.88867-2.51221,3.35742-4.38525,4.4082s-4.01318,1.57617-6.41895,1.57617c-2.40625,0-4.55322-.52539-6.44141-1.57617ZM122.71289,304.50098c.82227,1.49316,1.97168,2.6582,3.44922,3.49512,1.47705.83789,3.17529,1.25586,5.09375,1.25586,1.88818,0,3.5708-.41797,5.04834-1.25586,1.47656-.83691,2.62646-2.00195,3.44922-3.49512.82227-1.49121,1.2334-3.19727,1.2334-5.11621s-.41113-3.62402-1.2334-5.11719c-.82275-1.49121-1.97266-2.64941-3.44922-3.47168-1.47754-.82227-3.16016-1.2334-5.04834-1.2334-1.91846,0-3.6167.41113-5.09375,1.2334-1.47754.82227-2.62695,1.98047-3.44922,3.47168-.82227,1.49316-1.2334,3.19824-1.2334,5.11719s.41113,3.625,1.2334,5.11621Z"/>
      <path class="b" d="M150.99121,287.59766h2.23828l.22852,4.56836c.91357-1.67383,2.1543-2.95312,3.72314-3.83691,1.56836-.88281,3.3125-1.3252,5.23096-1.3252,3.07568,0,5.50488,1.00488,7.28662,3.01562,1.78174,2.00977,2.67236,4.7207,2.67236,8.13184v13.06543h-2.64941v-12.83691c0-2.71094-.68555-4.85742-2.05566-6.44141-1.37061-1.58398-3.229-2.37598-5.57373-2.37598-1.64453,0-3.10645.39648-4.38574,1.1875-1.27881.79297-2.27686,1.89648-2.99219,3.3125-.71582,1.41602-1.07373,3.05371-1.07373,4.91113v12.24316h-2.64941v-23.61914Z"/>
      <path class="b" d="M181.27979,287.59766h2.23828l.22852,4.56836c.91357-1.67383,2.1543-2.95312,3.72314-3.83691,1.56836-.88281,3.3125-1.3252,5.23096-1.3252,3.07568,0,5.50488,1.00488,7.28662,3.01562,1.78174,2.00977,2.67236,4.7207,2.67236,8.13184v13.06543h-2.64941v-12.83691c0-2.71094-.68555-4.85742-2.05566-6.44141-1.37061-1.58398-3.229-2.37598-5.57373-2.37598-1.64453,0-3.10645.39648-4.38574,1.1875-1.27881.79297-2.27686,1.89648-2.99219,3.3125-.71582,1.41602-1.07373,3.05371-1.07373,4.91113v12.24316h-2.64941v-23.61914Z"/>
      <path class="b" d="M215.26807,310.23438c-1.82715-1.05078-3.24365-2.5127-4.24854-4.38574s-1.50732-4.02734-1.50732-6.46387c0-2.40527.50928-4.5459,1.53027-6.41895,1.02002-1.87305,2.44385-3.33496,4.27148-4.38574,1.82715-1.05078,3.92871-1.57617,6.3042-1.57617,2.43652,0,4.5835.56445,6.44141,1.69043,1.85742,1.12695,3.27393,2.71094,4.24902,4.75098.97412,2.04102,1.43115,4.38574,1.37012,7.03613h-21.47119c.24316,2.67969,1.21045,4.81934,2.90088,6.41797,1.69043,1.59961,3.84473,2.39844,6.46436,2.39844,1.91846,0,3.60889-.42578,5.0708-1.2793,1.46191-.85156,2.58838-2.04004,3.38086-3.56348l2.96924.0459c-.91357,2.25488-2.3833,4.03613-4.40869,5.3457-2.02588,1.30957-4.36279,1.96387-7.01221,1.96387-2.37549,0-4.47705-.52539-6.30469-1.57617ZM231.07471,298.15137c-.30469-2.67969-1.30957-4.78906-3.01514-6.32715-1.70605-1.53809-3.85303-2.30762-6.44141-2.30762-2.61963,0-4.78174.78516-6.48682,2.35254-1.70605,1.56934-2.68066,3.66309-2.92383,6.28223h18.86719Z"/>
      <path class="b" d="M244.68848,310.21191c-1.82764-1.06543-3.25146-2.53516-4.27148-4.40918-1.021-1.87305-1.53027-4.01172-1.53027-6.41797,0-2.40527.50928-4.5459,1.53027-6.41895,1.02002-1.87305,2.44385-3.33496,4.27148-4.38574,1.82715-1.05078,3.91309-1.57617,6.25879-1.57617,2.80176,0,5.26855.76953,7.40088,2.30762,2.13135,1.53809,3.53271,3.58594,4.20264,6.14453h-2.69531c-.76172-1.85742-1.92676-3.30469-3.49463-4.33984-1.56934-1.03516-3.37354-1.55371-5.41357-1.55371-1.82764,0-3.45703.41113-4.88818,1.2334-1.43213.82227-2.54346,1.98047-3.33496,3.47168-.79248,1.49316-1.18799,3.19824-1.18799,5.11719s.39551,3.625,1.18799,5.11621c.7915,1.49316,1.90283,2.6582,3.33496,3.49512,1.43115.83789,3.06055,1.25586,4.88818,1.25586,2.16211,0,4.04297-.5625,5.64209-1.68945,1.59863-1.12695,2.73291-2.66504,3.40332-4.61426h2.78662c-.79248,2.77148-2.23828,4.94141-4.33984,6.50977-2.10156,1.56934-4.59912,2.35254-7.49219,2.35254-2.3457,0-4.43164-.5332-6.25879-1.59863Z"/>
      <path class="b" d="M273.05762,309.1377c-1.31006-1.38477-1.96436-3.41797-1.96436-6.09863v-13.01953h-5.1626v-2.42188h3.01514c.8833,0,1.49219-.14355,1.82764-.43359.33496-.28906.54834-.875.63965-1.75879l.22852-3.60938h2.10107v5.80176h8.17773v2.42188h-8.17773v12.92871c0,1.94922.41846,3.38867,1.25635,4.31641.8374.92969,2.13965,1.39355,3.90625,1.39355h3.33496v2.55859h-3.42627c-2.52832,0-4.44727-.69238-5.75635-2.0791Z"/>
      <path class="b" d="M295.48828,309.70898c-2.49805-1.40039-4.44727-3.35742-5.84766-5.87012-1.40137-2.5127-2.10156-5.38281-2.10156-8.61133s.7002-6.09863,2.10156-8.61133c1.40039-2.5127,3.34961-4.46973,5.84766-5.87109,2.49658-1.40039,5.34473-2.10156,8.54297-2.10156,3.22754,0,6.09082.70117,8.58838,2.10156,2.49707,1.40137,4.43848,3.3584,5.82471,5.87109,1.38574,2.5127,2.07861,5.38281,2.07861,8.61133s-.69287,6.09863-2.07861,8.61133c-1.38623,2.5127-3.32764,4.46973-5.82471,5.87012-2.49756,1.40137-5.36084,2.10156-8.58838,2.10156-3.19824,0-6.04639-.7002-8.54297-2.10156ZM292.10742,302.39941c1.15723,2.10156,2.76367,3.73145,4.81982,4.88867,2.05566,1.15723,4.42334,1.73633,7.104,1.73633,2.6792,0,5.05518-.5791,7.12646-1.73633,2.0708-1.15723,3.68457-2.7793,4.84277-4.86523,1.15674-2.08594,1.73584-4.48438,1.73584-7.19531s-.5791-5.10938-1.73584-7.19531c-1.1582-2.08594-2.77197-3.70801-4.84277-4.86523-2.07129-1.15723-4.44727-1.73633-7.12646-1.73633-2.68066,0-5.04834.5791-7.104,1.73633-2.05615,1.15723-3.6626,2.7793-4.81982,4.86523-1.15771,2.08594-1.73584,4.48438-1.73584,7.19531,0,2.67969.57812,5.07031,1.73584,7.17188Z"/>
      <path class="b" d="M328.15186,287.59766h2.23828l.22852,4.56836c.91357-1.67383,2.1543-2.95312,3.72314-3.83691,1.56836-.88281,3.3125-1.3252,5.23096-1.3252,3.07568,0,5.50488,1.00488,7.28662,3.01562,1.78174,2.00977,2.67236,4.7207,2.67236,8.13184v13.06543h-2.64941v-12.83691c0-2.71094-.68555-4.85742-2.05566-6.44141-1.37061-1.58398-3.229-2.37598-5.57373-2.37598-1.64453,0-3.10645.39648-4.38574,1.1875-1.27881.79297-2.27686,1.89648-2.99219,3.3125-.71582,1.41602-1.07373,3.05371-1.07373,4.91113v12.24316h-2.64941v-23.61914Z"/>
    </g>
  </g>
</svg>
