<?xml version="1.0" encoding="UTF-8"?><svg id="uuid-07169cbd-f0eb-4760-b154-52ec356cb6b6" xmlns="http://www.w3.org/2000/svg" viewBox="0 0 200 200"><defs><style>.uuid-268f5c91-398a-470d-88d8-95846c51490b{stroke-width:1.63px;}.uuid-268f5c91-398a-470d-88d8-95846c51490b,.uuid-d9b4bebc-4c4a-4b2d-a640-a1b111911e28{fill:none;stroke:#fff;stroke-miterlimit:10;}.uuid-d9b4bebc-4c4a-4b2d-a640-a1b111911e28{stroke-width:.18px;}.uuid-bc4b2607-51fd-44c4-845f-e9506e3d68e2{fill:#633e88;}.uuid-bc4b2607-51fd-44c4-845f-e9506e3d68e2,.uuid-69fe9e96-0237-43c5-843e-dcb901613e26{stroke-width:0px;}.uuid-69fe9e96-0237-43c5-843e-dcb901613e26{fill:#fff;}</style></defs><g id="uuid-945d82f7-157f-4df9-ad50-1e6d8b224330"><circle class="uuid-bc4b2607-51fd-44c4-845f-e9506e3d68e2" cx="100" cy="100" r="100"/><path class="uuid-69fe9e96-0237-43c5-843e-dcb901613e26" d="M130.98,132.29c25.79-8.69,42.95-25.29,46.45-28.87-22.05-22.01-44.4-31.38-64.67-33.91-2.61-.9-5.33-1.5-8.1-1.79,23.31.02,49.36,10.03,74.59,35.51,0,0-30.8,34.41-74.65,35.52.03,0,.08-.02.11-.03,3.27-.34,6.46-1.11,9.49-2.3,6.09-.96,11.7-2.43,16.78-4.13Z"/><path class="uuid-69fe9e96-0237-43c5-843e-dcb901613e26" d="M98.92,70.7c-4.91.68-9.6,3.84-13.29,9.21-1.38,2.02-2.57,4.29-3.54,6.75,5.65,1.55,11.26,2.41,16.83,2.59v-18.54ZM85.63,126.54c3.68,5.36,8.38,8.52,13.29,9.21v-18.27c-5.64.08-11.24.87-16.82,2.34.97,2.45,2.16,4.71,3.53,6.73ZM103,70.7v18.55c5.63-.16,11.23-1.01,16.81-2.55-.98-2.48-2.18-4.77-3.57-6.8-3.67-5.35-8.36-8.51-13.25-9.2ZM114.96,132.8c3.43-1.59,6.59-3.78,9.32-6.48,1.1-1.09,2.12-2.25,3.04-3.47-1.59-.62-3.17-1.19-4.76-1.7-1.04,2.55-2.29,4.93-3.77,7.09-1.17,1.7-2.45,3.22-3.83,4.55ZM129.6,119.41c2.57-4.46,4.06-9.49,4.3-14.69h-8.02c-.13,4.38-.8,8.64-1.99,12.61,1.9.62,3.8,1.31,5.71,2.07ZM136.76,103.24c0,15.04-11.39,28.2-25.47,33.59-6.56.85-13.64,1.1-21.16.46-5.5-1.7-10.55-4.71-14.7-8.81-6.76-6.7-10.57-15.78-10.57-25.24s3.8-18.55,10.57-25.25c3.95-3.91,8.73-6.82,13.92-8.57,7.11-.81,14.68-.93,22.57,0,14.45,4.88,24.82,18.19,24.82,33.83ZM103,135.74c4.89-.69,9.58-3.85,13.25-9.2,1.3-1.89,2.43-4.01,3.36-6.29-5.58-1.58-11.11-2.48-16.61-2.72v18.21ZM125.82,100.33h7.99c-.4-4.5-1.75-8.85-3.91-12.77-1.94.78-3.89,1.48-5.84,2.09.97,3.39,1.57,6.99,1.77,10.68ZM127.68,84.09c-1.02-1.4-2.16-2.73-3.41-3.96-2.73-2.71-5.89-4.88-9.32-6.48,1.37,1.32,2.66,2.85,3.83,4.54,1.58,2.31,2.91,4.87,3.98,7.63,1.64-.52,3.28-1.1,4.92-1.74ZM122.82,104.72h-19.82v8.79c5.95.24,11.95,1.21,17.95,2.93,1.1-3.67,1.75-7.64,1.87-11.72ZM103,100.33h19.76c-.2-3.39-.77-6.7-1.64-9.8-6,1.65-12.04,2.56-18.11,2.72v7.07ZM98.92,113.47v-8.74h-19.87c.13,3.91.73,7.73,1.75,11.27,6-1.59,12.04-2.44,18.12-2.53ZM98.92,100.33v-7.08c-6.02-.18-12.07-1.1-18.13-2.77-.89,3.12-1.46,6.44-1.67,9.86h19.8ZM83.1,78.19c1.16-1.69,2.45-3.22,3.82-4.54-3.42,1.59-6.59,3.77-9.32,6.48-1.24,1.22-2.36,2.54-3.38,3.92,1.64.64,3.28,1.21,4.92,1.73,1.06-2.74,2.39-5.29,3.96-7.58ZM86.92,132.8c-1.37-1.33-2.66-2.85-3.82-4.55-1.57-2.29-2.9-4.84-3.96-7.58-1.65.51-3.3,1.07-4.94,1.69,1.02,1.4,2.16,2.72,3.41,3.96,2.73,2.7,5.89,4.88,9.32,6.48ZM76.05,100.33c.21-3.71.82-7.33,1.8-10.73-1.95-.62-3.9-1.32-5.84-2.08-2.18,3.94-3.52,8.3-3.93,12.81h7.98ZM77.84,116.84c-1.1-3.83-1.72-7.93-1.85-12.12h-8.02c.24,4.99,1.62,9.82,4.01,14.15,1.95-.76,3.9-1.43,5.86-2.03Z"/><path class="uuid-69fe9e96-0237-43c5-843e-dcb901613e26" d="M136.76,103.24c0-15.64-10.37-28.95-24.82-33.83l.83.1c5.1,1.75,9.78,4.63,13.67,8.47,6.76,6.7,10.57,15.78,10.57,25.25s-3.8,18.54-10.57,25.24c-3.52,3.48-7.69,6.17-12.24,7.95-.95.15-1.92.29-2.91.4,14.07-5.39,25.47-18.54,25.47-33.59Z"/><path class="uuid-69fe9e96-0237-43c5-843e-dcb901613e26" d="M112.77,69.51l-.83-.1c-2.34-.79-4.8-1.37-7.33-1.69h.06c2.77.29,5.49.89,8.1,1.79Z"/><path class="uuid-69fe9e96-0237-43c5-843e-dcb901613e26" d="M111.3,136.82c.99-.12,1.96-.25,2.91-.4-3.03,1.19-6.21,1.96-9.49,2.3,2.23-.43,4.44-1.07,6.58-1.9Z"/><path class="uuid-69fe9e96-0237-43c5-843e-dcb901613e26" d="M89.36,69.42c3.69-1.24,7.6-1.89,11.58-1.89,1.25,0,2.5.07,3.73.19h-.06c2.53.32,4.98.89,7.33,1.69-7.89-.92-15.46-.8-22.57,0Z"/><path class="uuid-69fe9e96-0237-43c5-843e-dcb901613e26" d="M90.14,137.28c7.51.64,14.6.4,21.16-.46-2.14.83-4.34,1.47-6.58,1.9-1.25.13-2.51.2-3.78.2-3.7,0-7.34-.56-10.8-1.64Z"/><path class="uuid-268f5c91-398a-470d-88d8-95846c51490b" d="M101.15,139.67c-1.54.08-1.93-.03-3.47-.03-6.36,0-12.03-.5-18.39-1.71-21.87-4.16-43.6-15.52-64.59-33.78l-.83-.73.8-.77c.21-.2,21.49-20.37,52.28-30.38,11.78-3.83,22.63-5.28,34.02-5.19"/><path class="uuid-268f5c91-398a-470d-88d8-95846c51490b" d="M100.97,67.09h.19c6.02.05,12.93.24,18.77,1.39,21.27,4.22,41.34,15.72,59.64,34.2l.67.68-.64.71c-.19.2-18.53,20.19-47.89,30.1-9.49,3.2-20.93,5.06-30.56,5.5"/><path class="uuid-69fe9e96-0237-43c5-843e-dcb901613e26" d="M77.87,89.58c-1.96-.62-3.89-1.3-5.85-2.08-2.17,3.93-3.53,8.29-3.93,12.8h7.98c.2-3.69.81-7.31,1.79-10.72ZM72.01,118.86c1.94-.76,3.89-1.45,5.87-2.05-1.1-3.82-1.74-7.91-1.86-12.11h-8c.22,5,1.61,9.83,4,14.16ZM85.66,79.87c-1.38,2.03-2.57,4.29-3.55,6.75,5.65,1.56,11.26,2.41,16.82,2.59v-18.54c-4.89.69-9.6,3.84-13.27,9.2ZM80.82,115.98c5.99-1.59,12.04-2.44,18.11-2.53v-8.75h-19.84c.11,3.91.72,7.73,1.74,11.28ZM79.14,100.3h19.79v-7.08c-6.01-.18-12.06-1.09-18.12-2.77-.89,3.11-1.45,6.45-1.67,9.85ZM79.16,85.74c1.07-2.73,2.39-5.29,3.97-7.57,1.16-1.7,2.44-3.22,3.82-4.54-3.42,1.59-6.59,3.77-9.31,6.46-1.25,1.23-2.37,2.55-3.39,3.93,1.63.63,3.28,1.21,4.91,1.72ZM83.12,128.22c-1.58-2.28-2.9-4.83-3.97-7.57-1.65.51-3.3,1.07-4.94,1.68,1.03,1.39,2.17,2.73,3.42,3.97,2.72,2.7,5.88,4.89,9.31,6.48-1.38-1.34-2.66-2.86-3.82-4.56ZM98.93,135.73v-18.29c-5.63.09-11.23.89-16.8,2.35.96,2.44,2.15,4.71,3.53,6.72,3.68,5.38,8.38,8.53,13.27,9.22ZM100.96,67.51v71.39c-9.56,0-18.74-3.77-25.49-10.45-6.77-6.7-10.56-15.79-10.56-25.26s3.78-18.54,10.56-25.24c6.75-6.7,15.93-10.45,25.49-10.45Z"/><path class="uuid-d9b4bebc-4c4a-4b2d-a640-a1b111911e28" d="M100.96,67.51c-9.56,0-18.74,3.75-25.49,10.45-6.77,6.7-10.56,15.77-10.56,25.24s3.78,18.56,10.56,25.26c6.75,6.68,15.93,10.45,25.49,10.45v-71.39Z"/><path class="uuid-d9b4bebc-4c4a-4b2d-a640-a1b111911e28" d="M98.93,70.68v18.54c-5.56-.18-11.17-1.03-16.82-2.59.98-2.46,2.17-4.73,3.55-6.75,3.68-5.36,8.38-8.51,13.27-9.2Z"/><path class="uuid-d9b4bebc-4c4a-4b2d-a640-a1b111911e28" d="M86.94,73.63c-1.38,1.32-2.66,2.84-3.82,4.54-1.58,2.28-2.9,4.83-3.97,7.57-1.63-.51-3.28-1.09-4.91-1.72,1.01-1.38,2.14-2.7,3.39-3.93,2.72-2.7,5.88-4.87,9.31-6.46Z"/><path class="uuid-d9b4bebc-4c4a-4b2d-a640-a1b111911e28" d="M72.02,87.5c1.96.78,3.89,1.47,5.85,2.08-.98,3.4-1.59,7.03-1.79,10.72h-7.98c.4-4.51,1.76-8.87,3.93-12.8Z"/><path class="uuid-d9b4bebc-4c4a-4b2d-a640-a1b111911e28" d="M80.81,90.45c6.07,1.68,12.11,2.59,18.12,2.77v7.08h-19.79c.22-3.4.78-6.74,1.67-9.85Z"/><path class="uuid-d9b4bebc-4c4a-4b2d-a640-a1b111911e28" d="M68.01,104.7h8c.13,4.2.76,8.29,1.86,12.11-1.97.6-3.93,1.29-5.87,2.05-2.39-4.33-3.78-9.16-4-14.16Z"/><path class="uuid-d9b4bebc-4c4a-4b2d-a640-a1b111911e28" d="M79.09,104.7h19.84v8.75c-6.07.09-12.11.94-18.11,2.53-1.01-3.55-1.63-7.37-1.74-11.28Z"/><path class="uuid-d9b4bebc-4c4a-4b2d-a640-a1b111911e28" d="M98.93,117.44v18.29c-4.89-.69-9.6-3.84-13.27-9.22-1.38-2.01-2.57-4.27-3.53-6.72,5.58-1.47,11.17-2.26,16.8-2.35Z"/><path class="uuid-d9b4bebc-4c4a-4b2d-a640-a1b111911e28" d="M79.16,120.65c1.07,2.73,2.39,5.29,3.97,7.57,1.16,1.7,2.44,3.22,3.82,4.56-3.42-1.59-6.59-3.78-9.31-6.48-1.25-1.23-2.39-2.57-3.42-3.97,1.65-.62,3.3-1.18,4.94-1.68Z"/></g></svg>
