<?xml version="1.0" encoding="UTF-8"?><svg id="uuid-5df3383f-fd67-4297-abb5-8db1dbde8b0b" xmlns="http://www.w3.org/2000/svg" viewBox="0 0 200 200"><defs><style>.uuid-e4bb260f-7020-45c4-8b52-535fe9e9e384{fill:#fff;stroke:#fff;stroke-miterlimit:10;stroke-width:1.59px;}.uuid-eee0121c-e5cf-4a02-aba2-0574218cddb1{fill:#999;stroke-width:0px;}</style></defs><g id="uuid-20518711-1b8f-435f-9ec9-4e0ab21ac5bb"><circle class="uuid-eee0121c-e5cf-4a02-aba2-0574218cddb1" cx="100" cy="100" r="100"/><circle class="uuid-e4bb260f-7020-45c4-8b52-535fe9e9e384" cx="83.25" cy="151.64" r="8.36" transform="translate(-85.53 113.75) rotate(-48.58)"/><circle class="uuid-e4bb260f-7020-45c4-8b52-535fe9e9e384" cx="81.04" cy="70.64" r="8.36" transform="translate(-25.55 84.68) rotate(-48.58)"/><polygon class="uuid-e4bb260f-7020-45c4-8b52-535fe9e9e384" points="136.34 86.34 99.52 86.34 82.34 75.04 83.85 72.74 100.35 83.59 136.34 83.59 136.34 86.34"/><path class="uuid-e4bb260f-7020-45c4-8b52-535fe9e9e384" d="M90.94,127.35c-4.92,0-8.91-4-8.91-8.91,0-4.92,4-8.91,8.91-8.91,4.92,0,8.91,4,8.91,8.91s-4,8.91-8.91,8.91ZM90.94,110.62c-4.31,0-7.82,3.51-7.82,7.82,0,4.31,3.51,7.82,7.82,7.81,4.31,0,7.82-3.51,7.82-7.82s-3.51-7.82-7.82-7.81Z"/><circle class="uuid-e4bb260f-7020-45c4-8b52-535fe9e9e384" cx="62.17" cy="101.07" r="8.36" transform="translate(-54.76 80.83) rotate(-48.58)"/><rect class="uuid-e4bb260f-7020-45c4-8b52-535fe9e9e384" x="67.48" y="99.32" width="69.53" height="2.75"/><rect class="uuid-e4bb260f-7020-45c4-8b52-535fe9e9e384" x="96.69" y="107.65" width="29.72" height="1.65" transform="translate(-39.3 70.32) rotate(-30)"/><path class="uuid-e4bb260f-7020-45c4-8b52-535fe9e9e384" d="M98.54,57.11c-4.92,0-8.91-4-8.91-8.91s4-8.91,8.91-8.91c4.92,0,8.91,4,8.91,8.91,0,4.92-4,8.91-8.91,8.91ZM98.54,40.38c-4.31,0-7.82,3.51-7.82,7.82s3.51,7.82,7.82,7.81c4.31,0,7.82-3.51,7.82-7.82,0-4.31-3.51-7.82-7.82-7.81Z"/><polygon class="uuid-e4bb260f-7020-45c4-8b52-535fe9e9e384" points="91.02 150.56 90.19 149.13 135.74 122.84 135.74 70.72 104.85 52.88 105.67 51.45 137.39 69.76 137.39 123.79 91.02 150.56"/><rect class="uuid-e4bb260f-7020-45c4-8b52-535fe9e9e384" x="86.89" y="134.41" width="53.07" height="2.75" transform="translate(-52.7 74.91) rotate(-30)"/></g></svg>
