<?xml version="1.0" encoding="UTF-8"?>
<svg id="gov" xmlns="http://www.w3.org/2000/svg" viewBox="0 0 83 80.04">
  <defs>
    <style>
      .cls-1 {
        fill: #fff;
        stroke-width: 0px;
      }

      .cls-2 {
        fill: none;
        stroke: #fff;
        stroke-miterlimit: 10;
        stroke-width: .27px;
      }
    </style>
  </defs>
  <g>
    <path class="cls-1" d="m42.23,73.59c.13.01.24,0,.34-.02.88-.32,1.72-.77,2.44-1.16,2.31-1.25,4.36-2.95,6.34-4.59l.69-.57c5.17-4.26,9.38-9.61,12.87-16.37,3.33-6.45,5.34-13.6,5.97-21.27.26-3.17.39-6.28.54-9.58.06-1.47.13-2.95.2-4.44v-.48c0-.46,0-.99,0-1.52,0-.25-.04-.31-.27-.35-.51-.08-1.01-.18-1.51-.27-.65-.12-1.31-.24-1.97-.34-3.41-.52-7.06-1.15-10.66-2.21-5.24-1.55-10.08-3.83-14.12-5.85-.23-.11-.43-.17-.63-.17h-.02c-.19,0-.38.06-.58.16-1.71.86-3.25,1.6-4.71,2.27-5.18,2.38-9.61,3.88-13.94,4.73-2.38.46-4.82.86-7.18,1.25-.63.1-1.26.2-1.89.31l-.09.02q-.83.14-.8,1.01c.1,2.31.21,4.63.31,6.94.09,1.94.18,3.87.26,5.81.18,4.15.67,7.75,1.5,11.03,1.15,4.49,2.69,9.73,5.47,14.55,2.47,4.27,4.78,7.54,7.25,10.26,2.15,2.37,4.68,4.64,7.99,7.16,1.31,1,2.78,1.86,4.21,2.69.47.27.93.55,1.4.82.16.1.38.18.59.2h0Zm29.18-60.73c.42.07.6.3.59.74-.02.52-.01,1.05-.01,1.51v.5s0,0,0,0c-.08,1.5-.14,2.98-.2,4.44-.15,3.31-.28,6.42-.54,9.6-.63,7.71-2.65,14.91-6.01,21.41-3.51,6.8-7.75,12.2-12.96,16.49l-.69.57c-1.99,1.65-4.06,3.36-6.4,4.63-.73.4-1.59.85-2.49,1.18-.1.04-.21.05-.33.05-.32,0-.67-.11-.92-.27-.46-.27-.93-.55-1.4-.82-1.43-.84-2.91-1.7-4.24-2.72-3.32-2.53-5.88-4.82-8.04-7.2-2.49-2.75-4.81-6.03-7.3-10.33-2.81-4.86-4.36-10.13-5.51-14.65-.84-3.3-1.34-6.93-1.52-11.1-.08-1.94-.17-3.87-.26-5.81-.11-2.31-.21-4.63-.31-6.94-.05-1.12.04-1.22,1.11-1.39l.09-.02c.63-.11,1.26-.21,1.89-.31,2.35-.39,4.79-.78,7.17-1.25,4.3-.84,8.7-2.33,13.86-4.7,1.45-.67,2.99-1.41,4.7-2.27.55-.27,1.01-.27,1.58,0,4.03,2.02,8.85,4.29,14.05,5.83,3.58,1.06,7.21,1.68,10.61,2.2.67.1,1.34.23,1.98.35.5.09,1,.19,1.51.27Z"/>
    <path class="cls-1" d="m71.35,13.23c.24.04.28.1.27.35-.02.53-.01,1.06,0,1.52v.48c-.08,1.5-.14,2.98-.2,4.44-.15,3.3-.28,6.42-.54,9.58-.63,7.66-2.64,14.82-5.97,21.27-3.49,6.76-7.7,12.11-12.87,16.37l-.69.57c-1.98,1.64-4.03,3.33-6.34,4.59-.72.39-1.56.83-2.44,1.16-.09.03-.21.04-.34.02h0c-.09-1.71-.1-14.48-.07-28.61v-.08l6.15-10.61,3.35,1.95-1.37,2.36,4.21,2.44,11.34-19.56-4.21-2.44-1.43,2.46-11.45-6.64,1.33-2.3-3.88-2.25-3.94,6.79c.05-6.79.1-11.7.15-12.71h.02c.2,0,.4.06.63.17,4.04,2.03,8.89,4.31,14.12,5.85,3.6,1.06,7.25,1.69,10.66,2.21.66.1,1.33.22,1.97.34.51.09,1.01.19,1.51.27Z"/>
    <polygon class="cls-1" points="65.85 21.46 54.51 41.03 50.3 38.58 51.67 36.23 51.83 36.32 50.56 38.52 54.44 40.77 65.59 21.53 61.71 19.28 60.38 21.58 60.22 21.48 61.64 19.02 65.85 21.46"/>
    <polygon class="cls-1" points="65.59 21.53 54.44 40.77 50.56 38.52 51.83 36.32 52 36.42 50.82 38.45 54.37 40.5 65.33 21.6 61.78 19.54 60.54 21.67 60.38 21.58 61.71 19.28 65.59 21.53"/>
    <polygon class="cls-1" points="51.93 36.16 51.76 36.06 51.86 35.9 60.03 21.81 60.12 21.65 60.12 21.65 60.29 21.74 60.38 21.58 60.54 21.67 52 36.42 51.83 36.32 51.93 36.16"/>
    <polygon class="cls-1" points="60.38 21.58 60.29 21.74 60.12 21.65 60.22 21.48 60.38 21.58"/>
    <polygon class="cls-1" points="60.22 21.48 60.12 21.65 60.12 21.65 48.67 15 48.77 14.84 60.22 21.48"/>
    <path class="cls-1" d="m48.67,15l11.45,6.64-.09.16-11.29-6.54-8.17,14.09,11.28,6.55-.09.17-3.35-1.95-.09.16-2.19-1.26.1-.17-4.02-2.33v.22l-2.15-1.25,2.09-3.6,6.46-11.14.17.1-.1.16Z"/>
    <rect class="cls-1" x="51.71" y="36.1" width=".19" height=".19" transform="translate(-5.4 63.06) rotate(-60.1)"/>
    <polygon class="cls-1" points="48.41 34.12 51.76 36.06 51.67 36.23 48.32 34.28 48.41 34.12"/>
    <path class="cls-1" d="m50.1,12.55l-1.33,2.3-.17-.1,1.24-2.13-3.56-2.06-4.5,7.77-6.46,11.14,3.55,2.06,1.18-2.03,2.15,1.25c-.01,2.98-.02,6.04-.03,9.09l-.06.11-9.2,15.86-4.25-7.35-1.46,2.55,5.7,9.87,9.21-15.89h.05c-.03,14.13-.02,26.9.07,28.61-.21-.02-.43-.11-.59-.2-.46-.28-.93-.55-1.4-.82-1.42-.83-2.89-1.68-4.21-2.69-3.31-2.52-5.84-4.79-7.99-7.16-2.48-2.72-4.78-5.98-7.25-10.26-2.78-4.82-4.33-10.06-5.47-14.55-.83-3.27-1.33-6.88-1.5-11.03-.08-1.94-.17-3.87-.26-5.81-.11-2.31-.21-4.63-.31-6.94q-.03-.87.8-1.01l.09-.02c.63-.11,1.26-.21,1.89-.31,2.36-.39,4.8-.79,7.18-1.25,4.33-.84,8.76-2.34,13.94-4.73,1.46-.67,3-1.41,4.71-2.27.21-.11.4-.16.58-.16-.05,1.01-.11,5.92-.15,12.71l3.94-6.79,3.88,2.25Z"/>
    <path class="cls-1" d="m46.22,32.85l-.1.17-3.92-2.27v-.22l4.02,2.33Z"/>
    <path class="cls-1" d="m42.21,30.74l3.92,2.27-3.95,6.82c0-3.05.02-6.11.03-9.09Z"/>
  </g>
  <g>
    <path class="cls-2" d="m42.37,73.97c-.32,0-.67-.11-.92-.27-.46-.27-.93-.55-1.4-.82-1.43-.84-2.91-1.7-4.24-2.72-3.32-2.53-5.88-4.82-8.04-7.2-2.49-2.75-4.81-6.03-7.3-10.33-2.81-4.86-4.36-10.13-5.51-14.65-.84-3.3-1.34-6.93-1.52-11.1-.08-1.94-.17-3.87-.26-5.81-.11-2.31-.21-4.63-.31-6.94-.05-1.12.04-1.22,1.11-1.39l.09-.02c.63-.11,1.26-.21,1.89-.31,2.35-.39,4.79-.78,7.17-1.25,4.3-.84,8.7-2.33,13.86-4.7,1.45-.67,2.99-1.41,4.7-2.27.55-.27,1.01-.27,1.58,0,4.03,2.02,8.85,4.29,14.05,5.83,3.58,1.06,7.21,1.68,10.61,2.2.67.1,1.34.23,1.98.35.5.09,1,.19,1.51.27.42.07.6.3.59.74-.02.52-.01,1.05-.01,1.51v.5s0,0,0,0c-.08,1.5-.14,2.98-.2,4.44-.15,3.31-.28,6.42-.54,9.6-.63,7.71-2.65,14.91-6.01,21.41-3.51,6.8-7.75,12.2-12.96,16.49l-.69.57c-1.99,1.65-4.06,3.36-6.4,4.63-.73.4-1.59.85-2.49,1.18-.1.04-.21.05-.33.05Z"/>
    <path class="cls-2" d="m42.23,73.59c.13.01.24,0,.34-.02.88-.32,1.72-.77,2.44-1.16,2.31-1.25,4.36-2.95,6.34-4.59l.69-.57c5.17-4.26,9.38-9.61,12.87-16.37,3.33-6.45,5.34-13.6,5.97-21.27.26-3.17.39-6.28.54-9.58.06-1.47.13-2.95.2-4.44v-.48c0-.46,0-.99,0-1.52,0-.25-.04-.31-.27-.35-.51-.08-1.01-.18-1.51-.27-.65-.12-1.31-.24-1.97-.34-3.41-.52-7.06-1.15-10.66-2.21-5.24-1.55-10.08-3.83-14.12-5.85-.23-.11-.43-.17-.63-.17h-.02c-.19,0-.38.06-.58.16-1.71.86-3.25,1.6-4.71,2.27-5.18,2.38-9.61,3.88-13.94,4.73-2.38.46-4.82.86-7.18,1.25-.63.1-1.26.2-1.89.31l-.09.02q-.83.14-.8,1.01c.1,2.31.21,4.63.31,6.94.09,1.94.18,3.87.26,5.81.18,4.15.67,7.75,1.5,11.03,1.15,4.49,2.69,9.73,5.47,14.55,2.47,4.27,4.78,7.54,7.25,10.26,2.15,2.37,4.68,4.64,7.99,7.16,1.31,1,2.78,1.86,4.21,2.69.47.27.93.55,1.4.82.16.1.38.18.59.2"/>
    <polyline class="cls-2" points="48.6 14.75 48.77 14.84 60.22 21.48 60.38 21.58 60.54 21.67"/>
    <polyline class="cls-2" points="52 36.42 51.83 36.32 51.67 36.23 48.32 34.28 46.13 33.01 42.21 30.74 40.05 29.49"/>
    <polyline class="cls-2" points="60.03 21.81 48.74 15.27 40.58 29.35 51.86 35.9"/>
    <polyline class="cls-2" points="41.78 18.33 35.33 29.46 38.88 31.52 40.05 29.49 42.14 25.89"/>
    <polyline class="cls-2" points="42.14 25.89 48.6 14.75 49.84 12.62 46.29 10.56 41.78 18.33"/>
    <polyline class="cls-2" points="60.12 21.65 60.22 21.48 61.64 19.02 65.85 21.46 54.51 41.03 50.3 38.58 51.67 36.23 51.76 36.06 51.86 35.9 60.03 21.81 60.12 21.65"/>
    <polygon class="cls-2" points="52 36.42 50.82 38.45 54.37 40.5 65.33 21.6 61.78 19.54 60.54 21.67 52 36.42"/>
  </g>
</svg>
