<?xml version="1.0" encoding="UTF-8"?>
<svg id="cso" xmlns="http://www.w3.org/2000/svg" viewBox="0 0 83 77">
  <defs>
    <style>
      .cls-1 {
        fill: #fff;
        stroke-width: 0px;
      }
    </style>
  </defs>
  <path class="cls-1" d="m69.97,24.32l.21,29.73s-14.53-3.72-14-15.88c.54-12.2,13.79-13.85,13.79-13.85Z"/>
  <path class="cls-1" d="m68.57,56.71l-25.72,14.91s-5.29-12.26,4.94-18.91c10.2-6.63,20.78,4,20.78,4Z"/>
  <path class="cls-1" d="m42.83,5.19l25.72,14.91s-10.58,10.64-20.78,4c-10.23-6.65-4.94-18.91-4.94-18.91Z"/>
  <path class="cls-1" d="m51.96,35.09c1.93,0,3.51,1.57,3.51,3.51s-1.57,3.5-3.51,3.5-3.51-1.56-3.51-3.5,1.57-3.51,3.51-3.51Z"/>
  <path class="cls-1" d="m45.99,24.92c1.93,0,3.5,1.57,3.5,3.51s-1.56,3.5-3.5,3.5-3.51-1.56-3.51-3.5,1.57-3.51,3.51-3.51Z"/>
  <path class="cls-1" d="m45.99,44.5c1.93,0,3.5,1.57,3.5,3.51s-1.56,3.51-3.5,3.51-3.51-1.57-3.51-3.51,1.57-3.51,3.51-3.51Z"/>
  <path class="cls-1" d="m38.29,5.19s5.29,12.26-4.93,18.91c-10.2,6.63-20.78-4-20.78-4l25.72-14.91Z"/>
  <path class="cls-1" d="m33.33,53.09c10.23,6.65,4.94,18.91,4.94,18.91l-25.72-14.91s10.58-10.64,20.78-4Z"/>
  <path class="cls-1" d="m34.82,24.92c1.93,0,3.51,1.57,3.51,3.51s-1.57,3.5-3.51,3.5-3.51-1.56-3.51-3.5,1.57-3.51,3.51-3.51Z"/>
  <path class="cls-1" d="m34.82,44.89c1.93,0,3.51,1.56,3.51,3.5s-1.57,3.51-3.51,3.51-3.51-1.57-3.51-3.51,1.57-3.5,3.51-3.5Z"/>
  <path class="cls-1" d="m28.86,34.89c1.93,0,3.5,1.57,3.5,3.51s-1.56,3.51-3.5,3.51-3.51-1.57-3.51-3.51,1.57-3.51,3.51-3.51Z"/>
  <path class="cls-1" d="m24.56,38.17c.53,12.15-14,15.88-14,15.88l.21-29.73s13.25,1.66,13.79,13.85Z"/>
</svg>
