<?xml version="1.0" encoding="UTF-8"?>
<svg id="Layer_4" data-name="Layer 4" xmlns="http://www.w3.org/2000/svg" viewBox="0 0 83 80.04">
  <defs>
    <style>
      .cls-1 {
        stroke-width: .31px;
      }

      .cls-1, .cls-2 {
        fill: none;
        stroke: #fff;
        stroke-miterlimit: 10;
      }

      .cls-2 {
        stroke-width: .28px;
      }

      .cls-3 {
        fill: #fff;
        stroke-width: 0px;
      }
    </style>
  </defs>
  <g>
    <path class="cls-3" d="m80.96,35.34l.32.33-.31.34c-.09.1-8.84,9.63-22.84,14.36-4.52,1.53-9.98,2.41-14.58,2.62-.73.04-.92-.01-1.65-.01-3.04,0-5.74-.24-8.78-.82-10.43-1.98-20.79-7.4-30.81-16.11l-.4-.35.38-.37c.1-.1,10.25-9.72,24.94-14.49,5.62-1.83,10.8-2.52,16.23-2.48h.09c2.88.02,6.17.11,8.95.66,10.15,2.01,19.72,7.5,28.45,16.31Zm-35.75,17.2c20.91-.52,35.61-16.94,35.61-16.94-12.05-12.17-24.47-16.94-35.61-16.94,1.2.15,2.36.42,3.47.8h-.02c-1.67-.52-3.42-.8-5.2-.8s-3.47.26-5.1.76c-3.92.41-7.55,1.27-10.78,2.32-12.88,4.18-22.23,12.14-24.21,13.92,12.76,10.98,24.69,15.3,34.92,16.17,1.66.51,3.4.78,5.17.78.59,0,1.17-.03,1.75-.09Z"/>
    <path class="cls-3" d="m79.95,35.69c-1.67,1.71-9.85,9.63-22.16,13.78-2.42.81-5.09,1.51-7.99,1.97,2.16-.84,4.15-2.12,5.82-3.77,3.23-3.19,5.04-7.5,5.04-12.01s-1.81-8.82-5.04-12.01c-1.93-1.91-4.28-3.31-6.83-4.14-.04-.01-.07-.03-.11-.04,9.78,1.13,20.6,5.58,31.26,16.22Z"/>
    <path class="cls-3" d="m57.79,49.46c12.3-4.14,20.49-12.06,22.16-13.78-10.67-10.65-21.49-15.1-31.26-16.22-1.11-.37-2.27-.64-3.47-.8,11.13,0,23.56,4.77,35.61,16.94,0,0-14.69,16.41-35.61,16.94,0,0,0,0,.01,0,1.58-.16,3.12-.53,4.58-1.11,2.9-.46,5.57-1.15,7.99-1.97Z"/>
    <path class="cls-3" d="m55.36,36.32h3.82c-.12,2.48-.83,4.88-2.06,7.01-.91-.37-1.81-.7-2.72-.99.57-1.89.89-3.93.95-6.02Z"/>
    <path class="cls-3" d="m59.14,34.22h-3.8c-.1-1.76-.39-3.47-.85-5.09.93-.29,1.86-.63,2.79-1,1.03,1.87,1.67,3.95,1.87,6.09Z"/>
    <path class="cls-3" d="m54.59,24.58c.6.59,1.14,1.22,1.62,1.89-.78.3-1.56.58-2.34.83-.51-1.32-1.15-2.54-1.9-3.64-.56-.81-1.17-1.54-1.82-2.17,1.63.76,3.14,1.8,4.44,3.09Z"/>
    <path class="cls-3" d="m56.04,44.97c-.44.58-.93,1.13-1.45,1.65-1.3,1.29-2.81,2.33-4.44,3.08.66-.63,1.27-1.36,1.82-2.17.7-1.03,1.31-2.17,1.8-3.39.76.25,1.51.52,2.27.82Z"/>
    <path class="cls-3" d="m44.44,36.32h9.46c-.06,1.95-.37,3.84-.89,5.59-2.87-.82-5.72-1.28-8.57-1.4v-4.19Z"/>
    <path class="cls-3" d="m53.87,34.22h-9.43v-3.37c2.9-.08,5.78-.51,8.64-1.3.42,1.48.69,3.06.79,4.68Z"/>
    <path class="cls-3" d="m50.76,24.48c.66.97,1.23,2.06,1.7,3.24-2.67.73-5.34,1.14-8.02,1.22v-8.85c2.33.33,4.57,1.83,6.32,4.39Z"/>
    <path class="cls-3" d="m52.36,43.72c-.45,1.09-.99,2.1-1.6,3-1.75,2.55-3.99,4.06-6.32,4.39v-8.69c2.63.12,5.26.54,7.92,1.3Z"/>
    <path class="cls-3" d="m48.79,19.5s-.09-.03-.13-.04h.02s.08.03.11.04Z"/>
    <path class="cls-3" d="m42.49,42.4v8.72c-2.34-.33-4.58-1.83-6.33-4.39-.66-.96-1.22-2.04-1.69-3.21,2.67-.7,5.34-1.07,8.02-1.12Z"/>
    <path class="cls-3" d="m42.49,36.32v4.17c-2.9.04-5.78.45-8.64,1.21-.49-1.69-.77-3.51-.83-5.38h9.47Z"/>
    <path class="cls-3" d="m42.49,30.84v3.38h-9.44c.1-1.63.37-3.21.8-4.7,2.89.8,5.78,1.23,8.65,1.32Z"/>
    <path class="cls-3" d="m42.49,20.09v8.84c-2.66-.08-5.33-.49-8.03-1.23.47-1.17,1.03-2.26,1.69-3.22,1.75-2.56,4-4.07,6.33-4.39Z"/>
    <path class="cls-3" d="m38.35,19.43c-2.64.81-5.07,2.24-7.06,4.21-3.23,3.19-5.04,7.5-5.04,12.01s1.81,8.82,5.04,12.01c1.97,1.95,4.38,3.37,6.99,4.19-10.23-.88-22.16-5.2-34.92-16.17,1.98-1.78,11.33-9.75,24.21-13.92,3.24-1.05,6.87-1.91,10.78-2.32Z"/>
    <path class="cls-3" d="m36.77,21.49c-.66.64-1.27,1.36-1.83,2.17-.75,1.09-1.38,2.31-1.89,3.61-.78-.25-1.56-.52-2.34-.82.48-.66,1.02-1.29,1.61-1.87,1.3-1.29,2.81-2.33,4.44-3.09Z"/>
    <path class="cls-3" d="m34.95,47.54c.56.81,1.17,1.54,1.83,2.17-1.64-.76-3.14-1.8-4.44-3.08-.6-.59-1.14-1.22-1.62-1.89.78-.3,1.57-.57,2.35-.81.51,1.3,1.14,2.52,1.89,3.62Z"/>
    <path class="cls-3" d="m32.44,29.1c-.47,1.62-.76,3.35-.85,5.12h-3.81c.19-2.15.84-4.23,1.87-6.11.93.37,1.86.7,2.79.99Z"/>
    <path class="cls-3" d="m31.56,36.32c.06,2,.36,3.95.88,5.78-.94.29-1.87.61-2.8.97-1.14-2.06-1.8-4.37-1.91-6.75h3.82Z"/>
  </g>
  <g>
    <path class="cls-1" d="m43.56,52.99c-.73.04-.92-.01-1.65-.01-3.04,0-5.74-.24-8.78-.82-10.43-1.98-20.79-7.4-30.81-16.11l-.4-.35.38-.37c.1-.1,10.25-9.72,24.94-14.49,5.62-1.83,10.8-2.52,16.23-2.48"/>
    <path class="cls-2" d="m43.47,18.37h.09c2.88.02,6.17.11,8.95.66,10.15,2.01,19.72,7.5,28.45,16.31l.32.33-.31.34c-.09.1-8.84,9.63-22.84,14.36-4.52,1.53-9.98,2.41-14.58,2.62"/>
  </g>
</svg>
