<?xml version="1.0" encoding="UTF-8"?><svg id="uuid-d2155134-8954-4fd2-bdeb-d30454714161" xmlns="http://www.w3.org/2000/svg" viewBox="0 0 200 200"><defs><style>.uuid-ecb33f75-8f1c-43b1-8536-7fd8daae6488{fill:#95c11f;}.uuid-ecb33f75-8f1c-43b1-8536-7fd8daae6488,.uuid-286e7b61-9646-4313-b0a6-06282f224363{stroke-width:0px;}.uuid-286e7b61-9646-4313-b0a6-06282f224363{fill:#fff;}</style></defs><g id="uuid-f3d0b735-0b2f-4ea6-91d3-8d286b476b0e"><circle class="uuid-ecb33f75-8f1c-43b1-8536-7fd8daae6488" cx="100" cy="100" r="100"/><path class="uuid-286e7b61-9646-4313-b0a6-06282f224363" d="M166.82,143.34c0,.4-.02.8-.06,1.21-.26,2.6-1.88,4.2-4.57,4.54-.69.08-1.37.13-2.02.13h-55.95v-1c18.65,0,37.29,0,55.95,0,.64,0,1.27-.04,1.9-.12,2.15-.26,3.48-1.47,3.69-3.63.12-1.36-.02-2.75-.16-4.11-.53-5.11-1.88-9.98-4.22-14.57-3.9-7.65-10.35-11.99-18.44-14.19-1.07-.29-2.18-.39-3.26-.64-3.14-.76-6.12-1.99-9.07-3.27-4.36-1.89-8.7-3.84-13.05-5.77-.35-.16-.6-.32-.6-.8,0-3.29-.03-6.57-.09-9.86-.02-.8.08-1.48.78-1.99.24-.17.41-.45.6-.7,1.95-2.61,3.07-5.6,3.82-8.73.31-1.35.55-2.72.83-4.11,1.48.32,2.31-.48,2.88-1.67.26-.55.5-1.13.61-1.74.24-1.43.46-2.88.56-4.32.13-1.92.24-3.85.17-5.77-.06-1.65-.53-2.07-2.09-2.46.23-1.93.48-3.87.68-5.8.29-2.8.58-5.6.07-8.41-.98-5.49-3.56-10.02-8.26-13.1-4.1-2.7-8.56-4.13-13.3-4.17v-1.01c4.88.05,9.55,1.5,13.85,4.34,4.69,3.08,7.61,7.71,8.7,13.77.53,2.96.23,5.87-.07,8.69-.14,1.36-.31,2.72-.46,4.04-.04.31-.08.63-.12.95,1.24.47,1.93,1.26,1.99,3.14.07,1.98-.04,3.99-.17,5.87-.11,1.56-.36,3.1-.58,4.43-.12.77-.43,1.47-.69,2-.82,1.7-1.95,2.24-2.98,2.3l-.07.42c-.18.93-.36,1.9-.59,2.85-.88,3.74-2.16,6.64-3.99,9.1l-.1.14c-.17.24-.38.54-.7.77-.26.2-.39.41-.37,1.17.06,2.91.09,6.01.09,9.76,1.33.59,2.65,1.17,3.98,1.76,2.97,1.32,6.04,2.69,9.07,4.01,2.8,1.21,5.8,2.46,8.91,3.22.46.11.93.19,1.42.27.61.1,1.24.21,1.87.38,9.03,2.45,15.27,7.26,19.07,14.7,2.31,4.53,3.76,9.55,4.32,14.93.1,1.01.21,2.05.21,3.1Z"/><path class="uuid-286e7b61-9646-4313-b0a6-06282f224363" d="M165.61,140.35c.14,1.36.28,2.75.16,4.11-.21,2.16-1.55,3.36-3.69,3.63-.63.08-1.26.12-1.9.12-18.65,0-37.3,0-55.95,0v-1.01c18.65,0,37.3,0,55.95,0,.57,0,1.17-.03,1.78-.11,1.74-.21,2.66-1.12,2.82-2.74.12-1.26-.02-2.6-.16-3.91-.54-5.13-1.92-9.91-4.12-14.22-3.52-6.91-9.34-11.38-17.8-13.67-.53-.15-1.08-.24-1.67-.34-.51-.09-1.03-.18-1.56-.31-3.26-.79-6.36-2.07-9.23-3.32-3.04-1.32-6.12-2.69-9.09-4.02-1.32-.59-2.64-1.17-3.97-1.76-.3-.13-1.19-.53-1.2-1.72,0-3.79-.03-6.91-.09-9.84-.02-.95.11-2.02,1.19-2.82.06-.05.17-.2.26-.32l.12-.17c1.67-2.24,2.83-4.89,3.65-8.36.21-.9.38-1.81.56-2.76l.25-1.31.21-1.01,1,.22c.7.15,1.21.02,1.76-1.12.18-.38.43-.94.52-1.47.21-1.27.45-2.76.55-4.22.12-1.83.23-3.78.17-5.67-.04-1.12-.12-1.21-1.33-1.53l-.85-.21.1-.88c.07-.6.14-1.19.21-1.79.17-1.31.33-2.67.46-4,.28-2.68.57-5.45.09-8.12-.99-5.49-3.62-9.68-7.83-12.45-3.98-2.61-8.26-3.96-12.75-4v-1.01c4.74.04,9.2,1.47,13.3,4.17,4.7,3.08,7.28,7.61,8.26,13.1.5,2.81.21,5.61-.07,8.41-.2,1.93-.45,3.87-.68,5.8,1.56.4,2.03.81,2.09,2.46.07,1.92-.04,3.85-.17,5.77-.1,1.45-.32,2.89-.56,4.32-.11.6-.35,1.19-.61,1.74-.57,1.19-1.4,1.99-2.88,1.67-.28,1.39-.51,2.76-.83,4.11-.74,3.13-1.87,6.12-3.82,8.73-.18.25-.36.53-.6.7-.69.51-.79,1.19-.78,1.99.06,3.29.08,6.57.09,9.86,0,.48.25.64.6.8,4.35,1.93,8.69,3.88,13.05,5.77,2.95,1.28,5.93,2.51,9.07,3.27,1.07.26,2.19.36,3.26.64,8.09,2.2,14.54,6.54,18.44,14.19,2.34,4.59,3.69,9.46,4.22,14.57Z"/><path class="uuid-286e7b61-9646-4313-b0a6-06282f224363" d="M104.22,147.21v1.01h-1V28.28c.33,0,.67-.02,1-.02v118.95Z"/><path class="uuid-286e7b61-9646-4313-b0a6-06282f224363" d="M104.22,27.24v.02c-.34,0-.68,0-1.02.02l1.02-.03Z"/><path class="uuid-286e7b61-9646-4313-b0a6-06282f224363" d="M102.21,29.34v-2.02c.32-.02.65-.04.98-.05h0c.35,0,.69-.02,1.02-.02v1.01c-.33,0-.67,0-1,.02v119.94h1v1h-2.01V29.34Z"/><path class="uuid-286e7b61-9646-4313-b0a6-06282f224363" d="M102.21,27.3l.98-.03c-.32,0-.65.02-.98.05v-.02Z"/><path class="uuid-286e7b61-9646-4313-b0a6-06282f224363" d="M78.78,70.65c-.23-2.6-.4-4.9-.53-7.03-.04-.8.1-1.59.23-2.26.25-1.27.83-2.02,1.88-2.36,0-.12-.02-.23-.04-.35-.13-.94-.26-1.93-.33-2.9-.04-.62-.1-1.23-.15-1.84-.17-2.06-.34-4.18-.29-6.3.11-3.92,1.61-7.57,4.59-11.18,4.07-4.93,9.45-7.92,15.98-8.88.36-.05.74-.1,2.08-.23v2.02c-.6.05-1.2.12-1.79.2-3.01.45-5.75,1.36-8.22,2.73-2.46,1.36-4.63,3.19-6.5,5.45-2.69,3.25-4.03,6.5-4.13,9.95-.05,2.01.12,4.07.29,6.08.05.62.1,1.24.14,1.86.07.92.2,1.87.32,2.79.06.43.12.86.17,1.3l.12,1.02-1.03.09c-.88.08-.98.23-1.12.94-.11.55-.22,1.2-.19,1.76.12,2.11.29,4.38.52,6.97.13,1.49.45,2.61,1.02,3.53.5.81.98.88,1.58.74l1.02-.24.25,1.26c.02.14.05.27.07.4.12.55.23,1.12.34,1.67.24,1.2.48,2.44.82,3.6,1.01,3.45,2.35,5.93,4.23,7.82.44.44.48,1.07.48,1.32,0,1.45-.02,2.9-.04,4.36-.02,2.03-.05,4.07-.06,6.12,0,.34,0,1.38-1.19,1.91-1.83.81-3.65,1.63-5.48,2.45-3.08,1.38-6.26,2.81-9.41,4.18-2.57,1.12-5.58,2.35-8.81,2.77-2.23.29-4.44.94-6.96,2.04-4.67,2.04-8.22,4.93-10.88,8.84-2.34,3.46-3.99,7.41-5.06,12.07-.76,3.34-1.1,6.09-1.07,8.67.02,1.67.86,2.69,2.5,3.02.65.14,1.39.21,2.18.21,18.64,0,37.27,0,55.9,0v2.01c-18.64,0-37.28,0-55.9,0-.93,0-1.8-.08-2.59-.25-2.58-.53-4.07-2.35-4.1-4.97-.02-2.74.33-5.64,1.12-9.14,1.12-4.91,2.88-9.07,5.36-12.74,2.87-4.23,6.71-7.36,11.74-9.56,2.69-1.17,5.07-1.88,7.5-2.19,2.98-.39,5.83-1.55,8.27-2.62,3.14-1.37,6.32-2.79,9.4-4.17,1.82-.82,3.64-1.64,5.47-2.45,0-.02,0-.05,0-.08,0-2.05.03-4.09.06-6.13.02-1.45.03-2.9.04-4.35-2.07-2.12-3.55-4.84-4.63-8.55-.36-1.26-.62-2.54-.86-3.78-.1-.47-.19-.94-.29-1.41-.9-.04-1.91-.45-2.7-1.74-.74-1.2-1.17-2.6-1.32-4.42Z"/></g></svg>
