<?xml version="1.0" encoding="UTF-8"?>
<svg id="a" data-name="Layer 1" xmlns="http://www.w3.org/2000/svg" viewBox="0 0 40.08511 34.97872">
  <defs>
    <style>
      .b {
        fill: #fff;
        stroke-width: 0px;
      }
    </style>
  </defs>
  <path class="b" d="M32.65621,27.84011c-.11127-1.06995-.40057-2.06921-.8598-2.96979-.75488-1.48047-1.99628-2.43726-3.79517-2.92505-.12445-.03375-.24939-.05505-.37024-.07556-.09882-.01691-.19214-.03284-.2832-.05475-.61932-.14929-1.21539-.39783-1.77283-.63953-.60303-.26154-1.21405-.53375-1.80493-.79694-.26337-.11737-.52679-.23468-.79034-.3515-.00134-.74542-.00726-1.3631-.01862-1.94177-.00299-.14911.02051-.19189.07422-.23151.06335-.04669.10541-.10571.13922-.1532l.02051-.02832c.36499-.48962.61731-1.06512.79401-1.81091.04468-.18866.08105-.38116.11627-.56738.00525-.02771.0105-.05542.01581-.08331.20355-.01129.42822-.11829.59125-.45776.05029-.10468.11139-.24457.13733-.39838.04456-.26349.09381-.57062.11517-.88062.02582-.37421.04779-.77484.03412-1.16888-.01294-.37372-.14917-.5304-.39734-.62488.00763-.06311.01532-.12616.02307-.18927.0321-.26276.06537-.53448.0932-.80322.05811-.56073.11816-1.14044.01245-1.72894-.21655-1.20508-.79907-2.12708-1.73138-2.74017-.85742-.56384-1.78461-.84082-2.75653-.8501v-.01611l-.20642.00665h-.00006l-.19342.00623v.01129c-.13831.00964-.27686.01709-.41504.03754h-.00006c-1.29974.19244-2.36975.78754-3.18018,1.76886-.59308.71802-.89148,1.44568-.91235,2.22467-.01123.42053.02368.84381.05737,1.25311.01007.12231.0202.24457.02905.3667.01416.19519.04022.38971.06549.5777.00305.02301.00616.04608.00922.06915-.2099.06793-.32581.21588-.37579.4682-.02667.13458-.05432.2915-.04529.45081.02405.42303.05804.88043.10388,1.39844.03204.362.11578.64142.26355.87939.15906.25635.35876.33844.53857.34631.01965.09351.03809.18726.05658.28107.04852.24677.09869.50195.17145.75079.2157.73846.50885,1.28058.92139,1.703-.00238.28827-.00562.57654-.00891.86487-.00458.40649-.00916.81311-.01135,1.21973-.00006.00696-.00024.01257-.00055.01703-.36371.16156-.72687.32434-1.09003.48718-.61206.27441-1.245.55823-1.86993.83038-.4859.21161-1.05389.44379-1.64545.52136-.48181.06311-.95599.20172-1.49219.4364-1.00073.43762-1.76459,1.05988-2.33527,1.90222-.49438.72986-.84302,1.55975-1.06567,2.53711-.15839.69537-.22955,1.27301-.22394,1.81775.00537.52277.30261.88354.81555.98993.15576.03223.32892.04865.51471.04871,3.70844.00104,7.41681.00146,11.12518.00159h1.37921c3.3844,0,6.76892-.00031,10.15332-.00079.13062,0,.26642-.00867.40344-.02576.53632-.06665.85901-.38702.90863-.90222.02802-.29053-.00195-.57874-.03094-.85754Z"/>
</svg>