<?xml version="1.0" encoding="UTF-8"?><svg id="uuid-2b750720-bb00-4c3f-b737-26e940dc8fdf" xmlns="http://www.w3.org/2000/svg" viewBox="0 0 200 200"><defs><style>.uuid-15dbcc10-9ba1-4740-80a1-5a75d7c59eab{stroke:#fff;stroke-miterlimit:10;stroke-width:1.55px;}.uuid-15dbcc10-9ba1-4740-80a1-5a75d7c59eab,.uuid-144cb76b-8a32-49ff-b366-0987755406eb{fill:#fff;}.uuid-34e94f43-3f1d-4fa9-9773-0af677b053cb{fill:#666;}.uuid-34e94f43-3f1d-4fa9-9773-0af677b053cb,.uuid-144cb76b-8a32-49ff-b366-0987755406eb{stroke-width:0px;}</style></defs><g id="uuid-780abbd2-9229-48bd-a5b3-350aa97e2ea4"><circle class="uuid-34e94f43-3f1d-4fa9-9773-0af677b053cb" cx="100" cy="100" r="100"/><circle class="uuid-15dbcc10-9ba1-4740-80a1-5a75d7c59eab" cx="98.89" cy="42.1" r="7.28"/><path class="uuid-144cb76b-8a32-49ff-b366-0987755406eb" d="M134.22,117.22s9.56-57.14-35.51-65c0,0-24.07,3.94-30.81,26.21,0,0,51.55-46.41,66.32,38.79Z"/><circle class="uuid-15dbcc10-9ba1-4740-80a1-5a75d7c59eab" cx="153.42" cy="137.8" r="7.28"/><path class="uuid-144cb76b-8a32-49ff-b366-0987755406eb" d="M70.7,130.9s44.74,36.81,74.05,1.68c0,0,8.6-22.83-7.33-39.78,0,0,14.48,67.83-66.72,38.1Z"/><path class="uuid-15dbcc10-9ba1-4740-80a1-5a75d7c59eab" d="M43.48,145.32c-.44.01-.89-.02-1.34-.08-2.13-.31-4.01-1.42-5.29-3.15-1.29-1.72-1.83-3.84-1.52-5.97h0c.31-2.13,1.42-4.01,3.15-5.29,1.72-1.29,3.84-1.82,5.97-1.52,2.13.31,4.01,1.42,5.29,3.15,1.29,1.72,1.83,3.84,1.52,5.97-.57,3.94-3.92,6.8-7.77,6.89ZM36.83,136.34h0c-.25,1.72.19,3.44,1.23,4.84,1.04,1.4,2.57,2.3,4.29,2.55,3.56.52,6.88-1.96,7.39-5.52.25-1.72-.19-3.44-1.23-4.84-1.04-1.4-2.57-2.3-4.29-2.55-1.72-.25-3.44.19-4.84,1.23-1.4,1.04-2.3,2.57-2.55,4.29Z"/><path class="uuid-144cb76b-8a32-49ff-b366-0987755406eb" d="M83.06,147.56c-8.65.2-15.84-2.84-20.75-5.8-6.74-4.07-10.61-8.73-10.77-8.93l-.08-.1-.04-.12c-3.67-9.96-3.89-19.56-.67-28.52,2.57-7.15,7.34-13.9,14.15-20.06,11.55-10.44,25.24-15.66,25.38-15.71l4.18-1.57-3.42,2.87c-21.86,18.31-31.56,34.73-28.82,48.82,3.6,18.52,28.03,26.63,28.27,26.71l2.59.84-2.65.63c-2.56.6-5.02.9-7.38.95ZM52.8,131.97c.59.68,4.33,4.9,10.34,8.52,5.52,3.33,14.07,6.76,24.34,5.15-2.47-1.01-6.44-2.83-10.63-5.58-8.98-5.9-14.55-13.27-16.12-21.33-2.69-13.79,5.87-29.57,25.45-46.94-4.95,2.38-13.05,6.84-20.29,13.39-15.06,13.62-19.46,29.36-13.09,46.78Z"/></g></svg>
