<?xml version="1.0" encoding="UTF-8"?>
<svg id="a" data-name="Layer 1" xmlns="http://www.w3.org/2000/svg" viewBox="0 0 40.08511 34.97872">
  <defs>
    <style>
      .b {
        fill: #fff;
        stroke-width: 0px;
      }
    </style>
  </defs>
  <path class="b" d="M32.52819,11.46784l.08814,12.53795s-6.12966-1.56938-5.90222-6.69544c.22745-5.14312,5.81408-5.84251,5.81408-5.84251Z"/>
  <path class="b" d="M31.93683,25.12881l-10.84632,6.28603s-2.23181-5.16871,2.08113-7.97482c4.30441-2.79474,8.76519,1.68879,8.76519,1.68879Z"/>
  <path class="b" d="M21.08198,3.40205l10.84632,6.28603s-4.46362,4.48637-8.76519,1.68879c-4.31294-2.80611-2.08113-7.97482-2.08113-7.97482Z"/>
  <path class="b" d="M24.9315,16.01107c.81596,0,1.47555.66244,1.47555,1.4784s-.65959,1.4784-1.47555,1.4784-1.4784-.66244-1.4784-1.4784.66244-1.4784,1.4784-1.4784Z"/>
  <path class="b" d="M22.4097,11.72088c.81596,0,1.4784.66244,1.4784,1.4784s-.66244,1.47555-1.4784,1.47555-1.47555-.65959-1.47555-1.47555.65959-1.4784,1.47555-1.4784Z"/>
  <path class="b" d="M22.4097,19.98c.81596,0,1.4784.66244,1.4784,1.4784s-.66244,1.4784-1.4784,1.4784-1.47555-.66244-1.47555-1.4784.65959-1.4784,1.47555-1.4784Z"/>
  <path class="b" d="M19.16575,3.40205s2.23181,5.16871-2.08397,7.97482c-4.30157,2.79758-8.76235-1.68879-8.76235-1.68879l10.84632-6.28603Z"/>
  <path class="b" d="M17.07325,23.60208c4.31578,2.80611,2.08397,7.97482,2.08397,7.97482l-10.84632-6.28603s4.46078-4.48637,8.76235-1.68879Z"/>
  <path class="b" d="M17.70157,11.72088c.81596,0,1.4784.66244,1.4784,1.4784s-.66244,1.47555-1.4784,1.47555-1.47555-.65959-1.47555-1.47555.65959-1.4784,1.47555-1.4784Z"/>
  <path class="b" d="M17.70157,20.14206c.81596,0,1.4784.66244,1.4784,1.4784s-.66244,1.47555-1.4784,1.47555-1.47555-.65959-1.47555-1.47555.65959-1.4784,1.47555-1.4784Z"/>
  <path class="b" d="M15.18545,15.92862c.81596,0,1.4784.65959,1.4784,1.47555s-.66244,1.4784-1.4784,1.4784-1.4784-.66244-1.4784-1.4784.66244-1.47555,1.4784-1.47555Z"/>
  <path class="b" d="M13.37157,17.31036c.22745,5.12606-5.90222,6.69544-5.90222,6.69544l.08814-12.53795s5.58664.6994,5.81408,5.84251Z"/>
</svg>