<?xml version="1.0" encoding="UTF-8"?>
<svg id="icm" xmlns="http://www.w3.org/2000/svg" viewBox="0 0 83 77">
  <defs>
    <style>
      .cls-1 {
        fill: #fff;
        stroke-width: 0px;
      }
    </style>
  </defs>
  <path class="cls-1" d="m76.24,65.77c0,.23,0,.45-.03.68-.14,1.41-1.03,2.29-2.5,2.48-.38.05-.75.07-1.11.07-9.31,0-18.62,0-27.93,0h-2.7v-.55h30.63c.35,0,.7-.02,1.04-.07,1.18-.14,1.91-.8,2.02-1.99.07-.74,0-1.5-.09-2.24-.29-2.79-1.03-5.45-2.31-7.96-2.14-4.18-5.66-6.55-10.09-7.75-.58-.16-1.19-.21-1.78-.35-1.72-.42-3.35-1.09-4.97-1.79-2.39-1.03-4.76-2.1-7.14-3.16-.19-.08-.33-.17-.33-.43,0-1.8-.01-3.59-.05-5.39,0-.44.05-.81.43-1.09.13-.09.23-.25.33-.38,1.07-1.43,1.68-3.06,2.09-4.77.18-.74.3-1.49.45-2.25.81.18,1.27-.26,1.57-.91.14-.3.28-.62.33-.95.13-.78.25-1.57.31-2.36.07-1.05.13-2.1.1-3.15-.03-.9-.29-1.13-1.14-1.35.13-1.05.26-2.11.38-3.17.16-1.53.31-3.06.04-4.59-.54-3-1.95-5.47-4.52-7.16-2.25-1.47-4.69-2.25-7.28-2.28v-.55c2.67.02,5.23.82,7.58,2.37,2.57,1.68,4.17,4.21,4.76,7.52.29,1.62.13,3.2-.04,4.74-.07.74-.17,1.49-.25,2.2-.02.18-.05.35-.06.52.68.26,1.05.69,1.09,1.72.04,1.08-.02,2.18-.09,3.21-.06.85-.19,1.69-.32,2.41-.07.42-.24.81-.38,1.1-.45.93-1.07,1.22-1.62,1.25-.02.08-.03.15-.05.23-.1.51-.2,1.04-.32,1.56-.48,2.04-1.18,3.62-2.18,4.97l-.06.08c-.1.13-.21.29-.38.42-.14.11-.21.23-.2.64.03,1.59.05,3.28.05,5.33.72.32,1.45.65,2.17.97,1.62.72,3.31,1.47,4.97,2.19,1.53.66,3.17,1.35,4.87,1.75.25.06.51.1.78.15.33.05.67.11,1.02.21,4.95,1.34,8.36,3.96,10.44,8.03,1.26,2.47,2.06,5.21,2.37,8.15.06.55.12,1.11.12,1.67Z"/>
  <path class="cls-1" d="m75.58,64.15c.08.74.16,1.51.09,2.24-.11,1.18-.84,1.84-2.02,1.99-.34.05-.69.07-1.04.07h-30.63v-.55c10.21,0,20.42,0,30.63,0,.31,0,.64-.02.97-.06.95-.12,1.46-.6,1.54-1.49.06-.69-.01-1.43-.09-2.14-.29-2.8-1.05-5.42-2.25-7.76-1.93-3.77-5.12-6.22-9.75-7.47-.29-.08-.59-.13-.91-.19-.28-.05-.57-.09-.86-.16-1.79-.43-3.48-1.13-5.05-1.81-1.67-.72-3.35-1.47-4.98-2.19l-2.17-.96c-.16-.07-.65-.29-.66-.94,0-2.07-.02-3.77-.05-5.37,0-.52.06-1.11.65-1.54.03-.02.1-.1.14-.17.02-.04.05-.07.07-.1.91-1.22,1.54-2.67,2-4.56.12-.5.21-.99.31-1.51.05-.23.09-.47.14-.71l.11-.55.55.12c.38.08.67,0,.96-.61.1-.2.24-.51.29-.8.12-.7.25-1.51.3-2.31.07-1,.13-2.06.09-3.09-.02-.62-.06-.66-.73-.84l-.47-.12.05-.48c.04-.33.08-.65.12-.98.09-.72.18-1.46.26-2.18.15-1.46.31-2.97.05-4.44-.54-3-1.98-5.29-4.28-6.8-2.18-1.43-4.52-2.16-6.98-2.18v-.55c2.59.02,5.04.8,7.28,2.28,2.57,1.69,3.98,4.16,4.52,7.16.28,1.53.12,3.06-.04,4.59-.11,1.06-.25,2.12-.38,3.17.86.22,1.11.45,1.14,1.35.04,1.05-.02,2.1-.1,3.15-.05.79-.18,1.58-.31,2.36-.05.33-.19.65-.33.95-.31.65-.76,1.09-1.57.91-.15.76-.28,1.51-.45,2.25-.41,1.71-1.02,3.34-2.09,4.77-.1.14-.19.29-.33.38-.38.28-.43.65-.43,1.09.04,1.8.05,3.59.05,5.39,0,.26.14.35.33.43,2.38,1.06,4.76,2.12,7.14,3.16,1.62.7,3.25,1.37,4.97,1.79.59.14,1.2.19,1.78.35,4.43,1.2,7.96,3.57,10.09,7.75,1.28,2.51,2.02,5.17,2.31,7.96Z"/>
  <path class="cls-1" d="m75.03,64.21c.07.71.15,1.44.09,2.14-.09.88-.59,1.37-1.54,1.49-.33.05-.66.06-.97.06-10.21,0-20.42,0-30.63,0V3.49c2.46.02,4.81.76,6.98,2.18,2.3,1.51,3.74,3.8,4.28,6.8.26,1.46.1,2.97-.05,4.44-.08.73-.17,1.47-.26,2.18-.04.33-.08.65-.12.98l-.05.48.47.12c.67.17.71.22.73.84.04,1.03-.02,2.09-.09,3.09-.05.8-.19,1.61-.3,2.31-.05.29-.19.6-.29.8-.3.62-.58.7-.96.61l-.55-.12-.11.55c-.05.24-.1.48-.14.71-.1.52-.19,1.02-.31,1.51-.45,1.9-1.09,3.34-2,4.56-.03.03-.05.06-.07.1-.05.07-.11.15-.14.17-.59.44-.66,1.02-.65,1.54.03,1.6.05,3.3.05,5.37,0,.65.49.87.66.94l2.17.96c1.63.72,3.31,1.47,4.98,2.19,1.57.68,3.27,1.38,5.05,1.81.29.07.57.12.86.16.32.05.62.11.91.19,4.63,1.25,7.82,3.7,9.75,7.47,1.2,2.35,1.96,4.96,2.25,7.76Z"/>
  <path class="cls-1" d="m41.98,68.45v.55h-1.1V2.43c.18-.01.36-.02.53-.03h0c.19,0,.37,0,.56,0v.55c-.18,0-.37,0-.55,0v65.5h.55Z"/>
  <path class="cls-1" d="m41.98,67.9v.55h-.55V2.95c.18,0,.37,0,.55,0v64.96Z"/>
  <path class="cls-1" d="m41.98,2.38h0c-.19,0-.37.01-.56.02l.56-.02Z"/>
  <path class="cls-1" d="m40.88,2.42l.53-.02c-.18,0-.35.01-.53.03h0Z"/>
  <path class="cls-1" d="m40.88,3.53v64.38c-10.2,0-20.4,0-30.6,0-.43,0-.84-.04-1.19-.11-.9-.19-1.36-.74-1.37-1.65-.01-1.41.18-2.91.59-4.74.58-2.55,1.49-4.7,2.77-6.59,1.45-2.14,3.4-3.71,5.95-4.83,1.38-.6,2.58-.96,3.81-1.11,1.77-.23,3.42-.9,4.82-1.51,1.72-.75,3.47-1.53,5.15-2.28l3-1.34c.65-.28.65-.85.65-1.04,0-1.11.02-2.23.03-3.34,0-.79.02-1.58.02-2.37,0-.14-.02-.48-.26-.73-1.03-1.03-1.76-2.39-2.32-4.27-.19-.64-.32-1.31-.45-1.96-.06-.31-.12-.61-.19-.91-.01-.07-.03-.14-.04-.22l-.14-.69-.56.13c-.33.08-.59.04-.86-.41-.31-.5-.49-1.11-.56-1.93-.13-1.41-.22-2.65-.29-3.8-.02-.31.05-.66.11-.96.08-.39.13-.47.62-.51l.56-.05-.07-.56c-.03-.23-.06-.47-.09-.71-.07-.5-.14-1.02-.17-1.52l-.08-1.02c-.09-1.1-.19-2.23-.15-3.32.05-1.88.79-3.66,2.26-5.43,1.03-1.24,2.21-2.23,3.56-2.98,1.35-.75,2.85-1.25,4.5-1.49.33-.05.66-.09.98-.11Z"/>
  <path class="cls-1" d="m40.88,67.9v1.1c-10.2,0-20.41,0-30.6,0-.51,0-.99-.05-1.42-.14-1.41-.29-2.23-1.28-2.24-2.72-.01-1.49.18-3.08.62-4.99.62-2.68,1.57-4.96,2.93-6.96,1.57-2.32,3.67-4.02,6.42-5.22,1.48-.65,2.78-1.02,4.1-1.2,1.63-.21,3.19-.85,4.53-1.43,1.72-.75,3.46-1.53,5.14-2.28,1-.45,2-.89,3-1.34v-.05c0-1.11.02-2.23.03-3.34,0-.79.02-1.58.02-2.37-1.14-1.16-1.94-2.65-2.53-4.68-.2-.68-.34-1.38-.47-2.06-.05-.26-.1-.51-.16-.77-.49-.02-1.04-.25-1.48-.95-.41-.65-.64-1.42-.72-2.41-.13-1.42-.22-2.68-.29-3.84-.02-.44.05-.87.13-1.24.14-.69.46-1.1,1.04-1.28l-.03-.19c-.07-.52-.14-1.05-.18-1.58-.02-.34-.05-.67-.08-1.01-.09-1.12-.19-2.29-.15-3.44.05-2.14.88-4.13,2.51-6.11,2.23-2.69,5.18-4.32,8.75-4.85.38-.06.76-.1,1.14-.13v1.1c-.33.02-.65.06-.98.11-1.65.24-3.15.74-4.5,1.49-1.35.74-2.53,1.74-3.56,2.98-1.47,1.77-2.21,3.55-2.26,5.43-.03,1.1.06,2.23.15,3.32l.08,1.02c.04.5.1,1.02.17,1.52.03.24.06.47.09.71l.07.56-.56.05c-.48.05-.54.12-.62.51-.06.3-.13.65-.11.96.07,1.15.16,2.39.29,3.8.07.82.25,1.43.56,1.93.28.44.53.48.86.41l.56-.13.14.69c.01.08.03.14.04.22.07.3.13.6.19.91.13.65.26,1.33.45,1.96.55,1.88,1.29,3.24,2.32,4.27.24.24.27.59.26.73,0,.79-.01,1.58-.02,2.37-.01,1.11-.03,2.23-.03,3.34,0,.19,0,.75-.65,1.04l-3,1.34c-1.68.75-3.43,1.53-5.15,2.28-1.41.61-3.05,1.28-4.82,1.51-1.22.16-2.43.51-3.81,1.11-2.56,1.11-4.51,2.69-5.95,4.83-1.28,1.89-2.19,4.04-2.77,6.59-.41,1.82-.6,3.33-.59,4.74,0,.91.47,1.47,1.37,1.65.36.07.76.11,1.19.11,10.2,0,20.4,0,30.6,0Z"/>
</svg>
