<?xml version="1.0" encoding="UTF-8"?>
<svg id="sme" xmlns="http://www.w3.org/2000/svg" viewBox="0 0 83 77">
  <defs>
    <style>
      .cls-1, .cls-2 {
        stroke-width: .75px;
      }

      .cls-1, .cls-2, .cls-3, .cls-4 {
        fill: none;
        stroke: #fff;
        stroke-miterlimit: 10;
      }

      .cls-2 {
        stroke-linecap: square;
      }

      .cls-3 {
        stroke-width: .28px;
      }

      .cls-5 {
        fill: #fff;
        stroke-width: 0px;
      }

      .cls-4 {
        stroke-width: .5px;
      }
    </style>
  </defs>
  <g>
    <g>
      <polygon class="cls-5" points="65.98 56.98 57.13 55.12 58.28 53.16 59.42 51.19 65.98 56.98"/>
      <polygon class="cls-5" points="53.83 59.91 56.24 67.97 49.68 62.2 51.76 61.05 53.83 59.91"/>
      <polygon class="cls-5" points="53.57 20.66 40.19 27.06 39.83 27.06 39.83 26.92 52.36 20.93 39.89 20.93 40.38 20.66 53.57 20.66"/>
      <polygon class="cls-5" points="52.51 27.06 52.52 29.97 39.83 29.97 39.83 29.7 52.22 29.7 52.22 27.33 39.83 27.33 39.83 27.23 40.19 27.06 52.51 27.06"/>
      <polygon class="cls-5" points="52.36 20.93 39.83 26.92 39.83 26.61 51.16 21.2 39.83 21.2 39.83 20.97 39.89 20.93 52.36 20.93"/>
      <polygon class="cls-5" points="52.22 27.33 52.22 29.7 39.83 29.7 39.83 29.43 51.93 29.43 51.92 27.6 39.83 27.6 39.83 27.33 52.22 27.33"/>
      <rect class="cls-5" x="39.83" y="27.6" width="12.1" height="1.83" transform="translate(-.06 .1) rotate(-.12)"/>
      <polygon class="cls-5" points="51.27 14.46 40.38 20.66 39.83 20.66 39.83 20.65 50.24 14.74 39.83 14.74 39.83 14.52 39.86 14.46 51.27 14.46"/>
      <polygon class="cls-5" points="51.16 21.2 39.83 26.61 39.83 24.71 43.35 23.03 39.83 23.03 39.83 21.2 51.16 21.2"/>
      <polygon class="cls-5" points="50.24 14.74 39.83 20.65 39.83 20.33 49.2 15.01 39.83 15.01 39.83 14.74 50.24 14.74"/>
      <polygon class="cls-5" points="49.2 15.01 39.83 20.33 39.83 18.4 42.58 16.84 39.83 16.84 39.83 15.01 49.2 15.01"/>
      <polygon class="cls-5" points="45.42 2.92 39.86 14.46 39.83 14.46 39.83 13.85 44.13 4.93 39.83 10.13 39.83 9.68 45.42 2.92"/>
      <polygon class="cls-5" points="44.13 4.93 39.83 13.85 39.83 13.18 42.84 6.94 39.83 10.57 39.83 10.13 44.13 4.93"/>
      <polygon class="cls-5" points="43.8 63.94 41.38 72 38.97 63.94 41.38 63.94 43.8 63.94"/>
      <polygon class="cls-5" points="43.35 23.03 39.83 24.71 39.83 24.41 42.14 23.3 39.83 23.3 39.83 23.03 43.35 23.03"/>
      <polygon class="cls-5" points="42.84 6.94 39.83 13.18 39.83 10.57 42.84 6.94"/>
      <polygon class="cls-5" points="42.58 16.84 39.83 18.4 39.83 18.08 41.54 17.11 39.83 17.11 39.83 16.84 42.58 16.84"/>
      <polygon class="cls-5" points="42.14 23.3 39.83 24.41 39.83 24.1 39.83 24.1 40.93 23.57 39.83 23.57 39.83 23.3 42.14 23.3"/>
      <polygon class="cls-5" points="41.54 17.11 39.83 18.08 39.83 17.76 39.83 17.76 40.5 17.38 39.83 17.38 39.83 17.11 41.54 17.11"/>
      <polygon class="cls-5" points="40.38 20.66 39.89 20.93 39.83 20.93 39.83 20.66 40.38 20.66"/>
      <polygon class="cls-5" points="40.19 27.06 39.83 27.23 39.83 27.06 40.19 27.06"/>
      <polygon class="cls-5" points="39.89 20.93 39.83 20.97 39.83 20.93 39.89 20.93"/>
      <polygon class="cls-5" points="39.86 14.46 39.83 14.52 39.83 14.46 39.86 14.46"/>
      <polygon class="cls-5" points="39.83 24.1 39.83 24.1 39.24 24.38 39.83 24.1"/>
      <polygon class="cls-5" points="39.83 27.6 39.83 29.43 39.83 29.7 39.54 29.7 39.54 27.37 39.61 27.33 39.83 27.33 39.83 27.6"/>
      <polygon class="cls-5" points="39.83 24.71 39.83 26.61 39.83 26.92 39.54 27.06 39.54 27.06 39.54 24.55 39.83 24.41 39.83 24.71"/>
      <polygon class="cls-5" points="39.83 29.7 39.83 29.97 39.24 29.97 39.24 29.43 39.24 27.54 39.24 27.51 39.54 27.37 39.54 29.7 39.83 29.7"/>
      <polygon class="cls-5" points="39.83 27.23 39.83 27.33 39.61 27.33 39.83 27.23"/>
      <polygon class="cls-5" points="39.83 27.06 39.83 27.23 39.61 27.33 39.54 27.33 39.54 27.37 39.24 27.51 39.24 27.06 39.54 27.06 39.54 27.06 39.54 27.06 39.83 27.06"/>
      <polygon class="cls-5" points="39.83 26.92 39.83 27.06 39.54 27.06 39.83 26.92"/>
      <polygon class="cls-5" points="39.83 24.1 39.83 24.41 39.54 24.55 39.54 27.06 39.24 27.06 39.24 26.9 39.24 24.99 39.24 24.38 39.24 24.38 39.83 24.1"/>
      <polygon class="cls-5" points="39.83 21.2 39.83 23.03 39.83 23.3 39.54 23.3 39.54 21.14 39.83 20.97 39.83 21.2"/>
      <polygon class="cls-5" points="39.83 18.4 39.83 20.33 39.83 20.65 39.82 20.66 39.54 20.66 39.54 18.25 39.83 18.08 39.83 18.4"/>
      <polygon class="cls-5" points="39.83 23.3 39.83 23.57 39.24 23.57 39.24 23.03 39.24 21.31 39.54 21.14 39.54 23.3 39.83 23.3"/>
      <polygon class="cls-5" points="39.83 20.93 39.83 20.97 39.54 21.14 39.54 20.93 39.83 20.93"/>
      <polygon class="cls-5" points="39.83 20.66 39.83 20.93 39.54 20.93 39.54 21.14 39.24 21.31 39.24 21.2 39.24 20.67 39.24 20.66 39.54 20.66 39.54 20.82 39.82 20.66 39.83 20.66"/>
      <polygon class="cls-5" points="39.83 20.65 39.83 20.66 39.82 20.66 39.83 20.65"/>
      <polygon class="cls-5" points="39.83 17.76 39.83 18.08 39.54 18.25 39.54 20.66 39.24 20.66 39.24 18.73 39.24 18.1 39.4 18.01 39.83 17.76"/>
      <polygon class="cls-5" points="39.83 17.76 39.83 17.76 39.4 18.01 39.83 17.76"/>
      <polygon class="cls-5" points="39.83 15.01 39.83 16.84 39.83 17.11 39.54 17.11 39.54 15.12 39.72 14.74 39.83 14.74 39.83 15.01"/>
      <polygon class="cls-5" points="39.83 10.57 39.83 13.18 39.83 13.85 39.54 14.46 39.54 10.48 39.83 10.13 39.83 10.57"/>
      <polygon class="cls-5" points="39.83 17.11 39.83 17.38 39.24 17.38 39.24 16.84 39.24 15.74 39.54 15.12 39.54 17.11 39.83 17.11"/>
      <polygon class="cls-5" points="39.83 14.52 39.83 14.74 39.72 14.74 39.83 14.52"/>
      <polygon class="cls-5" points="39.83 14.46 39.83 14.52 39.72 14.74 39.54 14.74 39.54 15.12 39.24 15.74 39.24 15.01 39.24 14.46 39.54 14.46 39.83 14.46"/>
      <polygon class="cls-5" points="39.83 13.85 39.83 14.46 39.54 14.46 39.54 14.46 39.83 13.85"/>
      <polygon class="cls-5" points="39.83 9.68 39.83 10.13 39.54 10.48 39.54 14.46 39.54 14.46 39.24 14.46 39.24 14.4 39.24 11.29 39.24 10.39 39.83 9.68"/>
      <polygon class="cls-5" points="39.82 20.66 39.54 20.82 39.54 20.66 39.82 20.66"/>
      <polygon class="cls-5" points="39.72 14.74 39.54 15.12 39.54 14.74 39.72 14.74"/>
      <polygon class="cls-5" points="39.61 27.33 39.54 27.37 39.54 27.33 39.61 27.33"/>
      <polygon class="cls-5" points="39.54 27.06 39.54 27.06 39.54 27.06 39.54 27.06"/>
      <polygon class="cls-5" points="39.4 18.01 39.24 18.1 39.24 18.73 31.68 23.03 39.24 23.03 39.24 23.57 29.61 23.57 39.4 18.01"/>
      <polygon class="cls-5" points="39.24 24.38 39.24 24.38 39.24 24.99 29.96 29.43 39.24 29.43 39.24 29.97 27.54 29.97 39.24 24.38"/>
      <polygon class="cls-5" points="39.24 27.54 39.24 29.43 29.96 29.43 39.24 24.99 39.24 26.9 37.88 27.55 39.24 27.54"/>
      <polygon class="cls-5" points="39.24 27.51 39.24 27.54 37.88 27.55 39.24 26.9 39.24 27.06 39.24 27.51"/>
      <polygon class="cls-5" points="39.24 21.31 39.24 23.03 31.68 23.03 39.24 18.73 39.24 20.66 39.24 20.67 38.3 21.2 39.24 21.2 39.24 21.31"/>
      <polygon class="cls-5" points="39.24 20.67 39.24 21.2 38.3 21.2 39.24 20.67"/>
      <polygon class="cls-5" points="39.24 15.74 39.24 16.84 34.65 16.84 39.24 11.29 39.24 14.4 38.95 15.01 39.24 15.01 39.24 15.74"/>
      <polygon class="cls-5" points="39.24 16.84 39.24 17.38 33.46 17.38 39.24 10.39 39.24 11.29 34.65 16.84 39.24 16.84"/>
      <polygon class="cls-5" points="39.24 14.46 39.24 15.01 38.95 15.01 39.24 14.4 39.24 14.46"/>
      <polygon class="cls-5" points="33.76 63.17 26.15 69.87 28.94 60.52 33.76 63.17"/>
      <polygon class="cls-5" points="23.09 51.52 25.75 56.06 15.48 58.22 23.09 51.52"/>
    </g>
    <g>
      <polyline class="cls-3" points="39.24 17.38 33.46 17.38 39.24 10.39"/>
      <polygon class="cls-3" points="41.38 72 43.8 63.94 41.38 63.94 38.97 63.94 41.38 72"/>
      <polygon class="cls-3" points="26.15 69.87 28.94 60.52 33.76 63.17 26.15 69.87"/>
      <polygon class="cls-3" points="56.24 67.97 49.68 62.2 51.76 61.05 53.83 59.91 56.24 67.97"/>
      <polygon class="cls-3" points="15.48 58.22 23.09 51.52 25.75 56.06 15.48 58.22"/>
      <polygon class="cls-3" points="65.98 56.98 57.13 55.12 58.28 53.16 59.42 51.19 65.98 56.98"/>
      <polyline class="cls-3" points="39.24 23.57 29.61 23.57 39.4 18.01 39.83 17.76"/>
      <polyline class="cls-3" points="39.24 21.2 38.3 21.2 39.24 20.67"/>
      <polyline class="cls-3" points="39.24 18.73 31.68 23.03 39.24 23.03"/>
      <polyline class="cls-3" points="39.24 29.97 27.54 29.97 39.24 24.38 39.83 24.1"/>
      <polyline class="cls-3" points="39.24 27.54 37.88 27.55 39.24 26.9"/>
      <polyline class="cls-3" points="39.24 24.99 29.96 29.43 39.24 29.43"/>
      <polyline class="cls-4" points="39.82 20.66 39.83 20.65 50.24 14.74 39.83 14.74 39.72 14.74 39.54 14.74 39.54 15.12 39.54 17.11 39.83 17.11 41.54 17.11 39.83 18.08 39.54 18.25 39.54 20.66"/>
      <polyline class="cls-3" points="39.86 14.46 51.27 14.46 40.38 20.66"/>
      <line class="cls-3" x1="39.24" y1="17.38" x2="39.24" y2="16.84"/>
      <polyline class="cls-3" points="39.83 17.76 39.83 17.76 40.5 17.38 39.83 17.38"/>
      <polyline class="cls-3" points="39.24 20.66 39.24 18.73 39.24 18.1 39.4 18.01"/>
      <polyline class="cls-3" points="39.83 16.84 42.58 16.84 39.83 18.4"/>
      <polyline class="cls-3" points="39.83 20.33 49.2 15.01 39.83 15.01"/>
      <polygon class="cls-3" points="39.83 13.85 44.13 4.93 39.83 10.13 39.54 10.48 39.54 14.46 39.83 13.85"/>
      <polyline class="cls-3" points="39.24 15.01 39.24 14.46 39.24 14.4"/>
      <polygon class="cls-1" points="39.83 10.57 39.83 13.18 42.84 6.94 39.83 10.57"/>
      <polyline class="cls-3" points="39.54 21.14 39.54 23.3 39.83 23.3 42.14 23.3 39.83 24.41 39.54 24.55 39.54 27.06 39.54 27.06 39.54 27.06 39.83 26.92 52.36 20.93 39.89 20.93"/>
      <polyline class="cls-3" points="39.24 23.57 39.24 23.03 39.24 21.31 39.24 21.2 39.24 20.67 39.24 20.66"/>
      <polyline class="cls-3" points="39.24 27.06 39.24 26.9 39.24 24.99 39.24 24.38 39.24 24.38"/>
      <polygon class="cls-1" points="39.83 24.71 39.83 26.61 51.16 21.2 39.83 21.2 39.83 23.03 43.35 23.03 39.83 24.71"/>
      <polygon class="cls-3" points="39.83 29.7 52.22 29.7 52.22 27.33 39.83 27.33 39.61 27.33 39.54 27.33 39.54 27.37 39.54 29.7 39.83 29.7"/>
      <polyline class="cls-3" points="40.19 27.06 52.51 27.06 52.52 29.97 39.83 29.97 39.24 29.97 39.24 29.43 39.24 27.54 39.24 27.51 39.24 27.06"/>
      <rect class="cls-3" x="39.83" y="27.6" width="12.1" height="1.83"/>
    </g>
  </g>
  <g>
    <path class="cls-5" d="m48.59,31.21l10.03,20.25c-.57,2.06-4.05,12.4-17.76,12.4s-16.36-10.31-16.74-12.3v-.02l10.08-20.27.28.14h13.73l.38-.19Z"/>
    <g>
      <path class="cls-1" d="m24.12,51.55c.38,1.99,2.96,12.3,16.74,12.3s17.19-10.34,17.76-12.4c.07-.24.09-.36.09-.36"/>
      <path class="cls-1" d="m24.07,51.22s.02.12.05.31"/>
      <polyline class="cls-1" points="58.71 51.64 58.61 51.45 48.59 31.21 48.42 30.9"/>
      <polyline class="cls-1" points="24.07 51.64 24.12 51.55 24.12 51.52 34.2 31.26 34.36 30.9"/>
      <line class="cls-2" x1="34.48" y1="31.4" x2="48.21" y2="31.4"/>
    </g>
  </g>
</svg>
