<?xml version="1.0" encoding="UTF-8"?>
<svg id="a" data-name="Layer 1" xmlns="http://www.w3.org/2000/svg" viewBox="0 0 40.08511 34.97872">
  <defs>
    <style>
      .b {
        fill: none;
        stroke: #fff;
        stroke-miterlimit: 10;
        stroke-width: .28431px;
      }

      .c {
        fill: #fff;
        stroke-width: 0px;
      }
    </style>
  </defs>
  <g>
    <path class="c" d="M27.51064,12.15193v9.65l-8.2,4.74c0-.02-.01-.04-.01-.05l8.16-4.7-.24-.41v-3.46h.22v-.49h-.22v-2.32h.1v-.49h-.1v-2.3l-5.36-3.1c.06-.08.11-.16.14-.25l5.51,3.18Z"/>
    <path class="c" d="M27.22064,21.38193l.24.41-8.16,4.7c-.01-.08-.04-.16-.08-.24l8-4.62v-.25Z"/>
    <rect class="c" x="27.22064" y="17.43193" width=".22" height=".49"/>
    <rect class="c" x="27.22064" y="14.62193" width=".1" height=".49"/>
    <path class="c" d="M27.22064,21.38193v.25l-8,4.62c-.01-.07-.05-.15-.1-.21l8.09-4.68.01.02Z"/>
    <path class="c" d="M27.22064,17.43193v.49h-2.04l.09-.05-.15-.26-.54.31h-9.04c.02-.06.02-.12.02-.18,0-.11-.01-.21-.03-.31h11.69Z"/>
    <path class="c" d="M27.22064,14.62193v.49h-6.48l-2.43-1.6c.14-.09.26-.21.36-.35l2.22,1.46h6.33Z"/>
    <polygon class="c" points="25.12064 17.61193 25.27064 17.87193 25.18064 17.92193 24.58064 17.92193 25.12064 17.61193"/>
    <path class="c" d="M25.18064,17.92193l-4.43,2.55c-.02-.1-.05-.19-.09-.28l3.92-2.27h.6Z"/>
    <path class="c" d="M22.16064,8.29193c0,.24-.05.48-.16.68l-.16-.09-.14.25.16.09c-.28.4-.76.67-1.29.67-.88,0-1.6-.72-1.6-1.6,0-.87.72-1.59,1.6-1.59s1.59.71,1.59,1.59ZM21.96064,8.29193c0-.77-.62-1.39-1.39-1.39s-1.4.62-1.4,1.39.63,1.4,1.4,1.4,1.39-.63,1.39-1.4Z"/>
    <path class="c" d="M21.84064,8.88193l.16.09c-.03.09-.08.17-.14.25l-.16-.09.14-.25Z"/>
    <path class="c" d="M20.75064,20.47193c.03.12.05.25.05.38,0,.88-.71,1.59-1.59,1.59s-1.59-.71-1.59-1.59.71-1.6,1.59-1.6c.64,0,1.2.39,1.45.94l-.14.08.15.25.08-.05ZM20.61064,20.85193c0-.77-.63-1.4-1.4-1.4s-1.4.63-1.4,1.4.63,1.39,1.4,1.39,1.4-.62,1.4-1.39Z"/>
    <path class="c" d="M20.75064,20.47193l-.08.05-.15-.25.14-.08c.04.09.07.18.09.28Z"/>
    <path class="c" d="M19.31064,26.54193c.01.08.02.16.02.24,0,.83-.67,1.49-1.49,1.49-.83,0-1.5-.66-1.5-1.49s.67-1.5,1.5-1.5c.55,0,1.04.3,1.28.76l-.12.07.11.2-.03.02.14.26.09-.05Z"/>
    <path class="c" d="M19.30064,26.49193c0,.01.01.03.01.05l-.09.05-.14-.26.03-.02.13.22.06-.04Z"/>
    <path class="c" d="M19.30064,26.49193l-.06.04-.13-.22.11-.06c.04.08.07.16.08.24Z"/>
    <path class="c" d="M19.22064,26.25193l-.11.06-.11-.2.12-.07c.05.06.09.14.1.21Z"/>
    <path class="c" d="M18.94064,12.31193c0,.32-.1.61-.27.85l-.73-.48-.27.41.64.42c-.24.19-.54.29-.87.29-.82,0-1.49-.67-1.49-1.49,0-.83.67-1.5,1.49-1.5.83,0,1.5.67,1.5,1.5Z"/>
    <path class="c" d="M17.94064,12.68193l.73.48c-.1.14-.22.26-.36.35l-.64-.42.27-.41Z"/>
    <path class="c" d="M15.56064,17.74193c0,.06,0,.12-.02.18h-.52v-.49h.51c.02.1.03.2.03.31Z"/>
    <path class="c" d="M15.02064,17.92193h.52c-.08.75-.71,1.32-1.47,1.32-.83,0-1.5-.67-1.5-1.5,0-.82.67-1.49,1.5-1.49.71,0,1.31.51,1.46,1.18h-.51v.49Z"/>
  </g>
  <g>
    <path class="b" d="M19.12064,26.04193c-.24-.46-.73-.76-1.28-.76-.83,0-1.5.67-1.5,1.5s.67,1.49,1.5,1.49c.82,0,1.49-.66,1.49-1.49,0-.08-.01-.16-.02-.24"/>
    <path class="b" d="M18.67064,13.16193c.17-.24.27-.53.27-.85,0-.83-.67-1.5-1.5-1.5-.82,0-1.49.67-1.49,1.5,0,.82.67,1.49,1.49,1.49.33,0,.63-.1.87-.29"/>
    <polyline class="b" points="27.22064 15.11193 20.74064 15.11193 18.31064 13.51193 17.67064 13.09193 17.94064 12.68193 18.67064 13.16193 20.89064 14.62193 27.22064 14.62193"/>
    <path class="b" d="M20.75064,20.47193c.03.12.05.25.05.38,0,.88-.71,1.59-1.59,1.59s-1.59-.71-1.59-1.59.71-1.6,1.59-1.6c.64,0,1.2.39,1.45.94"/>
    <path class="b" d="M19.21064,19.45193c-.77,0-1.4.63-1.4,1.4s.63,1.39,1.4,1.39,1.4-.62,1.4-1.39-.63-1.4-1.4-1.4Z"/>
    <path class="b" d="M15.54064,17.92193c-.08.75-.71,1.32-1.47,1.32-.83,0-1.5-.67-1.5-1.5,0-.82.67-1.49,1.5-1.49.71,0,1.31.51,1.46,1.18"/>
    <polyline class="b" points="24.58064 17.92193 15.54064 17.92193 15.02064 17.92193 15.02064 17.43193 15.53064 17.43193 27.22064 17.43193"/>
    <line class="b" x1="27.22064" y1="17.92193" x2="25.18064" y2="17.92193"/>
    <polygon class="b" points="20.75064 20.47193 20.67064 20.52193 20.52064 20.27193 20.66064 20.19193 24.58064 17.92193 25.12064 17.61193 25.27064 17.87193 25.18064 17.92193 20.75064 20.47193"/>
    <path class="b" d="M21.86064,9.22193c-.28.4-.76.67-1.29.67-.88,0-1.6-.72-1.6-1.6,0-.87.72-1.59,1.6-1.59s1.59.71,1.59,1.59c0,.24-.05.48-.16.68"/>
    <path class="b" d="M20.57064,6.90193c-.77,0-1.4.62-1.4,1.39s.63,1.4,1.4,1.4,1.39-.63,1.39-1.4-.62-1.39-1.39-1.39Z"/>
    <polyline class="b" points="27.22064 21.38193 27.22064 17.92193 27.22064 17.43193 27.22064 15.11193 27.22064 14.62193 27.22064 12.32193 21.86064 9.22193 21.70064 9.13193 21.84064 8.88193 22.00064 8.97193 27.51064 12.15193 27.51064 21.80193 19.31064 26.54193 19.22064 26.59193 19.08064 26.33193 19.11064 26.31193"/>
    <polygon class="b" points="19.30064 26.49193 19.24064 26.53193 19.11064 26.31193 19.00064 26.11193 19.12064 26.04193 27.21064 21.36193 27.22064 21.38193 27.46064 21.79193 19.30064 26.49193"/>
  </g>
</svg>