<?xml version="1.0" encoding="UTF-8"?>
<svg id="a" data-name="Layer 1" xmlns="http://www.w3.org/2000/svg" viewBox="0 0 40.08511 34.97872">
  <defs>
    <style>
      .b {
        stroke-width: .27881px;
      }

      .b, .c {
        fill: none;
        stroke: #fff;
        stroke-miterlimit: 10;
      }

      .d {
        fill: #fff;
        stroke-width: 0px;
      }

      .c {
        stroke-width: .30978px;
      }
    </style>
  </defs>
  <g>
    <path class="d" d="M20.43965,11.89591v3.17248c-.95218-.0303-1.91157-.17745-2.87817-.44291.16591-.42127.36933-.80935.60593-1.1556.63046-.91755,1.43404-1.45712,2.27224-1.57398Z"/>
    <path class="d" d="M25.05482,17.71717h1.372c-.04184.8887-.29575,1.74998-.73577,2.51317-.32605-.13128-.6521-.24959-.9767-.3549.20342-.67951.31883-1.40951.34048-2.15827Z"/>
    <path class="d" d="M20.43965,17.71717v1.49607c-1.03874.01587-2.07315.16014-3.10034.43281-.17312-.60737-.27555-1.25947-.29719-1.92888h3.39754Z"/>
    <path class="d" d="M23.40583,13.46989c.23804.34769.44291.7401.61026,1.16281-.95506.26257-1.91301.40972-2.87673.43714v-3.17392c.83676.1183,1.6389.65787,2.26647,1.57398Z"/>
    <path class="d" d="M16.83581,15.12898c-.16735.58285-.27123,1.20176-.30729,1.83655h-1.36479c.06925-.77328.29864-1.51915.67229-2.19145.33326.13128.66652.24959.99979.3549Z"/>
    <path class="d" d="M16.79397,13.5074c.46743-.46166,1.00844-.83532,1.59417-1.10799-.23516.22795-.45445.48763-.65354.77905-.26834.39241-.49629.8281-.67806,1.29554-.27988-.088-.55976-.18611-.84109-.29431.17457-.2366.36644-.46166.57852-.67229Z"/>
    <path class="d" d="M22.6614,11.6723c3.50718.4054,7.38658,2.00101,11.21404,5.81981-.59872.61459-3.53459,3.45524-7.94779,4.94122-.86561.29142-1.82356.54101-2.86374.70548.77328-.30297,1.48597-.7603,2.08613-1.35324,1.15704-1.14261,1.80769-2.69206,1.80769-4.30787s-.65065-3.16526-1.80769-4.30643c-.66508-.65642-1.46722-1.14838-2.3386-1.44558-.02885-.01154-.05771-.02164-.08656-.0303-.0202-.00866-.04184-.01587-.06348-.02308Z"/>
    <path class="d" d="M21.13936,17.71717h3.39177c-.02164.69682-.13273,1.37633-.32028,2.00534-1.0272-.29287-2.05295-.45878-3.07149-.50061v-1.50473Z"/>
    <path class="d" d="M22.72488,11.69538c-.02597-.00866-.05049-.01731-.07502-.02308h.01154c.02164.00721.04328.01443.06348.02308Z"/>
    <path class="d" d="M25.92765,22.43333c4.41319-1.48597,7.34907-4.32663,7.94779-4.94122-3.82746-3.8188-7.70686-5.41442-11.21404-5.81981-.39818-.13417-.81512-.23083-1.24649-.28565,3.99193,0,8.45129,1.71103,12.77215,6.07517,0,0-5.27015,5.88762-12.77215,6.07517.00144,0,.00289,0,.00433-.00144.56698-.05626,1.12097-.19044,1.64467-.39674,1.04018-.16447,1.99813-.41405,2.86374-.70548Z"/>
    <path class="d" d="M20.43965,19.89852v3.12631c-.8382-.11686-1.64178-.65642-2.27224-1.57398-.23516-.3448-.43858-.73289-.60449-1.15127.95506-.25103,1.91301-.3852,2.87673-.40107Z"/>
    <path class="d" d="M23.84008,13.17847c-.20053-.29142-.41982-.55111-.65498-.77905.58718.27267,1.12674.64633,1.59417,1.10799.21352.21208.40828.43858.58285.67806-.27988.10964-.55976.20919-.84109.29864-.18322-.47176-.41117-.91178-.68095-1.30564Z"/>
    <path class="d" d="M26.41095,16.96553h-1.36623c-.03462-.6319-.13706-1.24648-.30297-1.82645.33326-.10676.66652-.2265.99979-.35923.37077.67229.60016,1.41528.66941,2.18568Z"/>
    <path class="d" d="M20.43965,15.75367v1.21186h-3.386c.03462-.58429.13273-1.15271.28421-1.68651,1.03874.2871,2.07315.44291,3.10179.47465Z"/>
    <path class="d" d="M17.73461,21.74228c.19909.28998.41838.55111.65354.77761-.58573-.27267-1.12674-.64488-1.59417-1.10799-.21352-.21063-.40828-.43858-.58285-.67806.28132-.10532.56265-.20198.84397-.28854.18322.46743.41117.90457.67951,1.29698Z"/>
    <path class="d" d="M24.51959,16.96553h-3.38023v-1.21042c1.03874-.02741,2.07315-.18466,3.0989-.46743.15004.53091.2467,1.09645.28132,1.67785Z"/>
    <path class="d" d="M15.08871,12.49175c1.16281-.37654,2.46556-.68384,3.87363-.83099-.95073.28854-1.82356.80358-2.53914,1.5105-1.15704,1.14117-1.80625,2.69062-1.80625,4.30643s.64921,3.16526,1.80625,4.30787c.70692.69826,1.56965,1.20897,2.5074,1.50184-3.66876-.31595-7.94779-1.86396-12.52689-5.80106.71125-.63911,4.06406-3.49564,8.685-4.9946Z"/>
    <path class="d" d="M23.98146,20.37461c-.16014.38953-.35346.75164-.57563,1.07625-.62757.91611-1.42971,1.45568-2.26647,1.57398v-3.11621c.94063.0404,1.88704.19476,2.8421.46599Z"/>
    <path class="d" d="M25.29864,20.8204c-.15725.20775-.33038.4054-.51937.5915-.46743.4631-1.007.83532-1.59417,1.10799.23516-.2265.45445-.48763.65498-.77761.25247-.36933.46743-.77761.64488-1.21475.27123.088.54245.18611.81368.29287Z"/>
    <path class="d" d="M16.51842,17.71717c.02164.71702.1284,1.41817.31595,2.0717-.3347.10387-.66941.21929-1.00267.34913-.40828-.7401-.64488-1.56676-.68528-2.42084h1.372Z"/>
    <path class="d" d="M26.05172,22.75649c-1.62303.54822-3.58076.86561-5.22831.94063-.26401.01154-.33038-.00577-.59439-.00577-1.08779,0-2.05872-.08512-3.14795-.29142-3.7409-.71125-7.45871-2.65599-11.04957-5.77942l-.14283-.12407.13561-.13128c.03751-.03462,3.67886-3.48698,8.94613-5.19801,2.01544-.65642,3.87218-.90312,5.82126-.8887h.03174c1.03008.00866,2.21165.0404,3.21143.23804,3.63991.7199,7.07352,2.68918,10.20415,5.85155l.11542.11686-.10964.12119c-.03174.03462-3.17104,3.4538-8.19304,5.15041ZM21.41491,23.53699c7.50199-.18755,12.77215-6.07517,12.77215-6.07517-4.32086-4.36414-8.78022-6.07517-12.77215-6.07517.43136.05482.8483.15148,1.24649.28565h-.01154c-.59727-.18755-1.22484-.28565-1.86251-.28565-.62469,0-1.23927.09377-1.825.27411-1.40807.14715-2.71082.45445-3.87363.83099-4.62094,1.49896-7.97375,4.35548-8.685,4.9946,4.5791,3.9371,8.85812,5.48511,12.52689,5.80106.59439.18466,1.22052.28132,1.85674.28132.21063,0,.41982-.0101.62757-.03174Z"/>
  </g>
  <g>
    <path class="c" d="M20.82341,23.69713c-.26401.01154-.33038-.00577-.59439-.00577-1.08779,0-2.05872-.08512-3.14795-.29142-3.7409-.71125-7.45871-2.65599-11.04957-5.77942l-.14283-.12407.13561-.13128c.03751-.03462,3.67886-3.48698,8.94613-5.19801,2.01544-.65642,3.87218-.90312,5.82126-.8887"/>
    <path class="b" d="M20.79167,11.27844h.03174c1.03008.00866,2.21165.0404,3.21143.23804,3.63991.7199,7.07352,2.68918,10.20415,5.85155l.11542.11686-.10964.12119c-.03174.03462-3.17104,3.4538-8.19304,5.15041-1.62303.54822-3.58076.86561-5.22831.94063"/>
  </g>
</svg>