<?xml version="1.0" encoding="UTF-8"?>
<svg id="a" data-name="Layer 1" xmlns="http://www.w3.org/2000/svg" viewBox="0 0 40.08511 34.97872">
  <defs>
    <style>
      .b, .c {
        stroke-width: .75px;
      }

      .b, .c, .d, .e {
        fill: none;
        stroke: #fff;
        stroke-miterlimit: 10;
      }

      .c {
        stroke-linecap: square;
      }

      .d {
        stroke-width: .28431px;
      }

      .f {
        fill: #fff;
        stroke-width: 0px;
      }

      .e {
        stroke-width: .5px;
      }
    </style>
  </defs>
  <g>
    <g>
      <polygon class="f" points="30.69447 25.72096 26.96093 24.93512 27.44366 24.10919 27.92799 23.28165 30.69447 25.72096"/>
      <polygon class="f" points="25.56887 26.95906 26.58565 30.35902 23.81757 27.92131 24.69322 27.44019 25.56887 26.95906"/>
      <polygon class="f" points="25.45981 10.4019 19.80979 13.09941 19.66224 13.09941 19.66224 13.04168 24.94982 10.51577 19.69271 10.51577 19.89318 10.4019 25.45981 10.4019"/>
      <polygon class="f" points="25.01076 13.09941 25.01557 14.32949 19.66224 14.32949 19.66224 14.21402 24.89048 14.21402 24.88727 13.21488 19.66224 13.21488 19.66224 13.16998 19.80979 13.09941 25.01076 13.09941"/>
      <polygon class="f" points="24.94982 10.51577 19.66224 13.04168 19.66224 12.91178 24.43983 10.63124 19.66224 10.63124 19.66224 10.53341 19.69271 10.51577 24.94982 10.51577"/>
      <polygon class="f" points="24.88727 13.21488 24.89048 14.21402 19.66224 14.21402 19.66224 14.10016 24.76539 14.10016 24.76378 13.32875 19.66224 13.32875 19.66224 13.21488 24.88727 13.21488"/>
      <rect class="f" x="19.66224" y="13.32875" width="5.10235" height=".77141" transform="translate(-.02846 .04621) rotate(-.11912)"/>
      <polygon class="f" points="24.49115 7.78778 19.89318 10.4019 19.66224 10.4019 19.66224 10.39869 24.05172 7.90325 19.66224 7.90325 19.66224 7.81023 19.67347 7.78778 24.49115 7.78778"/>
      <polygon class="f" points="24.43983 10.63124 19.66224 12.91178 19.66224 12.1099 21.14571 11.40104 19.66224 11.40104 19.66224 10.63124 24.43983 10.63124"/>
      <polygon class="f" points="24.05172 7.90325 19.66224 10.39869 19.66224 10.26398 23.61389 8.01712 19.66224 8.01712 19.66224 7.90325 24.05172 7.90325"/>
      <polygon class="f" points="23.61389 8.01712 19.66224 10.26398 19.66224 9.44767 20.82336 8.78852 19.66224 8.78852 19.66224 8.01712 23.61389 8.01712"/>
      <polygon class="f" points="22.01976 2.92039 19.67347 7.78778 19.66224 7.78778 19.66224 7.52958 21.47609 3.76717 19.66224 5.9595 19.66224 5.77026 22.01976 2.92039"/>
      <polygon class="f" points="21.47609 3.76717 19.66224 7.52958 19.66224 7.24571 20.93241 4.61395 19.66224 6.14714 19.66224 5.9595 21.47609 3.76717"/>
      <polygon class="f" points="21.33816 28.65904 20.31818 32.05739 19.29819 28.65904 20.31818 28.65904 21.33816 28.65904"/>
      <polygon class="f" points="21.14571 11.40104 19.66224 12.1099 19.66224 11.9816 20.63572 11.51651 19.66224 11.51651 19.66224 11.40104 21.14571 11.40104"/>
      <polygon class="f" points="20.93241 4.61395 19.66224 7.24571 19.66224 6.14714 20.93241 4.61395"/>
      <polygon class="f" points="20.82336 8.78852 19.66224 9.44767 19.66224 9.31295 20.38553 8.90239 19.66224 8.90239 19.66224 8.78852 20.82336 8.78852"/>
      <polygon class="f" points="20.63572 11.51651 19.66224 11.9816 19.66224 11.85169 20.12573 11.63038 19.66224 11.63038 19.66224 11.51651 20.63572 11.51651"/>
      <polygon class="f" points="20.38553 8.90239 19.66224 9.31295 19.66224 9.17824 19.94771 9.01786 19.66224 9.01786 19.66224 8.90239 20.38553 8.90239"/>
      <polygon class="f" points="19.89318 10.4019 19.69271 10.51577 19.66224 10.51577 19.66224 10.4019 19.89318 10.4019"/>
      <polygon class="f" points="19.80979 13.09941 19.66224 13.16998 19.66224 13.09941 19.80979 13.09941"/>
      <polygon class="f" points="19.69271 10.51577 19.66224 10.53341 19.66224 10.51577 19.69271 10.51577"/>
      <polygon class="f" points="19.67347 7.78778 19.66224 7.81023 19.66224 7.78778 19.67347 7.78778"/>
      <polygon class="f" points="19.66224 13.32875 19.66224 14.10016 19.66224 14.21402 19.53875 14.21402 19.53875 13.22932 19.56762 13.21488 19.66224 13.21488 19.66224 13.32875"/>
      <polygon class="f" points="19.66224 12.1099 19.66224 12.91178 19.66224 13.04168 19.54196 13.09941 19.53875 13.09941 19.53875 12.04094 19.66224 11.9816 19.66224 12.1099"/>
      <polygon class="f" points="19.66224 14.21402 19.66224 14.32949 19.41366 14.32949 19.41366 14.10016 19.41366 13.30309 19.41366 13.28866 19.53875 13.22932 19.53875 14.21402 19.66224 14.21402"/>
      <polygon class="f" points="19.66224 13.16998 19.66224 13.21488 19.56762 13.21488 19.66224 13.16998"/>
      <polygon class="f" points="19.66224 13.09941 19.66224 13.16998 19.56762 13.21488 19.53875 13.21488 19.53875 13.22932 19.41366 13.28866 19.41366 13.09941 19.53875 13.09941 19.53875 13.10102 19.54196 13.09941 19.66224 13.09941"/>
      <polygon class="f" points="19.66224 13.04168 19.66224 13.09941 19.54196 13.09941 19.66224 13.04168"/>
      <polygon class="f" points="19.66224 11.85169 19.66224 11.9816 19.53875 12.04094 19.53875 13.09941 19.41366 13.09941 19.41366 13.03206 19.41366 12.22858 19.41366 11.97037 19.66224 11.85169"/>
      <polygon class="f" points="19.66224 10.63124 19.66224 11.40104 19.66224 11.51651 19.53875 11.51651 19.53875 10.60397 19.66224 10.53341 19.66224 10.63124"/>
      <polygon class="f" points="19.66224 9.44767 19.66224 10.26398 19.66224 10.39869 19.65743 10.4019 19.53875 10.4019 19.53875 9.38352 19.66224 9.31295 19.66224 9.44767"/>
      <polygon class="f" points="19.66224 11.51651 19.66224 11.63038 19.41366 11.63038 19.41366 11.40104 19.41366 10.67454 19.53875 10.60397 19.53875 11.51651 19.66224 11.51651"/>
      <polygon class="f" points="19.66224 10.51577 19.66224 10.53341 19.53875 10.60397 19.53875 10.51577 19.66224 10.51577"/>
      <polygon class="f" points="19.66224 10.4019 19.66224 10.51577 19.53875 10.51577 19.53875 10.60397 19.41366 10.67454 19.41366 10.63124 19.41366 10.40511 19.41366 10.4019 19.53875 10.4019 19.53875 10.46926 19.65743 10.4019 19.66224 10.4019"/>
      <polygon class="f" points="19.66224 10.39869 19.66224 10.4019 19.65743 10.4019 19.66224 10.39869"/>
      <polygon class="f" points="19.66224 9.17824 19.66224 9.31295 19.53875 9.38352 19.53875 10.4019 19.41366 10.4019 19.41366 9.5888 19.41366 9.31937 19.66224 9.17824"/>
      <polygon class="f" points="19.66224 8.01712 19.66224 8.78852 19.66224 8.90239 19.53875 8.90239 19.53875 8.06683 19.61734 7.90325 19.66224 7.90325 19.66224 8.01712"/>
      <polygon class="f" points="19.66224 6.14714 19.66224 7.24571 19.66224 7.52958 19.53875 7.78618 19.53875 6.10865 19.66224 5.9595 19.66224 6.14714"/>
      <polygon class="f" points="19.66224 8.90239 19.66224 9.01786 19.41366 9.01786 19.41366 8.78852 19.41366 8.32664 19.53875 8.06683 19.53875 8.90239 19.66224 8.90239"/>
      <polygon class="f" points="19.66224 7.81023 19.66224 7.90325 19.61734 7.90325 19.66224 7.81023"/>
      <polygon class="f" points="19.66224 7.78778 19.66224 7.81023 19.61734 7.90325 19.53875 7.90325 19.53875 8.06683 19.41366 8.32664 19.41366 8.01712 19.41366 7.78778 19.53875 7.78778 19.66224 7.78778"/>
      <polygon class="f" points="19.66224 7.52958 19.66224 7.78778 19.53875 7.78778 19.53875 7.78618 19.66224 7.52958"/>
      <polygon class="f" points="19.66224 5.77026 19.66224 5.9595 19.53875 6.10865 19.53875 7.78618 19.53875 7.78778 19.41366 7.78778 19.41366 7.76212 19.41366 6.44704 19.41366 6.07016 19.66224 5.77026"/>
      <polygon class="f" points="19.65743 10.4019 19.53875 10.46926 19.53875 10.4019 19.65743 10.4019"/>
      <polygon class="f" points="19.61734 7.90325 19.53875 8.06683 19.53875 7.90325 19.61734 7.90325"/>
      <polygon class="f" points="19.56762 13.21488 19.53875 13.22932 19.53875 13.21488 19.56762 13.21488"/>
      <polygon class="f" points="19.54196 13.09941 19.53875 13.10102 19.53875 13.09941 19.54196 13.09941"/>
      <polygon class="f" points="19.41366 14.10016 19.41366 14.32949 14.4773 14.32949 19.41366 11.97037 19.41366 12.22858 15.49729 14.10016 19.41366 14.10016"/>
      <polygon class="f" points="19.41366 13.30309 19.41366 14.10016 15.49729 14.10016 19.41366 12.22858 19.41366 13.03206 18.83791 13.3063 19.41366 13.30309"/>
      <polygon class="f" points="19.41366 13.28866 19.41366 13.30309 18.83791 13.3063 19.41366 13.03206 19.41366 13.09941 19.41366 13.28866"/>
      <polygon class="f" points="19.41366 11.40104 19.41366 11.63038 15.34974 11.63038 19.41366 9.31937 19.41366 9.5888 16.22539 11.40104 19.41366 11.40104"/>
      <polygon class="f" points="19.41366 10.67454 19.41366 11.40104 16.22539 11.40104 19.41366 9.5888 19.41366 10.4019 19.41366 10.40511 19.01593 10.63124 19.41366 10.63124 19.41366 10.67454"/>
      <polygon class="f" points="19.41366 10.40511 19.41366 10.63124 19.01593 10.63124 19.41366 10.40511"/>
      <polygon class="f" points="19.41366 8.32664 19.41366 8.78852 17.47632 8.78852 19.41366 6.44704 19.41366 7.76212 19.29017 8.01712 19.41366 8.01712 19.41366 8.32664"/>
      <polygon class="f" points="19.41366 8.78852 19.41366 9.01786 16.97435 9.01786 19.41366 6.07016 19.41366 6.44704 17.47632 8.78852 19.41366 8.78852"/>
      <polygon class="f" points="19.41366 7.78778 19.41366 8.01712 19.29017 8.01712 19.41366 7.76212 19.41366 7.78778"/>
      <polygon class="f" points="17.10265 28.33187 13.89193 31.15769 15.07069 27.21406 17.10265 28.33187"/>
      <polygon class="f" points="12.60091 23.41637 13.72354 25.33606 9.39179 26.24699 12.60091 23.41637"/>
    </g>
    <g>
      <polyline class="d" points="19.41366 9.01786 16.97435 9.01786 19.41366 6.07016"/>
      <polygon class="d" points="20.31818 32.05739 21.33816 28.65904 20.31818 28.65904 19.29819 28.65904 20.31818 32.05739"/>
      <polygon class="d" points="13.89193 31.15769 15.07069 27.21406 17.10265 28.33187 13.89193 31.15769"/>
      <polygon class="d" points="26.58565 30.35902 23.81757 27.92131 24.69322 27.44019 25.56887 26.95906 26.58565 30.35902"/>
      <polygon class="d" points="9.39179 26.24699 12.60091 23.41637 13.72354 25.33606 9.39179 26.24699"/>
      <polygon class="d" points="30.69447 25.72096 26.96093 24.93512 27.44366 24.10919 27.92799 23.28165 30.69447 25.72096"/>
      <polyline class="d" points="19.41366 11.63038 15.34974 11.63038 19.41366 9.31937"/>
      <polyline class="d" points="19.41366 10.63124 19.01593 10.63124 19.41366 10.40511"/>
      <polyline class="d" points="19.41366 9.5888 16.22539 11.40104 19.41366 11.40104"/>
      <polyline class="d" points="19.41366 14.32949 14.4773 14.32949 19.41366 11.97037"/>
      <polyline class="d" points="19.41366 13.30309 18.83791 13.3063 19.41366 13.03206"/>
      <polyline class="d" points="19.41366 12.22858 15.49729 14.10016 19.41366 14.10016"/>
      <polyline class="e" points="19.65743 10.4019 19.66224 10.39869 24.05172 7.90325 19.66224 7.90325 19.61734 7.90325 19.53875 7.90325 19.53875 8.06683 19.53875 8.90239 19.66224 8.90239 20.38553 8.90239 19.66224 9.31295 19.53875 9.38352 19.53875 10.4019"/>
      <polyline class="d" points="19.67347 7.78778 24.49115 7.78778 19.89318 10.4019"/>
      <line class="d" x1="19.41366" y1="9.01786" x2="19.41366" y2="8.78852"/>
      <polyline class="d" points="19.66224 9.17824 19.94771 9.01786 19.66224 9.01786"/>
      <polyline class="d" points="19.41366 10.4019 19.41366 9.5888 19.41366 9.31937"/>
      <polyline class="d" points="19.66224 8.78852 20.82336 8.78852 19.66224 9.44767"/>
      <polyline class="d" points="19.66224 10.26398 23.61389 8.01712 19.66224 8.01712"/>
      <polygon class="d" points="19.66224 7.52958 21.47609 3.76717 19.66224 5.9595 19.53875 6.10865 19.53875 7.78618 19.66224 7.52958"/>
      <polyline class="d" points="19.41366 8.01712 19.41366 7.78778 19.41366 7.76212"/>
      <polygon class="b" points="19.66224 6.14714 19.66224 7.24571 20.93241 4.61395 19.66224 6.14714"/>
      <polyline class="d" points="19.53875 10.60397 19.53875 11.51651 19.66224 11.51651 20.63572 11.51651 19.66224 11.9816 19.53875 12.04094 19.53875 13.09941 19.53875 13.10102 19.54196 13.09941 19.66224 13.04168 24.94982 10.51577 19.69271 10.51577"/>
      <polyline class="d" points="19.41366 11.63038 19.41366 11.40104 19.41366 10.67454 19.41366 10.63124 19.41366 10.40511 19.41366 10.4019"/>
      <polyline class="d" points="19.41366 13.09941 19.41366 13.03206 19.41366 12.22858 19.41366 11.97037"/>
      <polygon class="b" points="19.66224 12.1099 19.66224 12.91178 24.43983 10.63124 19.66224 10.63124 19.66224 11.40104 21.14571 11.40104 19.66224 12.1099"/>
      <polygon class="d" points="19.66224 14.21402 24.89048 14.21402 24.88727 13.21488 19.66224 13.21488 19.56762 13.21488 19.53875 13.21488 19.53875 13.22932 19.53875 14.21402 19.66224 14.21402"/>
      <polyline class="d" points="19.80979 13.09941 25.01076 13.09941 25.01557 14.32949 19.66224 14.32949 19.41366 14.32949 19.41366 14.10016 19.41366 13.30309 19.41366 13.28866 19.41366 13.09941"/>
      <rect class="d" x="19.66224" y="13.32875" width="5.10235" height=".77141"/>
    </g>
  </g>
  <g>
    <path class="f" d="M23.35211,14.85848l4.23,8.54c-.23.87-1.7,5.23-7.49,5.23-5.8,0-6.9-4.36-7.06-5.2v-.01l4.25-8.55.12.06h5.8l.15-.07Z"/>
    <g>
      <path class="b" d="M13.03211,23.42848c.16.84,1.26,5.2,7.06,5.2,5.79,0,7.26-4.36,7.49-5.23.03-.1.04-.15.04-.15"/>
      <path class="b" d="M13.01211,23.28848s.01.05.02.13"/>
      <polyline class="b" points="27.62211 23.46848 27.58211 23.39848 23.35211 14.85848 23.28211 14.71848"/>
      <polyline class="b" points="13.01211 23.46848 13.03211 23.42848 13.03211 23.41848 17.28211 14.86848 17.35211 14.71848"/>
      <line class="c" x1="17.40211" y1="14.92848" x2="23.20211" y2="14.92848"/>
    </g>
  </g>
</svg>