<?xml version="1.0" encoding="UTF-8"?><svg id="uuid-8b0a4896-ee75-4ae3-b193-8869e199ce47" xmlns="http://www.w3.org/2000/svg" viewBox="0 0 200 200"><defs><style>.uuid-9cb3febc-8f3f-4449-8919-53a6f69d3ca9{fill:none;stroke:#fff;stroke-miterlimit:10;stroke-width:1.11px;}.uuid-53d556d7-0305-4592-8010-2e8271cc5578{fill:#fff;}.uuid-53d556d7-0305-4592-8010-2e8271cc5578,.uuid-931abf82-2f62-464d-a2a6-03003d95ea46{stroke-width:0px;}.uuid-931abf82-2f62-464d-a2a6-03003d95ea46{fill:#f6c310;}</style></defs><g id="uuid-7e84c30c-700e-4478-a47e-bed84f46ad7e"><circle class="uuid-931abf82-2f62-464d-a2a6-03003d95ea46" cx="100" cy="100" r="100"/><polygon class="uuid-53d556d7-0305-4592-8010-2e8271cc5578" points="114.26 86.83 131.61 121.4 128.83 122.58 111.48 88.01 114.26 86.83"/><polygon class="uuid-53d556d7-0305-4592-8010-2e8271cc5578" points="120.38 68.62 99.86 68.62 100.64 68.17 122.37 68.17 100.31 78.71 99.74 78.71 99.74 78.48 120.38 68.62"/><polygon class="uuid-53d556d7-0305-4592-8010-2e8271cc5578" points="120.14 79.16 99.74 79.16 99.74 78.98 100.31 78.71 120.63 78.71 120.64 83.51 99.74 83.51 99.74 83.06 120.15 83.06 120.14 79.16"/><polygon class="uuid-53d556d7-0305-4592-8010-2e8271cc5578" points="99.74 79.16 120.14 79.16 120.15 83.06 99.74 83.06 99.74 82.62 119.67 82.62 119.66 79.6 99.74 79.6 99.74 79.16"/><polygon class="uuid-53d556d7-0305-4592-8010-2e8271cc5578" points="99.86 68.62 120.38 68.62 99.74 78.48 99.74 77.98 118.39 69.07 99.74 69.07 99.74 68.69 99.86 68.62"/><polygon class="uuid-53d556d7-0305-4592-8010-2e8271cc5578" points="118.59 57.96 100.64 68.17 99.74 68.17 99.74 68.16 116.88 58.42 99.74 58.42 99.74 58.05 99.78 57.96 118.59 57.96"/><polygon class="uuid-53d556d7-0305-4592-8010-2e8271cc5578" points="99.74 50.08 108.95 38.96 99.78 57.96 99.74 57.96 99.74 56.94 106.82 42.26 99.74 50.82 99.74 50.09 99.74 50.08"/><polygon class="uuid-53d556d7-0305-4592-8010-2e8271cc5578" points="106.82 42.26 99.74 56.94 99.74 55.85 104.69 45.57 99.74 51.56 99.74 50.82 106.82 42.26"/><polygon class="uuid-53d556d7-0305-4592-8010-2e8271cc5578" points="99.74 72.08 105.53 72.08 99.74 74.84 99.74 74.34 103.53 72.53 99.74 72.53 99.74 72.08"/><polygon class="uuid-53d556d7-0305-4592-8010-2e8271cc5578" points="102.56 62.32 99.74 62.32 99.74 61.87 104.27 61.87 99.74 64.45 99.74 63.92 102.56 62.32"/><polygon class="uuid-53d556d7-0305-4592-8010-2e8271cc5578" points="99.74 72.53 103.53 72.53 99.74 74.34 99.74 73.84 101.55 72.97 99.74 72.97 99.74 72.53"/><polygon class="uuid-53d556d7-0305-4592-8010-2e8271cc5578" points="99.74 62.32 102.56 62.32 99.74 63.92 99.74 63.4 100.85 62.76 99.74 62.76 99.74 62.32"/><polygon class="uuid-53d556d7-0305-4592-8010-2e8271cc5578" points="100.64 68.17 99.86 68.62 99.74 68.62 99.74 68.17 100.64 68.17"/><polygon class="uuid-53d556d7-0305-4592-8010-2e8271cc5578" points="100.31 78.71 99.74 78.98 99.74 78.71 100.31 78.71"/><polygon class="uuid-53d556d7-0305-4592-8010-2e8271cc5578" points="115.16 58.86 99.74 58.86 99.74 58.42 116.88 58.42 99.74 68.16 99.74 67.64 115.16 58.86"/><polygon class="uuid-53d556d7-0305-4592-8010-2e8271cc5578" points="99.86 68.62 99.74 68.69 99.74 68.62 99.86 68.62"/><polygon class="uuid-53d556d7-0305-4592-8010-2e8271cc5578" points="99.78 57.96 99.74 58.05 99.74 57.96 99.78 57.96"/><polygon class="uuid-53d556d7-0305-4592-8010-2e8271cc5578" points="99.74 78.98 99.74 79.16 99.37 79.16 99.74 78.98"/><polygon class="uuid-53d556d7-0305-4592-8010-2e8271cc5578" points="99.74 78.48 99.74 78.71 99.26 78.71 99.74 78.48"/><polygon class="uuid-53d556d7-0305-4592-8010-2e8271cc5578" points="99.74 68.16 99.74 68.17 99.71 68.17 99.74 68.16"/><polygon class="uuid-53d556d7-0305-4592-8010-2e8271cc5578" points="99.74 58.05 99.74 58.42 99.56 58.42 99.74 58.05"/><polygon class="uuid-53d556d7-0305-4592-8010-2e8271cc5578" points="99.74 56.94 99.74 57.96 99.25 57.96 99.25 57.96 99.74 56.94"/><polygon class="uuid-53d556d7-0305-4592-8010-2e8271cc5578" points="99.74 51.56 99.74 55.85 99.74 56.94 99.25 57.96 99.25 51.41 99.74 50.82 99.74 51.56"/><polygon class="uuid-53d556d7-0305-4592-8010-2e8271cc5578" points="99.74 61.87 99.74 62.32 99.25 62.32 99.25 59.07 99.56 58.42 99.74 58.42 99.74 58.86 99.74 61.87"/><polygon class="uuid-53d556d7-0305-4592-8010-2e8271cc5578" points="99.74 67.64 99.74 68.16 99.71 68.17 99.25 68.17 99.25 64.2 99.74 63.92 99.74 64.45 99.74 67.64"/><polygon class="uuid-53d556d7-0305-4592-8010-2e8271cc5578" points="99.74 72.08 99.74 72.53 99.25 72.53 99.25 68.96 99.74 68.69 99.74 69.07 99.74 72.08"/><polygon class="uuid-53d556d7-0305-4592-8010-2e8271cc5578" points="99.74 74.84 99.74 77.98 99.74 78.48 99.26 78.71 99.25 78.71 99.25 74.58 99.74 74.34 99.74 74.84"/><polygon class="uuid-53d556d7-0305-4592-8010-2e8271cc5578" points="99.74 79.16 99.74 79.6 99.74 82.62 99.74 83.06 99.25 83.06 99.25 79.22 99.37 79.16 99.74 79.16"/><polygon class="uuid-53d556d7-0305-4592-8010-2e8271cc5578" points="99.71 68.17 99.25 68.44 99.25 68.17 99.71 68.17"/><polygon class="uuid-53d556d7-0305-4592-8010-2e8271cc5578" points="99.74 68.69 99.25 68.96 99.25 68.62 99.74 68.62 99.74 68.69"/><polygon class="uuid-53d556d7-0305-4592-8010-2e8271cc5578" points="99.37 79.16 99.25 79.22 99.25 79.16 99.37 79.16"/><polygon class="uuid-53d556d7-0305-4592-8010-2e8271cc5578" points="99.25 59.07 99.25 58.42 99.56 58.42 99.25 59.07"/><polygon class="uuid-53d556d7-0305-4592-8010-2e8271cc5578" points="99.26 78.71 99.25 78.72 99.25 78.71 99.26 78.71"/><polygon class="uuid-53d556d7-0305-4592-8010-2e8271cc5578" points="98.77 83.51 98.77 82.62 98.77 79.5 98.77 79.45 99.25 79.22 99.25 83.06 99.74 83.06 99.74 83.51 98.77 83.51"/><polygon class="uuid-53d556d7-0305-4592-8010-2e8271cc5578" points="98.77 69.24 99.25 68.96 99.25 72.53 99.74 72.53 99.74 72.97 98.77 72.97 98.77 72.08 98.77 69.24"/><polygon class="uuid-53d556d7-0305-4592-8010-2e8271cc5578" points="99.74 62.76 98.77 62.76 98.77 61.87 98.77 60.07 99.25 59.07 99.25 62.32 99.74 62.32 99.74 62.76"/><polygon class="uuid-53d556d7-0305-4592-8010-2e8271cc5578" points="98.77 79.45 98.77 78.71 99.25 78.71 99.25 78.72 99.26 78.71 99.74 78.71 99.74 78.98 99.37 79.16 99.25 79.16 99.25 79.22 98.77 79.45"/><polygon class="uuid-53d556d7-0305-4592-8010-2e8271cc5578" points="98.77 51.26 99.74 50.09 99.74 50.82 99.25 51.41 99.25 57.96 99.25 57.96 98.77 57.96 98.77 57.86 98.77 52.73 98.77 51.26"/><polygon class="uuid-53d556d7-0305-4592-8010-2e8271cc5578" points="98.77 58.86 98.77 57.96 99.25 57.96 99.74 57.96 99.74 58.05 99.56 58.42 99.25 58.42 99.25 59.07 98.77 60.07 98.77 58.86"/><polygon class="uuid-53d556d7-0305-4592-8010-2e8271cc5578" points="98.77 65 98.77 63.95 99.74 63.4 99.74 63.92 99.25 64.2 99.25 68.17 98.77 68.17 98.77 65"/><polygon class="uuid-53d556d7-0305-4592-8010-2e8271cc5578" points="98.77 69.07 98.77 68.19 98.77 68.17 99.25 68.17 99.25 68.44 99.71 68.17 99.74 68.17 99.74 68.62 99.25 68.62 99.25 68.96 98.77 69.24 98.77 69.07"/><polygon class="uuid-53d556d7-0305-4592-8010-2e8271cc5578" points="98.77 75.31 98.77 74.3 99.74 73.84 99.74 74.34 99.25 74.58 99.25 78.71 98.77 78.71 98.77 78.44 98.77 75.31"/><polygon class="uuid-53d556d7-0305-4592-8010-2e8271cc5578" points="98.77 82.62 98.77 83.51 79.48 83.51 98.77 74.3 98.77 75.31 83.47 82.62 98.77 82.62"/><polygon class="uuid-53d556d7-0305-4592-8010-2e8271cc5578" points="98.77 78.44 98.77 78.71 98.77 79.45 98.77 79.5 96.52 79.52 98.77 78.44"/><polygon class="uuid-53d556d7-0305-4592-8010-2e8271cc5578" points="98.77 72.08 98.77 72.97 82.89 72.97 98.77 63.95 98.77 65 86.32 72.08 98.77 72.08"/><polygon class="uuid-53d556d7-0305-4592-8010-2e8271cc5578" points="98.77 68.19 98.77 69.07 97.21 69.07 98.77 68.19"/><polygon class="uuid-53d556d7-0305-4592-8010-2e8271cc5578" points="98.77 61.87 98.77 62.76 89.24 62.76 98.77 51.26 98.77 52.73 91.2 61.87 98.77 61.87"/><polygon class="uuid-53d556d7-0305-4592-8010-2e8271cc5578" points="98.77 57.86 98.77 57.96 98.77 58.86 98.29 58.86 98.77 57.86"/><polygon class="uuid-53d556d7-0305-4592-8010-2e8271cc5578" points="89.94 86.64 90.83 87.02 73.48 121.59 72.6 121.21 89.94 86.64"/><path class="uuid-53d556d7-0305-4592-8010-2e8271cc5578" d="M88.61,145.57l-5.74-3.16-3.34,11.15,9.08-7.99ZM82.28,141.04l7.93,4.37-12.54,11.04,4.61-15.4Z"/><polyline class="uuid-9cb3febc-8f3f-4449-8919-53a6f69d3ca9" points="98.77 62.76 89.24 62.76 98.77 51.26"/><polyline class="uuid-9cb3febc-8f3f-4449-8919-53a6f69d3ca9" points="98.77 58.86 98.29 58.86 98.77 57.86"/><polyline class="uuid-9cb3febc-8f3f-4449-8919-53a6f69d3ca9" points="98.77 52.73 91.2 61.87 98.77 61.87"/><polyline class="uuid-9cb3febc-8f3f-4449-8919-53a6f69d3ca9" points="98.77 72.97 82.89 72.97 98.77 63.95"/><polyline class="uuid-9cb3febc-8f3f-4449-8919-53a6f69d3ca9" points="98.77 69.07 97.21 69.07 98.77 68.19"/><polyline class="uuid-9cb3febc-8f3f-4449-8919-53a6f69d3ca9" points="98.77 65 86.32 72.08 98.77 72.08"/><polyline class="uuid-9cb3febc-8f3f-4449-8919-53a6f69d3ca9" points="98.77 83.51 79.48 83.51 98.77 74.3"/><polyline class="uuid-9cb3febc-8f3f-4449-8919-53a6f69d3ca9" points="98.77 79.5 96.52 79.52 98.77 78.44"/><polyline class="uuid-9cb3febc-8f3f-4449-8919-53a6f69d3ca9" points="98.77 75.31 83.47 82.62 98.77 82.62"/><polyline class="uuid-9cb3febc-8f3f-4449-8919-53a6f69d3ca9" points="99.74 62.32 102.56 62.32 99.74 63.92"/><polyline class="uuid-9cb3febc-8f3f-4449-8919-53a6f69d3ca9" points="99.74 68.16 116.88 58.42 99.74 58.42"/><polyline class="uuid-9cb3febc-8f3f-4449-8919-53a6f69d3ca9" points="99.78 57.96 118.59 57.96 100.64 68.17"/><polyline class="uuid-9cb3febc-8f3f-4449-8919-53a6f69d3ca9" points="98.77 62.76 98.77 61.87 98.77 60.07"/><polyline class="uuid-9cb3febc-8f3f-4449-8919-53a6f69d3ca9" points="99.74 63.4 100.85 62.76 99.74 62.76"/><polyline class="uuid-9cb3febc-8f3f-4449-8919-53a6f69d3ca9" points="98.77 68.17 98.77 65 98.77 63.95"/><polyline class="uuid-9cb3febc-8f3f-4449-8919-53a6f69d3ca9" points="99.74 61.87 104.27 61.87 99.74 64.45"/><polyline class="uuid-9cb3febc-8f3f-4449-8919-53a6f69d3ca9" points="99.74 67.64 115.16 58.86 99.74 58.86"/><polygon class="uuid-9cb3febc-8f3f-4449-8919-53a6f69d3ca9" points="102.3 160.94 106.28 147.66 102.3 147.66 98.32 147.66 102.3 160.94"/><polygon class="uuid-9cb3febc-8f3f-4449-8919-53a6f69d3ca9" points="77.67 156.44 82.28 141.04 90.21 145.41 77.67 156.44"/><polygon class="uuid-9cb3febc-8f3f-4449-8919-53a6f69d3ca9" points="125.61 155 114.8 145.49 118.22 143.61 121.64 141.72 125.61 155"/><polygon class="uuid-9cb3febc-8f3f-4449-8919-53a6f69d3ca9" points="59.95 139.51 72.49 128.46 76.87 135.96 59.95 139.51"/><polygon class="uuid-9cb3febc-8f3f-4449-8919-53a6f69d3ca9" points="142.65 138.72 128.07 135.65 129.96 132.42 131.85 129.2 142.65 138.72"/><polygon class="uuid-9cb3febc-8f3f-4449-8919-53a6f69d3ca9" points="73.48 121.59 72.6 121.21 89.94 86.64 90.83 87.02 73.48 121.59"/><polyline class="uuid-9cb3febc-8f3f-4449-8919-53a6f69d3ca9" points="99.74 56.94 106.82 42.26 99.74 50.82"/><polygon class="uuid-9cb3febc-8f3f-4449-8919-53a6f69d3ca9" points="99.74 51.56 99.74 55.85 104.69 45.57 99.74 51.56"/><polyline class="uuid-9cb3febc-8f3f-4449-8919-53a6f69d3ca9" points="99.74 72.53 103.53 72.53 99.74 74.34"/><polyline class="uuid-9cb3febc-8f3f-4449-8919-53a6f69d3ca9" points="99.74 78.48 120.38 68.62 99.86 68.62 99.74 68.62"/><polygon class="uuid-9cb3febc-8f3f-4449-8919-53a6f69d3ca9" points="99.74 74.84 99.74 77.98 118.39 69.07 99.74 69.07 99.74 72.08 105.53 72.08 99.74 74.84"/><polyline class="uuid-9cb3febc-8f3f-4449-8919-53a6f69d3ca9" points="99.74 83.06 120.15 83.06 120.14 79.16 99.74 79.16"/><polyline class="uuid-9cb3febc-8f3f-4449-8919-53a6f69d3ca9" points="100.31 78.71 120.63 78.71 120.64 83.51 99.74 83.51 98.77 83.51 98.77 82.62 98.77 79.5 98.77 79.45 98.77 78.71"/><polygon class="uuid-9cb3febc-8f3f-4449-8919-53a6f69d3ca9" points="99.74 82.62 119.67 82.62 119.66 79.6 99.74 79.6 99.74 82.62"/></g></svg>
