<?xml version="1.0" encoding="UTF-8"?>
<svg id="a" data-name="Layer 1" xmlns="http://www.w3.org/2000/svg" viewBox="0 0 40.08511 34.97872">
  <defs>
    <style>
      .b {
        fill: none;
        stroke: #fff;
        stroke-miterlimit: 10;
        stroke-width: .2695px;
      }

      .c {
        fill: #fff;
        stroke-width: 0px;
      }
    </style>
  </defs>
  <g>
    <path class="c" d="M20.04365,4.02577c-.07388.00157-.1462.02201-.22637.06288-.66496.33484-1.26389.62409-1.82982.88504-2.01688.92591-3.74137,1.5107-5.42499,1.83767-.92748.18078-1.87698.33641-2.79346.48732-.24366.0393-.48889.08017-.73255.12104l-.03773.00472q-.32226.05345-.30811.39143c.03773.90076.0786,1.79995.11947,2.69913.03458.75456.06917,1.50913.10061,2.26212.06917,1.61445.26095,3.01825.58636,4.29158.44488,1.7465,1.04538,3.78539,2.1285,5.65922.96207,1.66318,1.85811,2.93179,2.82175,3.99289.83474.91962,1.82196,1.80466,3.10786,2.78402.5109.38986,1.08311.72312,1.63646,1.04538.18235.1069.36471.21222.54391.32069.06288.0393.15091.06917.22951.08017.04873.00629.09589.00314.13048-.00943.34113-.12576.6681-.29868.94949-.44959.89762-.48732,1.69305-1.14599,2.46333-1.78423l.27039-.22322c2.01217-1.65532,3.6502-3.73823,5.00684-6.3682,1.29533-2.50735,2.07662-5.29137,2.32185-8.27189.10061-1.23245.15406-2.44604.20908-3.7288.02515-.57221.04873-1.14756.0786-1.73078v-.18864c-.00157-.18078-.00314-.38671.00314-.59265.00314-.09746-.01415-.11947-.10532-.13519-.19807-.03301-.393-.06917-.5895-.10532-.25152-.04559-.5109-.09432-.76714-.13362-1.3252-.20122-2.74629-.44645-4.14538-.85989-2.03732-.60051-3.92058-1.48869-5.49259-2.27784-.0896-.04402-.1682-.06602-.24523-.06602h-.00943ZM31.31651,7.32384c.16349.02672.2358.11476.22951.28453-.00629.20436-.00472.40715-.00314.58793v.19493c-.02987.58164-.05502,1.15857-.0786,1.73078-.05659,1.28433-.10847,2.49949-.21065,3.73351-.2468,3.00096-1.03281,5.80385-2.336,8.32849-1.36765,2.64726-3.01668,4.74589-5.04457,6.41536l-.27039.22322c-.775.64138-1.57829,1.30634-2.48849,1.79837-.28453.15406-.6178.33012-.96678.45903-.0393.01415-.08332.02044-.1289.02044-.12262,0-.26095-.04402-.35842-.10375-.17921-.1069-.36156-.21379-.54391-.31912-.55649-.32383-1.13184-.66024-1.65061-1.05482-1.29219-.98565-2.2857-1.87697-3.12829-2.80289-.96993-1.06896-1.87226-2.34543-2.83904-4.01805-1.09254-1.88955-1.69777-3.94102-2.14422-5.69695-.32698-1.28276-.52033-2.69599-.5895-4.32144-.03301-.75299-.0676-1.50755-.10218-2.26054-.04087-.90076-.08174-1.79995-.11947-2.70071-.01886-.4323.01415-.47317.4323-.54234l.03616-.00629c.24523-.04087.48889-.08017.73413-.12104.91648-.14934,1.86283-.30497,2.78874-.48575,1.67261-.32541,3.38453-.90705,5.39041-1.82824.56592-.25938,1.16328-.54706,1.82667-.8819.21222-.1069.39457-.10532.61308.00314,1.56729.786,3.44269,1.67104,5.46901,2.2684,1.38965.41187,2.80446.65395,4.12494.85517.25938.0393.52033.08803.77186.13519.19493.03616.38986.07231.58636.10532Z"/>
    <path class="c" d="M31.29293,7.46847c.09118.01572.10847.03773.10532.13519-.00629.20593-.00472.41187-.00314.59265v.18864c-.02987.58321-.05345,1.15857-.0786,1.73078-.05502,1.28276-.10847,2.49635-.20908,3.7288-.24523,2.98052-1.02652,5.76454-2.32185,8.27189-1.35664,2.62997-2.99467,4.71287-5.00684,6.3682l-.27039.22322c-.77028.63823-1.56572,1.2969-2.46333,1.78423-.28139.15091-.60837.32383-.94949.44959-.03458.01258-.08174.01572-.13048.00943-.03458-.65867-.0393-5.63092-.02672-11.13137v-.03301l2.39259-4.12809,1.30634.75613-.53291.91805,1.63803.94949,4.41262-7.61008-1.63803-.94949-.55335.95578-4.45507-2.58281.51719-.89133-1.5107-.87561-1.53113,2.64097c.01886-2.64097.0393-4.55253.05974-4.94396h.00943c.07703,0,.15563.02201.24523.06602,1.57201.78915,3.45527,1.67733,5.49259,2.27784,1.39909.41344,2.82018.65867,4.14538.85989.25624.0393.51562.08803.76714.13362.1965.03616.39143.07231.5895.10532Z"/>
    <polygon class="c" points="29.155 10.67221 24.74238 18.28229 23.10434 17.3328 23.63725 16.41475 23.70013 16.45091 23.20495 17.30608 24.71408 18.18168 29.05282 10.69894 27.54369 9.82333 27.0265 10.71466 26.96362 10.6785 27.51697 9.72272 29.155 10.67221"/>
    <polygon class="c" points="29.05282 10.69894 24.71408 18.18168 23.20495 17.30608 23.70013 16.45091 23.76459 16.48863 23.30556 17.27935 24.68735 18.08108 28.95221 10.72566 27.57041 9.92394 27.09095 10.75239 27.0265 10.71466 27.54369 9.82333 29.05282 10.69894"/>
    <polygon class="c" points="23.73786 16.38803 23.67341 16.3503 23.71114 16.28742 26.88816 10.80583 26.92432 10.74295 26.92589 10.74295 26.98877 10.77911 27.0265 10.71466 27.09095 10.75239 23.76459 16.48863 23.70013 16.45091 23.73786 16.38803"/>
    <polygon class="c" points="27.0265 10.71466 26.98877 10.77911 26.92589 10.74295 26.96362 10.6785 27.0265 10.71466"/>
    <polygon class="c" points="26.96362 10.6785 26.92589 10.74295 26.92432 10.74295 22.47083 8.16015 22.50855 8.0957 26.96362 10.6785"/>
    <path class="c" d="M22.47083,8.16015l4.45349,2.58281-.03616.06288-4.39061-2.54508-3.17702,5.48001,4.39061,2.54665-.03773.06288-1.30477-.75613-.03773.06445-.85046-.49361.03773-.06445-1.56257-.90548v.08646l-.83788-.48575.07546-.1289.73884-1.27332,2.51364-4.33559.06288.03773-.03773.06445Z"/>
    <polygon class="c" points="23.73786 16.38803 23.70013 16.45091 23.63725 16.41475 23.67341 16.3503 23.73786 16.38803"/>
    <polygon class="c" points="23.67341 16.3503 23.63725 16.41475 22.33092 15.65861 22.36865 15.59416 23.67341 16.3503"/>
    <path class="c" d="M23.02574,7.20437l-.51719.89133-.06288-.03773.47946-.82687-1.38179-.80172-1.75279,3.02139-2.51207,4.33402,1.38179.80015.45745-.78915.83788.48575c-.00472,1.15857-.00943,2.34858-.01258,3.53544l-.02515.04402-3.57946,6.17327-1.65218-2.86262-.56907.99194,2.21653,3.84041,3.58417-6.18427h.02044c-.01258,5.50045-.00786,10.4727.02672,11.13137-.0786-.011-.16663-.04087-.22951-.08017-.17921-.10847-.36156-.21379-.54391-.32069-.55335-.32226-1.12556-.65553-1.63646-1.04538-1.2859-.97936-2.27312-1.8644-3.10786-2.78402-.96364-1.0611-1.85968-2.32971-2.82175-3.99289-1.08311-1.87383-1.68362-3.91272-2.1285-5.65922-.32541-1.27332-.51719-2.67713-.58636-4.29158-.03144-.75299-.06602-1.50755-.10061-2.26212-.04087-.89919-.08174-1.79837-.11947-2.69913q-.01415-.33798.30811-.39143l.03773-.00472c.24366-.04087.48889-.08174.73255-.12104.91648-.15091,1.86597-.30654,2.79346-.48732,1.68362-.32698,3.40811-.91176,5.42499-1.83767.56592-.26095,1.16486-.5502,1.82982-.88504.08017-.04087.15248-.06131.22637-.06288-.02044.39143-.04087,2.30299-.05974,4.94396l1.53113-2.64097,1.5107.87561Z"/>
    <polygon class="c" points="22.44567 8.05797 19.93204 12.39356 19.19319 13.66688 22.4441 8.05797 22.44567 8.05797"/>
    <path class="c" d="M21.51819,15.10055l-.03773.06445-1.52485-.88347v-.08646l1.56257.90548Z"/>
    <path class="c" d="M21.48046,15.16501l-1.53742,2.65197c.00314-1.18686.00786-2.37687.01258-3.53544l1.52485.88347Z"/>
  </g>
  <g>
    <path class="b" d="M20.0185,31.10043c-.12262,0-.26095-.04402-.35842-.10375-.17921-.1069-.36156-.21379-.54391-.31912-.55649-.32383-1.13184-.66024-1.65061-1.05482-1.29219-.98565-2.2857-1.87697-3.12829-2.80289-.96993-1.06896-1.87226-2.34543-2.83904-4.01805-1.09254-1.88955-1.69777-3.94102-2.14422-5.69695-.32698-1.28276-.52033-2.69599-.5895-4.32144-.03301-.75299-.0676-1.50755-.10218-2.26054-.04087-.90076-.08174-1.79995-.11947-2.70071-.01886-.4323.01415-.47317.4323-.54234l.03616-.00629c.24523-.04087.48889-.08017.73413-.12104.91648-.14934,1.86283-.30497,2.78874-.48575,1.67261-.32541,3.38453-.90705,5.39041-1.82824.56592-.25938,1.16328-.54706,1.82667-.8819.21222-.1069.39457-.10532.61308.00314,1.56729.786,3.44269,1.67104,5.46901,2.2684,1.38965.41187,2.80446.65395,4.12494.85517.25938.0393.52033.08803.77186.13519.19493.03616.38986.07231.58636.10532.16349.02672.2358.11476.22951.28453-.00629.20436-.00472.40715-.00314.58793v.19493c-.02987.58164-.05502,1.15857-.0786,1.73078-.05659,1.28433-.10847,2.49949-.21065,3.73351-.2468,3.00096-1.03281,5.80385-2.336,8.32849-1.36765,2.64726-3.01668,4.74589-5.04457,6.41536l-.27039.22322c-.775.64138-1.57829,1.30634-2.48849,1.79837-.28453.15406-.6178.33012-.96678.45903-.0393.01415-.08332.02044-.1289.02044Z"/>
    <path class="b" d="M19.96505,30.95109c.04873.00629.09589.00314.13048-.00943.34113-.12576.6681-.29868.94949-.44959.89762-.48732,1.69305-1.14599,2.46333-1.78423l.27039-.22322c2.01217-1.65532,3.6502-3.73823,5.00684-6.3682,1.29533-2.50735,2.07662-5.29137,2.32185-8.27189.10061-1.23245.15406-2.44604.20908-3.7288.02515-.57221.04873-1.14756.0786-1.73078v-.18864c-.00157-.18078-.00314-.38671.00314-.59265.00314-.09746-.01415-.11947-.10532-.13519-.19807-.03301-.393-.06917-.5895-.10532-.25152-.04559-.5109-.09432-.76714-.13362-1.3252-.20122-2.74629-.44645-4.14538-.85989-2.03732-.60051-3.92058-1.48869-5.49259-2.27784-.0896-.04402-.1682-.06602-.24523-.06602h-.00943c-.07388.00157-.1462.02201-.22637.06288-.66496.33484-1.26389.62409-1.82982.88504-2.01688.92591-3.74137,1.5107-5.42499,1.83767-.92748.18078-1.87698.33641-2.79346.48732-.24366.0393-.48889.08017-.73255.12104l-.03773.00472q-.32226.05345-.30811.39143c.03773.90076.0786,1.79995.11947,2.69913.03458.75456.06917,1.50913.10061,2.26212.06917,1.61445.26095,3.01825.58636,4.29158.44488,1.7465,1.04538,3.78539,2.1285,5.65922.96207,1.66318,1.85811,2.93179,2.82175,3.99289.83474.91962,1.82196,1.80466,3.10786,2.78402.5109.38986,1.08311.72312,1.63646,1.04538.18235.1069.36471.21222.54391.32069.06288.0393.15091.06917.22951.08017Z"/>
    <polyline class="b" points="19.19319 13.66688 22.4441 8.05797 22.44567 8.05797 22.50855 8.0957 26.96362 10.6785 27.0265 10.71466 27.09095 10.75239"/>
    <polyline class="b" points="23.76459 16.48863 23.70013 16.45091 23.63725 16.41475 22.33092 15.65861 21.48046 15.16501 19.95562 14.28154 19.11774 13.79579"/>
    <polyline class="b" points="26.88816 10.80583 22.49755 8.26076 19.32053 13.74077 23.71114 16.28742"/>
    <polyline class="b" points="19.79056 9.45076 17.27849 13.78478 18.66028 14.58493 19.11774 13.79579 19.19319 13.66688 19.93204 12.39356"/>
    <polyline class="b" points="19.93204 12.39356 22.44567 8.05797 22.92514 7.23109 21.54334 6.42937 19.79056 9.45076"/>
    <polyline class="b" points="26.92589 10.74295 26.96362 10.6785 27.51697 9.72272 29.155 10.67221 24.74238 18.28229 23.10434 17.3328 23.63725 16.41475 23.67341 16.3503 23.71114 16.28742 26.88816 10.80583 26.92432 10.74295"/>
    <polygon class="b" points="23.76459 16.48863 23.30556 17.27935 24.68735 18.08108 28.95221 10.72566 27.57041 9.92394 27.09095 10.75239 23.76459 16.48863"/>
  </g>
</svg>