<?xml version="1.0" encoding="UTF-8"?><svg id="uuid-e92b7fff-1c81-4f54-95d9-edf36cc7f6b1" xmlns="http://www.w3.org/2000/svg" viewBox="0 0 200 200"><defs><style>.uuid-d4c28ddf-9582-4a17-8593-611c6dfa1ee5{fill:none;stroke-width:1.21px;}.uuid-d4c28ddf-9582-4a17-8593-611c6dfa1ee5,.uuid-46259da5-5daf-4326-b531-4baf0c47ecc5{stroke:#fff;stroke-miterlimit:10;}.uuid-46259da5-5daf-4326-b531-4baf0c47ecc5{stroke-width:1.09px;}.uuid-46259da5-5daf-4326-b531-4baf0c47ecc5,.uuid-da6f4239-b0a6-47a5-b70b-5df3d30bc2c5{fill:#fff;}.uuid-c6b15670-de96-421b-bca8-2ecc0a288190{fill:#0099c4;}.uuid-c6b15670-de96-421b-bca8-2ecc0a288190,.uuid-da6f4239-b0a6-47a5-b70b-5df3d30bc2c5{stroke-width:0px;}</style></defs><g id="uuid-64522584-bb83-4574-a252-ed81317b8296"><circle class="uuid-c6b15670-de96-421b-bca8-2ecc0a288190" cx="100" cy="100" r="100"/><polygon class="uuid-da6f4239-b0a6-47a5-b70b-5df3d30bc2c5" points="129.24 74.22 129.07 74.5 128.79 74.34 128.95 74.05 129.24 74.22"/><polygon class="uuid-da6f4239-b0a6-47a5-b70b-5df3d30bc2c5" points="128.95 74.05 128.79 74.34 128.78 74.34 108.83 62.76 109 62.48 128.95 74.05"/><rect class="uuid-da6f4239-b0a6-47a5-b70b-5df3d30bc2c5" x="114.11" y="99.53" width=".33" height=".33" transform="translate(-29.11 149.06) rotate(-60.1)"/><polygon class="uuid-da6f4239-b0a6-47a5-b70b-5df3d30bc2c5" points="114.34 99.91 114.5 99.63 114.22 99.47 114.38 99.18 128.62 74.62 128.78 74.34 128.79 74.34 129.07 74.5 129.24 74.22 129.52 74.38 114.63 100.08 114.34 99.91"/><polygon class="uuid-da6f4239-b0a6-47a5-b70b-5df3d30bc2c5" points="108.37 96.07 114.22 99.47 114.05 99.75 108.2 96.36 108.37 96.07"/><polygon class="uuid-da6f4239-b0a6-47a5-b70b-5df3d30bc2c5" points="112.57 103.63 118.76 107.22 137.87 74.26 131.68 70.67 129.52 74.38 129.24 74.22 131.56 70.22 138.32 74.14 118.88 107.67 112.12 103.74 114.34 99.91 114.63 100.08 112.57 103.63"/><polygon class="uuid-da6f4239-b0a6-47a5-b70b-5df3d30bc2c5" points="112.12 103.74 118.88 107.67 138.32 74.14 131.56 70.22 129.24 74.22 128.95 74.05 131.44 69.77 138.77 74.02 119 108.12 111.67 103.86 114.05 99.75 114.34 99.91 112.12 103.74"/><polygon class="uuid-da6f4239-b0a6-47a5-b70b-5df3d30bc2c5" points="108.72 62.31 108.71 62.31 108.71 62.31 108.72 62.31"/><path class="uuid-da6f4239-b0a6-47a5-b70b-5df3d30bc2c5" d="M108.71,62.31l-9.95,17.15,9.95-17.15Z"/><path class="uuid-da6f4239-b0a6-47a5-b70b-5df3d30bc2c5" d="M104.55,93.86l-.17.29-6.83-3.96v-.39l6.99,4.06Z"/><path class="uuid-da6f4239-b0a6-47a5-b70b-5df3d30bc2c5" d="M99.09,44.53c-.39-.2-.75-.3-1.1-.3h-.03c0-.22.01-.33.03-.33.41,0,.81.11,1.25.33,7.95,3.99,16.01,7.66,24.56,10.19,6.07,1.8,12.28,2.9,18.53,3.85,2.04.31,4.05.73,6.08,1.07.58.1.77.36.75.94-.04,1.26-.01,2.53-.01,3.5-.42,8.36-.63,16.43-1.3,24.47-1.07,13.05-4.42,25.56-10.43,37.2-5.65,10.94-12.91,20.72-22.52,28.64-3.94,3.24-7.8,6.58-12.31,9.02-1.39.75-2.82,1.49-4.3,2.04-.19.07-.42.08-.66.06-.01,0-.03-.11-.04-.33.22.03.43.01.58-.04,1.53-.56,2.99-1.34,4.25-2.01,4.02-2.18,7.59-5.13,11.04-7.99l1.21-1c9.02-7.42,16.36-16.76,22.43-28.53,5.8-11.23,9.3-23.71,10.4-37.06.45-5.52.68-10.96.94-16.71.11-2.56.22-5.14.35-7.76v-.85c0-.81-.01-1.73.01-2.66.01-.44-.06-.54-.48-.61-.88-.15-1.75-.31-2.63-.47-1.13-.21-2.29-.42-3.44-.6-5.94-.9-12.31-2-18.57-3.85-9.13-2.69-17.57-6.67-24.62-10.21Z"/><path class="uuid-da6f4239-b0a6-47a5-b70b-5df3d30bc2c5" d="M97.56,90.19l-3.75-2.18,3.64-6.28,1.32-2.27,9.95-17.15h0s.28.16.28.16l-.17.29,19.96,11.57-.16.28-19.67-11.4-14.24,24.55,19.67,11.41-.16.29-5.85-3.4-.17.29-3.82-2.21.17-.29-6.99-4.06v.39Z"/><path class="uuid-da6f4239-b0a6-47a5-b70b-5df3d30bc2c5" d="M64.3,56.07c7.49-1.46,15.17-4.06,24.15-8.19,2.53-1.16,5.21-2.45,8.18-3.95.95-.48,1.77-.47,2.74.01,7.03,3.52,15.43,7.49,24.51,10.16,6.23,1.85,12.57,2.93,18.49,3.83,1.16.18,2.33.39,3.46.61.87.16,1.75.32,2.63.47.73.12,1.05.51,1.03,1.27-.03.92-.02,1.82-.02,2.63v.87s0,0,0,0c-.13,2.61-.25,5.19-.35,7.76-.25,5.75-.49,11.2-.94,16.73-1.11,13.45-4.63,26.01-10.47,37.32-6.12,11.86-13.52,21.27-22.6,28.75l-1.21,1c-3.48,2.87-7.07,5.85-11.15,8.06-1.27.69-2.77,1.48-4.34,2.06-.17.06-.37.09-.57.09-.55,0-1.17-.2-1.61-.46-.8-.48-1.62-.96-2.44-1.43-2.49-1.45-5.07-2.96-7.4-4.73-5.79-4.42-10.25-8.41-14.02-12.56-4.35-4.79-8.39-10.51-12.72-18-4.9-8.47-7.61-17.66-9.61-25.53-1.47-5.75-2.33-12.08-2.65-19.36-.14-3.37-.3-6.76-.45-10.13-.18-4.04-.37-8.07-.54-12.1-.08-1.94.06-2.12,1.94-2.43l.16-.03c1.1-.18,2.19-.36,3.29-.54,4.1-.67,8.35-1.37,12.5-2.18ZM86.8,158.4c2.29,1.75,4.85,3.24,7.33,4.68.82.47,1.63.95,2.44,1.44.28.17.68.31,1.03.36,0,.22.02.33.04.33.24.02.47,0,.66-.06,1.48-.55,2.9-1.28,4.3-2.04,4.51-2.44,8.36-5.78,12.31-9.02,9.61-7.92,16.87-17.7,22.52-28.64,6.01-11.64,9.36-24.15,10.43-37.2.66-8.04.87-16.11,1.3-24.47,0-.97-.03-2.24.01-3.5.02-.58-.17-.85-.75-.94-2.03-.34-4.04-.76-6.08-1.07-6.25-.95-12.46-2.05-18.53-3.85-8.55-2.52-16.62-6.2-24.56-10.19-.44-.22-.84-.33-1.25-.33-.01,0-.02.11-.03.33h0c-.32,0-.66.1-1.01.28-2.98,1.5-5.66,2.8-8.21,3.97-9.04,4.15-16.76,6.77-24.3,8.23-4.16.81-8.41,1.51-12.52,2.18-1.1.18-2.19.36-3.29.54l-.16.02q-1.45.24-1.39,1.75c.17,4.04.36,8.07.54,12.09.15,3.38.31,6.76.45,10.14.31,7.23,1.17,13.52,2.62,19.23,2,7.83,4.69,16.96,9.54,25.36,4.31,7.45,8.33,13.14,12.64,17.89,3.74,4.12,8.16,8.09,13.93,12.47Z"/><path class="uuid-d4c28ddf-9582-4a17-8593-611c6dfa1ee5" d="M97.84,165.55c-.55,0-1.17-.2-1.61-.46-.8-.48-1.62-.96-2.44-1.43-2.49-1.45-5.07-2.96-7.4-4.73-5.79-4.42-10.25-8.41-14.02-12.56-4.35-4.79-8.39-10.51-12.72-18-4.9-8.47-7.61-17.66-9.61-25.53-1.47-5.75-2.33-12.08-2.65-19.36-.14-3.37-.3-6.76-.45-10.13-.18-4.04-.37-8.07-.54-12.1-.08-1.94.06-2.12,1.94-2.43l.16-.03c1.1-.18,2.19-.36,3.29-.54,4.1-.67,8.35-1.37,12.5-2.18,7.49-1.46,15.17-4.06,24.15-8.19,2.53-1.16,5.21-2.45,8.18-3.95.95-.48,1.77-.47,2.74.01,7.03,3.52,15.43,7.49,24.51,10.16,6.23,1.85,12.57,2.93,18.49,3.83,1.16.18,2.33.39,3.46.61.87.16,1.75.32,2.63.47.73.12,1.05.51,1.03,1.27-.03.92-.02,1.82-.02,2.63v.87s0,0,0,0c-.13,2.61-.25,5.19-.35,7.76-.25,5.75-.49,11.2-.94,16.73-1.11,13.45-4.63,26.01-10.47,37.32-6.12,11.86-13.52,21.27-22.6,28.75l-1.21,1c-3.48,2.87-7.07,5.85-11.15,8.06-1.27.69-2.77,1.48-4.34,2.06-.17.06-.37.09-.57.09Z"/><path class="uuid-d4c28ddf-9582-4a17-8593-611c6dfa1ee5" d="M97.95,44.24c-.32,0-.66.1-1.01.28-2.98,1.5-5.66,2.8-8.21,3.97-9.04,4.15-16.76,6.77-24.3,8.23-4.16.81-8.41,1.51-12.52,2.18-1.1.18-2.19.36-3.29.54l-.16.02q-1.45.24-1.39,1.75c.17,4.04.36,8.07.54,12.09.15,3.38.31,6.76.45,10.14.31,7.23,1.17,13.52,2.62,19.23,2,7.83,4.69,16.96,9.54,25.36,4.31,7.45,8.33,13.14,12.64,17.89,3.74,4.12,8.16,8.09,13.93,12.47,2.29,1.75,4.85,3.24,7.33,4.68.82.47,1.63.95,2.44,1.44.28.17.68.31,1.03.36.22.03.43.01.58-.04,1.53-.56,2.99-1.34,4.25-2.01,4.02-2.18,7.59-5.13,11.04-7.99l1.21-1c9.02-7.42,16.36-16.76,22.43-28.53,5.8-11.23,9.3-23.71,10.4-37.06.45-5.52.68-10.96.94-16.71.11-2.56.22-5.14.35-7.76v-.85c0-.81-.01-1.73.01-2.66.01-.44-.06-.54-.48-.61-.88-.15-1.75-.31-2.63-.47-1.13-.21-2.29-.42-3.44-.6-5.94-.9-12.31-2-18.57-3.85-9.13-2.69-17.57-6.67-24.62-10.21-.39-.2-.75-.3-1.1-.3h-.03"/><polygon class="uuid-d4c28ddf-9582-4a17-8593-611c6dfa1ee5" points="97.39 115.01 81.33 142.72 71.39 125.51 73.95 121.07 81.35 133.89 97.38 106.23 97.39 115.01"/><polyline class="uuid-d4c28ddf-9582-4a17-8593-611c6dfa1ee5" points="98.76 79.46 108.71 62.31 108.71 62.31 108.72 62.31 109 62.48 128.95 74.05 129.24 74.22 129.52 74.38"/><polyline class="uuid-d4c28ddf-9582-4a17-8593-611c6dfa1ee5" points="114.63 100.08 114.34 99.91 114.05 99.75 108.2 96.36 104.38 94.15 97.56 90.19 93.8 88.02"/><polyline class="uuid-d4c28ddf-9582-4a17-8593-611c6dfa1ee5" points="128.62 74.62 108.95 63.21 94.71 87.77 114.38 99.18"/><polyline class="uuid-d4c28ddf-9582-4a17-8593-611c6dfa1ee5" points="96.82 68.55 85.56 87.96 91.75 91.55 93.8 88.02 97.45 81.73"/><polyline class="uuid-d4c28ddf-9582-4a17-8593-611c6dfa1ee5" points="97.45 81.73 98.76 79.46 108.71 62.31 108.72 62.31 110.86 58.6 104.67 55.01 96.82 68.55"/><polyline class="uuid-d4c28ddf-9582-4a17-8593-611c6dfa1ee5" points="128.79 74.34 128.95 74.05 131.44 69.77 138.77 74.02 119 108.12 111.67 103.86 114.05 99.75 114.22 99.47 114.38 99.18 128.62 74.62 128.78 74.34"/><polygon class="uuid-d4c28ddf-9582-4a17-8593-611c6dfa1ee5" points="114.63 100.08 112.57 103.63 118.76 107.22 137.87 74.26 131.68 70.67 129.52 74.38 114.63 100.08"/><path class="uuid-d4c28ddf-9582-4a17-8593-611c6dfa1ee5" d="M104.38,94.15l.17-.29-6.99-4.06v.39c-.02,5.19-.04,10.52-.06,15.84l6.88-11.88Z"/><path class="uuid-d4c28ddf-9582-4a17-8593-611c6dfa1ee5" d="M97.64,165.22c.24.02.47,0,.66-.06,1.48-.55,2.9-1.28,4.3-2.04,4.51-2.44,8.36-5.78,12.31-9.02,9.61-7.92,16.87-17.7,22.52-28.64,6.01-11.64,9.36-24.15,10.43-37.2.66-8.04.87-16.11,1.3-24.47,0-.97-.03-2.24.01-3.5.02-.58-.17-.85-.75-.94-2.03-.34-4.04-.76-6.08-1.07-6.25-.95-12.46-2.05-18.53-3.85-8.55-2.52-16.62-6.2-24.56-10.19"/><path class="uuid-d4c28ddf-9582-4a17-8593-611c6dfa1ee5" d="M128.23,75.94l-13.74,23.69-.28-.16-5.85-3.4-.17.29-10.73,18.5v.15c-.05,24.65-.03,46.93.13,49.88,0,.22.02.33.04.33"/><polyline class="uuid-d4c28ddf-9582-4a17-8593-611c6dfa1ee5" points="107.99 64.21 108.83 62.76 128.78 74.34 128.79 74.34 129.07 74.5 129.24 74.22 131.56 70.22 138.32 74.14 118.88 107.67 112.12 103.74 114.34 99.91 114.5 99.63"/><path class="uuid-d4c28ddf-9582-4a17-8593-611c6dfa1ee5" d="M99.23,44.24c-.44-.22-.84-.33-1.25-.33-.01,0-.02.11-.03.33h0c-.09,1.75-.18,10.32-.27,22.15l6.86-11.83,6.77,3.92-2.32,3.99-.17.29"/><line class="uuid-46259da5-5daf-4326-b531-4baf0c47ecc5" x1="97.45" y1="120.76" x2="97.45" y2="96.61"/></g></svg>
