<?xml version="1.0" encoding="UTF-8"?><svg id="uuid-f246f4bd-4cec-45a9-9750-6cd221a5a2cf" xmlns="http://www.w3.org/2000/svg" viewBox="0 0 200 200"><defs><style>.uuid-8dc79add-0e6b-4bbc-85f3-14ae4e673700{fill:none;stroke:#fff;stroke-miterlimit:10;stroke-width:1.85px;}.uuid-9435bfff-f424-42ed-bd7d-37fd3da6f283{fill:#d1356f;stroke-width:0px;}</style></defs><g id="uuid-f373e254-6ef3-4012-b9b4-560a5719edfc"><circle class="uuid-9435bfff-f424-42ed-bd7d-37fd3da6f283" cx="100" cy="100" r="100"/><path class="uuid-8dc79add-0e6b-4bbc-85f3-14ae4e673700" d="M87.18,73.54c18.69-12.15,9.02-34.53,9.02-34.53l-46.96,27.22s19.31,19.42,37.94,7.31Z"/><path class="uuid-8dc79add-0e6b-4bbc-85f3-14ae4e673700" d="M71.12,99.23c-.98-22.27-25.17-25.3-25.17-25.3l-.38,54.27s26.54-6.78,25.55-28.98Z"/><path class="uuid-8dc79add-0e6b-4bbc-85f3-14ae4e673700" d="M87.14,126.47c18.69,12.15,9.02,34.52,9.02,34.52l-46.96-27.22s19.31-19.41,37.94-7.3Z"/><path class="uuid-8dc79add-0e6b-4bbc-85f3-14ae4e673700" d="M113.51,73.54c-18.67-12.15-9.01-34.53-9.01-34.53l46.96,27.22s-19.33,19.42-37.95,7.31Z"/><path class="uuid-8dc79add-0e6b-4bbc-85f3-14ae4e673700" d="M128.89,99.23c.98-22.27,25.17-25.3,25.17-25.3l.38,54.27s-26.54-6.78-25.55-28.98Z"/><path class="uuid-8dc79add-0e6b-4bbc-85f3-14ae4e673700" d="M113.55,125.77c-18.67,12.15-9.01,34.53-9.01,34.53l46.96-27.22s-19.31-19.42-37.95-7.31Z"/><path class="uuid-8dc79add-0e6b-4bbc-85f3-14ae4e673700" d="M116.65,81.42c0,3.53-2.87,6.4-6.4,6.4s-6.39-2.87-6.39-6.4,2.86-6.39,6.39-6.39,6.4,2.86,6.4,6.39Z"/><path class="uuid-8dc79add-0e6b-4bbc-85f3-14ae4e673700" d="M96.27,81.42c0,3.53-2.87,6.4-6.4,6.4s-6.39-2.87-6.39-6.4,2.86-6.39,6.39-6.39,6.4,2.86,6.4,6.39Z"/><path class="uuid-8dc79add-0e6b-4bbc-85f3-14ae4e673700" d="M96.27,117.88c0,3.53-2.87,6.4-6.4,6.4s-6.39-2.87-6.39-6.4,2.86-6.39,6.39-6.39,6.4,2.86,6.4,6.39Z"/><circle class="uuid-8dc79add-0e6b-4bbc-85f3-14ae4e673700" cx="78.97" cy="99.63" r="6.4"/><path class="uuid-8dc79add-0e6b-4bbc-85f3-14ae4e673700" d="M127.56,100c0,3.53-2.86,6.39-6.39,6.39s-6.4-2.86-6.4-6.39,2.87-6.4,6.4-6.4,6.39,2.87,6.39,6.4Z"/><path class="uuid-8dc79add-0e6b-4bbc-85f3-14ae4e673700" d="M116.65,117.19c0,3.53-2.87,6.39-6.4,6.39s-6.39-2.86-6.39-6.39,2.86-6.4,6.39-6.4,6.4,2.87,6.4,6.4Z"/></g></svg>
