<?xml version="1.0" encoding="utf-8"?>
<!-- Generator: Adobe Illustrator 28.1.0, SVG Export Plug-In . SVG Version: 6.00 Build 0)  -->
<svg version="1.1" id="a" xmlns="http://www.w3.org/2000/svg" xmlns:xlink="http://www.w3.org/1999/xlink" x="0px" y="0px"
	 viewBox="0 0 40.1 35" style="enable-background:new 0 0 40.1 35;" xml:space="preserve">
<style type="text/css">
	.st0{fill:#FFFFFF;}
</style>
<path class="st0" d="M31.5,24.5c0.3,0.7-0.1,1.5-0.8,1.7c-0.7,0.3-1.5-0.1-1.7-0.8c-0.3-0.7,0.1-1.5,0.8-1.7
	C30.4,23.5,31.2,23.8,31.5,24.5z"/>
<path class="st0" d="M27.3,16.8c2.9,3.1,1.3,7.3,1.3,7.3c-5.3,6.3-13.2,0-13.6-0.3c8.4,3.1,11.2,0.5,12.1-2.4
	C27.8,19.1,27.3,16.8,27.3,16.8z"/>
<path class="st0" d="M20.2,9.3c8.3,1.4,6.5,11.9,6.5,11.9c-1.4-8-4.6-9.7-7.3-9.4c-2.6,0.3-4.9,2.3-4.9,2.3
	C15.8,10,20.2,9.3,20.2,9.3z"/>
<path class="st0" d="M21,6.4c0.6,0.4,0.7,1.3,0.2,1.9C20.8,8.9,20,9,19.4,8.5c-0.6-0.4-0.7-1.3-0.2-1.9C19.6,6.1,20.5,6,21,6.4z"/>
<path class="st0" d="M19.4,12l-0.6,0.5c-4,3.4-5.8,6.4-5.3,9c0.2,1,0.7,1.8,1.3,2.4c1.5,1.7,3.9,2.5,3.9,2.5l0.5,0.1l-0.5,0.1
	c-0.5,0.1-0.9,0.2-1.4,0.2c-1.6,0-2.9-0.5-3.8-1.1c-1.2-0.8-1.9-1.6-2-1.6l0,0l0,0c-0.7-1.8-0.7-3.6-0.1-5.2
	c0.5-1.3,1.4-2.5,2.6-3.7c2.1-1.9,4.6-2.9,4.7-2.9L19.4,12z M13.6,25.5c1,0.6,2.6,1.2,4.5,1c-0.5-0.2-1.2-0.5-2-1
	c-1.6-1.1-2.7-2.4-3-3.9c-0.5-2.5,1.1-5.4,4.7-8.6c-0.9,0.4-2.4,1.2-3.7,2.5c-2.8,2.5-3.6,5.4-2.4,8.6
	C11.9,24.1,12.5,24.9,13.6,25.5z"/>
<path class="st0" d="M18.1,26.5c-1.9,0.3-3.5-0.3-4.5-1c-1.1-0.7-1.8-1.4-1.9-1.6c-1.2-3.2-0.4-6.1,2.4-8.6c1.3-1.2,2.8-2,3.7-2.5
	c-3.6,3.2-5.2,6.1-4.7,8.6c0.3,1.5,1.3,2.8,3,3.9C16.9,26,17.7,26.3,18.1,26.5z"/>
<path class="st0" d="M11.2,24.1c0.2,0.3,0.3,0.7,0.3,1.1c-0.1,0.7-0.7,1.2-1.4,1.3c-0.1,0-0.2,0-0.2,0c-0.4,0-0.7-0.3-1-0.6
	c-0.2-0.3-0.3-0.7-0.3-1.1c0.1-0.4,0.3-0.7,0.6-1c0.3-0.2,0.7-0.3,1.1-0.3C10.6,23.5,10.9,23.7,11.2,24.1z M11.2,25.1
	c0.1-0.3,0-0.6-0.2-0.9c-0.2-0.2-0.5-0.4-0.8-0.5c-0.3,0-0.6,0-0.9,0.2c-0.3,0.2-0.4,0.5-0.5,0.8c-0.1,0.3,0,0.6,0.2,0.9
	c0.2,0.2,0.5,0.4,0.8,0.5C10.5,26.2,11.1,25.8,11.2,25.1z"/>
<path class="st0" d="M11,24.2c0.2,0.3,0.3,0.6,0.2,0.9c-0.1,0.7-0.7,1.1-1.4,1c-0.3,0-0.6-0.2-0.8-0.5c-0.2-0.3-0.3-0.6-0.2-0.9
	c0-0.3,0.2-0.6,0.5-0.8c0.2-0.2,0.6-0.3,0.9-0.2C10.5,23.8,10.8,24,11,24.2z"/>
</svg>
