<?xml version="1.0" encoding="UTF-8"?><svg id="uuid-f8d903a5-c31e-48a8-92b8-bf5a59a3d99b" xmlns="http://www.w3.org/2000/svg" viewBox="0 0 252.97 273.98"><defs><style>.uuid-fe200140-55ed-4e5e-84d1-15f8bb8a76b1{fill:#fff;stroke:#fff;stroke-linecap:round;stroke-miterlimit:10;stroke-width:4.05px;}.uuid-8fc641e2-4776-4950-b79c-5a73ff02cd87{fill:#f6c310;stroke-width:0px;}</style></defs><g id="uuid-dec4e32b-a3f7-4e05-b75f-aed371022a86"><ellipse class="uuid-8fc641e2-4776-4950-b79c-5a73ff02cd87" cx="126.49" cy="136.99" rx="126.49" ry="136.99"/><path class="uuid-fe200140-55ed-4e5e-84d1-15f8bb8a76b1" d="M93.54,152.3l9.98,48.91c1.18,5.77-2.19,11.48-7.51,12.75l-1.49.36c-5.33,1.27-10.6-2.37-11.78-8.14l-10.99-53.88"/><line class="uuid-fe200140-55ed-4e5e-84d1-15f8bb8a76b1" x1="173.79" y1="127.54" x2="212.17" y2="127.54"/><line class="uuid-fe200140-55ed-4e5e-84d1-15f8bb8a76b1" x1="173.79" y1="97.28" x2="202.71" y2="65.96"/><line class="uuid-fe200140-55ed-4e5e-84d1-15f8bb8a76b1" x1="173.79" y1="156.28" x2="202.71" y2="187.6"/><path class="uuid-fe200140-55ed-4e5e-84d1-15f8bb8a76b1" d="M48.62,122.83c0-21,7.24-24.55,12.03-27.33,4.79-2.78,42.91,2.33,56.19,0,15.89-2.78,42.06-28.34,42.06-28.34l-1.93,119.25s-20.5-30.94-39.2-32.2c-14.68-.99-52.68-1.08-57.95-5.63-5.27-4.55-11.22-4.74-11.22-25.75Z"/></g></svg>
